%TF.GenerationSoftware,KiCad,Pcbnew,10.0.0*%
%TF.CreationDate,2026-03-24T14:40:19+01:00*%
%TF.ProjectId,6gend-rf-db-1,3667656e-642d-4726-962d-64622d312e6b,1a*%
%TF.SameCoordinates,PX964c900PY623a7c0*%
%TF.FileFunction,Legend,Bot*%
%TF.FilePolarity,Positive*%
%FSLAX46Y46*%
G04 Gerber Fmt 4.6, Leading zero omitted, Abs format (unit mm)*
G04 Created by KiCad (PCBNEW 10.0.0) date 2026-03-24 14:40:19*
%MOMM*%
%LPD*%
G01*
G04 APERTURE LIST*
%ADD10C,0.150000*%
%ADD11C,0.100000*%
G04 APERTURE END LIST*
D10*
X23406077Y19730181D02*
X22834649Y19730181D01*
X23120363Y18730181D02*
X23120363Y19730181D01*
X22501315Y18730181D02*
X22501315Y19730181D01*
X22501315Y19730181D02*
X22120363Y19730181D01*
X22120363Y19730181D02*
X22025125Y19682562D01*
X22025125Y19682562D02*
X21977506Y19634943D01*
X21977506Y19634943D02*
X21929887Y19539705D01*
X21929887Y19539705D02*
X21929887Y19396848D01*
X21929887Y19396848D02*
X21977506Y19301610D01*
X21977506Y19301610D02*
X22025125Y19253991D01*
X22025125Y19253991D02*
X22120363Y19206372D01*
X22120363Y19206372D02*
X22501315Y19206372D01*
X21072744Y19730181D02*
X21263220Y19730181D01*
X21263220Y19730181D02*
X21358458Y19682562D01*
X21358458Y19682562D02*
X21406077Y19634943D01*
X21406077Y19634943D02*
X21501315Y19492086D01*
X21501315Y19492086D02*
X21548934Y19301610D01*
X21548934Y19301610D02*
X21548934Y18920658D01*
X21548934Y18920658D02*
X21501315Y18825420D01*
X21501315Y18825420D02*
X21453696Y18777800D01*
X21453696Y18777800D02*
X21358458Y18730181D01*
X21358458Y18730181D02*
X21167982Y18730181D01*
X21167982Y18730181D02*
X21072744Y18777800D01*
X21072744Y18777800D02*
X21025125Y18825420D01*
X21025125Y18825420D02*
X20977506Y18920658D01*
X20977506Y18920658D02*
X20977506Y19158753D01*
X20977506Y19158753D02*
X21025125Y19253991D01*
X21025125Y19253991D02*
X21072744Y19301610D01*
X21072744Y19301610D02*
X21167982Y19349229D01*
X21167982Y19349229D02*
X21358458Y19349229D01*
X21358458Y19349229D02*
X21453696Y19301610D01*
X21453696Y19301610D02*
X21501315Y19253991D01*
X21501315Y19253991D02*
X21548934Y19158753D01*
X23406077Y18430181D02*
X23072744Y17430181D01*
X23072744Y17430181D02*
X22739411Y18430181D01*
X22406077Y17430181D02*
X22406077Y18430181D01*
X22406077Y18430181D02*
X22025125Y18430181D01*
X22025125Y18430181D02*
X21929887Y18382562D01*
X21929887Y18382562D02*
X21882268Y18334943D01*
X21882268Y18334943D02*
X21834649Y18239705D01*
X21834649Y18239705D02*
X21834649Y18096848D01*
X21834649Y18096848D02*
X21882268Y18001610D01*
X21882268Y18001610D02*
X21929887Y17953991D01*
X21929887Y17953991D02*
X22025125Y17906372D01*
X22025125Y17906372D02*
X22406077Y17906372D01*
X21453696Y17715896D02*
X20977506Y17715896D01*
X21548934Y17430181D02*
X21215601Y18430181D01*
X21215601Y18430181D02*
X20882268Y17430181D01*
X31406077Y19630181D02*
X30834649Y19630181D01*
X31120363Y18630181D02*
X31120363Y19630181D01*
X30501315Y18630181D02*
X30501315Y19630181D01*
X30501315Y19630181D02*
X30120363Y19630181D01*
X30120363Y19630181D02*
X30025125Y19582562D01*
X30025125Y19582562D02*
X29977506Y19534943D01*
X29977506Y19534943D02*
X29929887Y19439705D01*
X29929887Y19439705D02*
X29929887Y19296848D01*
X29929887Y19296848D02*
X29977506Y19201610D01*
X29977506Y19201610D02*
X30025125Y19153991D01*
X30025125Y19153991D02*
X30120363Y19106372D01*
X30120363Y19106372D02*
X30501315Y19106372D01*
X29453696Y18630181D02*
X29263220Y18630181D01*
X29263220Y18630181D02*
X29167982Y18677800D01*
X29167982Y18677800D02*
X29120363Y18725420D01*
X29120363Y18725420D02*
X29025125Y18868277D01*
X29025125Y18868277D02*
X28977506Y19058753D01*
X28977506Y19058753D02*
X28977506Y19439705D01*
X28977506Y19439705D02*
X29025125Y19534943D01*
X29025125Y19534943D02*
X29072744Y19582562D01*
X29072744Y19582562D02*
X29167982Y19630181D01*
X29167982Y19630181D02*
X29358458Y19630181D01*
X29358458Y19630181D02*
X29453696Y19582562D01*
X29453696Y19582562D02*
X29501315Y19534943D01*
X29501315Y19534943D02*
X29548934Y19439705D01*
X29548934Y19439705D02*
X29548934Y19201610D01*
X29548934Y19201610D02*
X29501315Y19106372D01*
X29501315Y19106372D02*
X29453696Y19058753D01*
X29453696Y19058753D02*
X29358458Y19011134D01*
X29358458Y19011134D02*
X29167982Y19011134D01*
X29167982Y19011134D02*
X29072744Y19058753D01*
X29072744Y19058753D02*
X29025125Y19106372D01*
X29025125Y19106372D02*
X28977506Y19201610D01*
X30939411Y18282562D02*
X31034649Y18330181D01*
X31034649Y18330181D02*
X31177506Y18330181D01*
X31177506Y18330181D02*
X31320363Y18282562D01*
X31320363Y18282562D02*
X31415601Y18187324D01*
X31415601Y18187324D02*
X31463220Y18092086D01*
X31463220Y18092086D02*
X31510839Y17901610D01*
X31510839Y17901610D02*
X31510839Y17758753D01*
X31510839Y17758753D02*
X31463220Y17568277D01*
X31463220Y17568277D02*
X31415601Y17473039D01*
X31415601Y17473039D02*
X31320363Y17377800D01*
X31320363Y17377800D02*
X31177506Y17330181D01*
X31177506Y17330181D02*
X31082268Y17330181D01*
X31082268Y17330181D02*
X30939411Y17377800D01*
X30939411Y17377800D02*
X30891792Y17425420D01*
X30891792Y17425420D02*
X30891792Y17758753D01*
X30891792Y17758753D02*
X31082268Y17758753D01*
X30463220Y17330181D02*
X30463220Y18330181D01*
X30463220Y18330181D02*
X29891792Y17330181D01*
X29891792Y17330181D02*
X29891792Y18330181D01*
X29415601Y17330181D02*
X29415601Y18330181D01*
X29415601Y18330181D02*
X29177506Y18330181D01*
X29177506Y18330181D02*
X29034649Y18282562D01*
X29034649Y18282562D02*
X28939411Y18187324D01*
X28939411Y18187324D02*
X28891792Y18092086D01*
X28891792Y18092086D02*
X28844173Y17901610D01*
X28844173Y17901610D02*
X28844173Y17758753D01*
X28844173Y17758753D02*
X28891792Y17568277D01*
X28891792Y17568277D02*
X28939411Y17473039D01*
X28939411Y17473039D02*
X29034649Y17377800D01*
X29034649Y17377800D02*
X29177506Y17330181D01*
X29177506Y17330181D02*
X29415601Y17330181D01*
X21006077Y5030181D02*
X20434649Y5030181D01*
X20720363Y4030181D02*
X20720363Y5030181D01*
X20101315Y4030181D02*
X20101315Y5030181D01*
X20101315Y5030181D02*
X19720363Y5030181D01*
X19720363Y5030181D02*
X19625125Y4982562D01*
X19625125Y4982562D02*
X19577506Y4934943D01*
X19577506Y4934943D02*
X19529887Y4839705D01*
X19529887Y4839705D02*
X19529887Y4696848D01*
X19529887Y4696848D02*
X19577506Y4601610D01*
X19577506Y4601610D02*
X19625125Y4553991D01*
X19625125Y4553991D02*
X19720363Y4506372D01*
X19720363Y4506372D02*
X20101315Y4506372D01*
X18577506Y4030181D02*
X19148934Y4030181D01*
X18863220Y4030181D02*
X18863220Y5030181D01*
X18863220Y5030181D02*
X18958458Y4887324D01*
X18958458Y4887324D02*
X19053696Y4792086D01*
X19053696Y4792086D02*
X19148934Y4744467D01*
X17958458Y5030181D02*
X17863220Y5030181D01*
X17863220Y5030181D02*
X17767982Y4982562D01*
X17767982Y4982562D02*
X17720363Y4934943D01*
X17720363Y4934943D02*
X17672744Y4839705D01*
X17672744Y4839705D02*
X17625125Y4649229D01*
X17625125Y4649229D02*
X17625125Y4411134D01*
X17625125Y4411134D02*
X17672744Y4220658D01*
X17672744Y4220658D02*
X17720363Y4125420D01*
X17720363Y4125420D02*
X17767982Y4077800D01*
X17767982Y4077800D02*
X17863220Y4030181D01*
X17863220Y4030181D02*
X17958458Y4030181D01*
X17958458Y4030181D02*
X18053696Y4077800D01*
X18053696Y4077800D02*
X18101315Y4125420D01*
X18101315Y4125420D02*
X18148934Y4220658D01*
X18148934Y4220658D02*
X18196553Y4411134D01*
X18196553Y4411134D02*
X18196553Y4649229D01*
X18196553Y4649229D02*
X18148934Y4839705D01*
X18148934Y4839705D02*
X18101315Y4934943D01*
X18101315Y4934943D02*
X18053696Y4982562D01*
X18053696Y4982562D02*
X17958458Y5030181D01*
X20439411Y3682562D02*
X20534649Y3730181D01*
X20534649Y3730181D02*
X20677506Y3730181D01*
X20677506Y3730181D02*
X20820363Y3682562D01*
X20820363Y3682562D02*
X20915601Y3587324D01*
X20915601Y3587324D02*
X20963220Y3492086D01*
X20963220Y3492086D02*
X21010839Y3301610D01*
X21010839Y3301610D02*
X21010839Y3158753D01*
X21010839Y3158753D02*
X20963220Y2968277D01*
X20963220Y2968277D02*
X20915601Y2873039D01*
X20915601Y2873039D02*
X20820363Y2777800D01*
X20820363Y2777800D02*
X20677506Y2730181D01*
X20677506Y2730181D02*
X20582268Y2730181D01*
X20582268Y2730181D02*
X20439411Y2777800D01*
X20439411Y2777800D02*
X20391792Y2825420D01*
X20391792Y2825420D02*
X20391792Y3158753D01*
X20391792Y3158753D02*
X20582268Y3158753D01*
X19963220Y2730181D02*
X19963220Y3730181D01*
X19963220Y3730181D02*
X19391792Y2730181D01*
X19391792Y2730181D02*
X19391792Y3730181D01*
X18915601Y2730181D02*
X18915601Y3730181D01*
X18915601Y3730181D02*
X18677506Y3730181D01*
X18677506Y3730181D02*
X18534649Y3682562D01*
X18534649Y3682562D02*
X18439411Y3587324D01*
X18439411Y3587324D02*
X18391792Y3492086D01*
X18391792Y3492086D02*
X18344173Y3301610D01*
X18344173Y3301610D02*
X18344173Y3158753D01*
X18344173Y3158753D02*
X18391792Y2968277D01*
X18391792Y2968277D02*
X18439411Y2873039D01*
X18439411Y2873039D02*
X18534649Y2777800D01*
X18534649Y2777800D02*
X18677506Y2730181D01*
X18677506Y2730181D02*
X18915601Y2730181D01*
X10806077Y17130181D02*
X10234649Y17130181D01*
X10520363Y16130181D02*
X10520363Y17130181D01*
X9901315Y16130181D02*
X9901315Y17130181D01*
X9901315Y17130181D02*
X9520363Y17130181D01*
X9520363Y17130181D02*
X9425125Y17082562D01*
X9425125Y17082562D02*
X9377506Y17034943D01*
X9377506Y17034943D02*
X9329887Y16939705D01*
X9329887Y16939705D02*
X9329887Y16796848D01*
X9329887Y16796848D02*
X9377506Y16701610D01*
X9377506Y16701610D02*
X9425125Y16653991D01*
X9425125Y16653991D02*
X9520363Y16606372D01*
X9520363Y16606372D02*
X9901315Y16606372D01*
X8758458Y16701610D02*
X8853696Y16749229D01*
X8853696Y16749229D02*
X8901315Y16796848D01*
X8901315Y16796848D02*
X8948934Y16892086D01*
X8948934Y16892086D02*
X8948934Y16939705D01*
X8948934Y16939705D02*
X8901315Y17034943D01*
X8901315Y17034943D02*
X8853696Y17082562D01*
X8853696Y17082562D02*
X8758458Y17130181D01*
X8758458Y17130181D02*
X8567982Y17130181D01*
X8567982Y17130181D02*
X8472744Y17082562D01*
X8472744Y17082562D02*
X8425125Y17034943D01*
X8425125Y17034943D02*
X8377506Y16939705D01*
X8377506Y16939705D02*
X8377506Y16892086D01*
X8377506Y16892086D02*
X8425125Y16796848D01*
X8425125Y16796848D02*
X8472744Y16749229D01*
X8472744Y16749229D02*
X8567982Y16701610D01*
X8567982Y16701610D02*
X8758458Y16701610D01*
X8758458Y16701610D02*
X8853696Y16653991D01*
X8853696Y16653991D02*
X8901315Y16606372D01*
X8901315Y16606372D02*
X8948934Y16511134D01*
X8948934Y16511134D02*
X8948934Y16320658D01*
X8948934Y16320658D02*
X8901315Y16225420D01*
X8901315Y16225420D02*
X8853696Y16177800D01*
X8853696Y16177800D02*
X8758458Y16130181D01*
X8758458Y16130181D02*
X8567982Y16130181D01*
X8567982Y16130181D02*
X8472744Y16177800D01*
X8472744Y16177800D02*
X8425125Y16225420D01*
X8425125Y16225420D02*
X8377506Y16320658D01*
X8377506Y16320658D02*
X8377506Y16511134D01*
X8377506Y16511134D02*
X8425125Y16606372D01*
X8425125Y16606372D02*
X8472744Y16653991D01*
X8472744Y16653991D02*
X8567982Y16701610D01*
X10339411Y15782562D02*
X10434649Y15830181D01*
X10434649Y15830181D02*
X10577506Y15830181D01*
X10577506Y15830181D02*
X10720363Y15782562D01*
X10720363Y15782562D02*
X10815601Y15687324D01*
X10815601Y15687324D02*
X10863220Y15592086D01*
X10863220Y15592086D02*
X10910839Y15401610D01*
X10910839Y15401610D02*
X10910839Y15258753D01*
X10910839Y15258753D02*
X10863220Y15068277D01*
X10863220Y15068277D02*
X10815601Y14973039D01*
X10815601Y14973039D02*
X10720363Y14877800D01*
X10720363Y14877800D02*
X10577506Y14830181D01*
X10577506Y14830181D02*
X10482268Y14830181D01*
X10482268Y14830181D02*
X10339411Y14877800D01*
X10339411Y14877800D02*
X10291792Y14925420D01*
X10291792Y14925420D02*
X10291792Y15258753D01*
X10291792Y15258753D02*
X10482268Y15258753D01*
X9863220Y14830181D02*
X9863220Y15830181D01*
X9863220Y15830181D02*
X9291792Y14830181D01*
X9291792Y14830181D02*
X9291792Y15830181D01*
X8815601Y14830181D02*
X8815601Y15830181D01*
X8815601Y15830181D02*
X8577506Y15830181D01*
X8577506Y15830181D02*
X8434649Y15782562D01*
X8434649Y15782562D02*
X8339411Y15687324D01*
X8339411Y15687324D02*
X8291792Y15592086D01*
X8291792Y15592086D02*
X8244173Y15401610D01*
X8244173Y15401610D02*
X8244173Y15258753D01*
X8244173Y15258753D02*
X8291792Y15068277D01*
X8291792Y15068277D02*
X8339411Y14973039D01*
X8339411Y14973039D02*
X8434649Y14877800D01*
X8434649Y14877800D02*
X8577506Y14830181D01*
X8577506Y14830181D02*
X8815601Y14830181D01*
X14906077Y17030181D02*
X14334649Y17030181D01*
X14620363Y16030181D02*
X14620363Y17030181D01*
X14001315Y16030181D02*
X14001315Y17030181D01*
X14001315Y17030181D02*
X13620363Y17030181D01*
X13620363Y17030181D02*
X13525125Y16982562D01*
X13525125Y16982562D02*
X13477506Y16934943D01*
X13477506Y16934943D02*
X13429887Y16839705D01*
X13429887Y16839705D02*
X13429887Y16696848D01*
X13429887Y16696848D02*
X13477506Y16601610D01*
X13477506Y16601610D02*
X13525125Y16553991D01*
X13525125Y16553991D02*
X13620363Y16506372D01*
X13620363Y16506372D02*
X14001315Y16506372D01*
X12525125Y17030181D02*
X13001315Y17030181D01*
X13001315Y17030181D02*
X13048934Y16553991D01*
X13048934Y16553991D02*
X13001315Y16601610D01*
X13001315Y16601610D02*
X12906077Y16649229D01*
X12906077Y16649229D02*
X12667982Y16649229D01*
X12667982Y16649229D02*
X12572744Y16601610D01*
X12572744Y16601610D02*
X12525125Y16553991D01*
X12525125Y16553991D02*
X12477506Y16458753D01*
X12477506Y16458753D02*
X12477506Y16220658D01*
X12477506Y16220658D02*
X12525125Y16125420D01*
X12525125Y16125420D02*
X12572744Y16077800D01*
X12572744Y16077800D02*
X12667982Y16030181D01*
X12667982Y16030181D02*
X12906077Y16030181D01*
X12906077Y16030181D02*
X13001315Y16077800D01*
X13001315Y16077800D02*
X13048934Y16125420D01*
X14906077Y15730181D02*
X14572744Y14730181D01*
X14572744Y14730181D02*
X14239411Y15730181D01*
X13906077Y14730181D02*
X13906077Y15730181D01*
X13906077Y15730181D02*
X13667982Y15730181D01*
X13667982Y15730181D02*
X13525125Y15682562D01*
X13525125Y15682562D02*
X13429887Y15587324D01*
X13429887Y15587324D02*
X13382268Y15492086D01*
X13382268Y15492086D02*
X13334649Y15301610D01*
X13334649Y15301610D02*
X13334649Y15158753D01*
X13334649Y15158753D02*
X13382268Y14968277D01*
X13382268Y14968277D02*
X13429887Y14873039D01*
X13429887Y14873039D02*
X13525125Y14777800D01*
X13525125Y14777800D02*
X13667982Y14730181D01*
X13667982Y14730181D02*
X13906077Y14730181D01*
X12906077Y14730181D02*
X12906077Y15730181D01*
X12906077Y15730181D02*
X12667982Y15730181D01*
X12667982Y15730181D02*
X12525125Y15682562D01*
X12525125Y15682562D02*
X12429887Y15587324D01*
X12429887Y15587324D02*
X12382268Y15492086D01*
X12382268Y15492086D02*
X12334649Y15301610D01*
X12334649Y15301610D02*
X12334649Y15158753D01*
X12334649Y15158753D02*
X12382268Y14968277D01*
X12382268Y14968277D02*
X12429887Y14873039D01*
X12429887Y14873039D02*
X12525125Y14777800D01*
X12525125Y14777800D02*
X12667982Y14730181D01*
X12667982Y14730181D02*
X12906077Y14730181D01*
X21006077Y8430181D02*
X20434649Y8430181D01*
X20720363Y7430181D02*
X20720363Y8430181D01*
X20101315Y7430181D02*
X20101315Y8430181D01*
X20101315Y8430181D02*
X19720363Y8430181D01*
X19720363Y8430181D02*
X19625125Y8382562D01*
X19625125Y8382562D02*
X19577506Y8334943D01*
X19577506Y8334943D02*
X19529887Y8239705D01*
X19529887Y8239705D02*
X19529887Y8096848D01*
X19529887Y8096848D02*
X19577506Y8001610D01*
X19577506Y8001610D02*
X19625125Y7953991D01*
X19625125Y7953991D02*
X19720363Y7906372D01*
X19720363Y7906372D02*
X20101315Y7906372D01*
X19196553Y8430181D02*
X18529887Y8430181D01*
X18529887Y8430181D02*
X18958458Y7430181D01*
X20963220Y6130181D02*
X20963220Y7130181D01*
X20963220Y7130181D02*
X20725125Y7130181D01*
X20725125Y7130181D02*
X20582268Y7082562D01*
X20582268Y7082562D02*
X20487030Y6987324D01*
X20487030Y6987324D02*
X20439411Y6892086D01*
X20439411Y6892086D02*
X20391792Y6701610D01*
X20391792Y6701610D02*
X20391792Y6558753D01*
X20391792Y6558753D02*
X20439411Y6368277D01*
X20439411Y6368277D02*
X20487030Y6273039D01*
X20487030Y6273039D02*
X20582268Y6177800D01*
X20582268Y6177800D02*
X20725125Y6130181D01*
X20725125Y6130181D02*
X20963220Y6130181D01*
X19963220Y6130181D02*
X19963220Y7130181D01*
X19296554Y7130181D02*
X19106078Y7130181D01*
X19106078Y7130181D02*
X19010840Y7082562D01*
X19010840Y7082562D02*
X18915602Y6987324D01*
X18915602Y6987324D02*
X18867983Y6796848D01*
X18867983Y6796848D02*
X18867983Y6463515D01*
X18867983Y6463515D02*
X18915602Y6273039D01*
X18915602Y6273039D02*
X19010840Y6177800D01*
X19010840Y6177800D02*
X19106078Y6130181D01*
X19106078Y6130181D02*
X19296554Y6130181D01*
X19296554Y6130181D02*
X19391792Y6177800D01*
X19391792Y6177800D02*
X19487030Y6273039D01*
X19487030Y6273039D02*
X19534649Y6463515D01*
X19534649Y6463515D02*
X19534649Y6796848D01*
X19534649Y6796848D02*
X19487030Y6987324D01*
X19487030Y6987324D02*
X19391792Y7082562D01*
X19391792Y7082562D02*
X19296554Y7130181D01*
X18487030Y7034943D02*
X18439411Y7082562D01*
X18439411Y7082562D02*
X18344173Y7130181D01*
X18344173Y7130181D02*
X18106078Y7130181D01*
X18106078Y7130181D02*
X18010840Y7082562D01*
X18010840Y7082562D02*
X17963221Y7034943D01*
X17963221Y7034943D02*
X17915602Y6939705D01*
X17915602Y6939705D02*
X17915602Y6844467D01*
X17915602Y6844467D02*
X17963221Y6701610D01*
X17963221Y6701610D02*
X18534649Y6130181D01*
X18534649Y6130181D02*
X17915602Y6130181D01*
%TO.C,TP6*%
D11*
X24100000Y19600000D02*
X23700000Y20000000D01*
X24100000Y18000000D02*
X23700000Y17600000D01*
X25700000Y19600000D02*
X26100000Y20000000D01*
X25700000Y18000000D02*
X26100000Y17600000D01*
%TO.C,TP9*%
X26600000Y19600000D02*
X26200000Y20000000D01*
X26600000Y18000000D02*
X26200000Y17600000D01*
X28200000Y19600000D02*
X28600000Y20000000D01*
X28200000Y18000000D02*
X28600000Y17600000D01*
%TO.C,TP10*%
X21800000Y4600000D02*
X21400000Y5000000D01*
X21800000Y3000000D02*
X21400000Y2600000D01*
X23400000Y4600000D02*
X23800000Y5000000D01*
X23400000Y3000000D02*
X23800000Y2600000D01*
%TO.C,TP8*%
X10200000Y19400000D02*
X9800000Y19800000D01*
X10200000Y17800000D02*
X9800000Y17400000D01*
X11800000Y19400000D02*
X12200000Y19800000D01*
X11800000Y17800000D02*
X12200000Y17400000D01*
%TO.C,TP5*%
X12900000Y19400000D02*
X12500000Y19800000D01*
X12900000Y17800000D02*
X12500000Y17400000D01*
X14500000Y19400000D02*
X14900000Y19800000D01*
X14500000Y17800000D02*
X14900000Y17400000D01*
%TO.C,TP7*%
X21800000Y7300000D02*
X21400000Y7700000D01*
X21800000Y5700000D02*
X21400000Y5300000D01*
X23400000Y7300000D02*
X23800000Y7700000D01*
X23400000Y5700000D02*
X23800000Y5300000D01*
%TD*%
M02*
