%TF.GenerationSoftware,KiCad,Pcbnew,10.0.0*%
%TF.CreationDate,2026-03-24T14:40:19+01:00*%
%TF.ProjectId,6gend-rf-db-1,3667656e-642d-4726-962d-64622d312e6b,1a*%
%TF.SameCoordinates,PX964c900PY623a7c0*%
%TF.FileFunction,Soldermask,Top*%
%TF.FilePolarity,Negative*%
%FSLAX46Y46*%
G04 Gerber Fmt 4.6, Leading zero omitted, Abs format (unit mm)*
G04 Created by KiCad (PCBNEW 10.0.0) date 2026-03-24 14:40:19*
%MOMM*%
%LPD*%
G01*
G04 APERTURE LIST*
G04 Aperture macros list*
%AMRoundRect*
0 Rectangle with rounded corners*
0 $1 Rounding radius*
0 $2 $3 $4 $5 $6 $7 $8 $9 X,Y pos of 4 corners*
0 Add a 4 corners polygon primitive as box body*
4,1,4,$2,$3,$4,$5,$6,$7,$8,$9,$2,$3,0*
0 Add four circle primitives for the rounded corners*
1,1,$1+$1,$2,$3*
1,1,$1+$1,$4,$5*
1,1,$1+$1,$6,$7*
1,1,$1+$1,$8,$9*
0 Add four rect primitives between the rounded corners*
20,1,$1+$1,$2,$3,$4,$5,0*
20,1,$1+$1,$4,$5,$6,$7,0*
20,1,$1+$1,$6,$7,$8,$9,0*
20,1,$1+$1,$8,$9,$2,$3,0*%
%AMOutline5P*
0 Free polygon, 5 corners , with rotation*
0 The origin of the aperture is its center*
0 number of corners: always 5*
0 $1 to $10 corner X, Y*
0 $11 Rotation angle, in degrees counterclockwise*
0 create outline with 5 corners*
4,1,5,$1,$2,$3,$4,$5,$6,$7,$8,$9,$10,$1,$2,$11*%
%AMOutline6P*
0 Free polygon, 6 corners , with rotation*
0 The origin of the aperture is its center*
0 number of corners: always 6*
0 $1 to $12 corner X, Y*
0 $13 Rotation angle, in degrees counterclockwise*
0 create outline with 6 corners*
4,1,6,$1,$2,$3,$4,$5,$6,$7,$8,$9,$10,$11,$12,$1,$2,$13*%
%AMOutline7P*
0 Free polygon, 7 corners , with rotation*
0 The origin of the aperture is its center*
0 number of corners: always 7*
0 $1 to $14 corner X, Y*
0 $15 Rotation angle, in degrees counterclockwise*
0 create outline with 7 corners*
4,1,7,$1,$2,$3,$4,$5,$6,$7,$8,$9,$10,$11,$12,$13,$14,$1,$2,$15*%
%AMOutline8P*
0 Free polygon, 8 corners , with rotation*
0 The origin of the aperture is its center*
0 number of corners: always 8*
0 $1 to $16 corner X, Y*
0 $17 Rotation angle, in degrees counterclockwise*
0 create outline with 8 corners*
4,1,8,$1,$2,$3,$4,$5,$6,$7,$8,$9,$10,$11,$12,$13,$14,$15,$16,$1,$2,$17*%
G04 Aperture macros list end*
%ADD10RoundRect,0.200000X0.200000X0.275000X-0.200000X0.275000X-0.200000X-0.275000X0.200000X-0.275000X0*%
%ADD11RoundRect,0.225000X0.225000X0.250000X-0.225000X0.250000X-0.225000X-0.250000X0.225000X-0.250000X0*%
%ADD12R,0.900000X0.800000*%
%ADD13RoundRect,0.200000X-0.275000X0.200000X-0.275000X-0.200000X0.275000X-0.200000X0.275000X0.200000X0*%
%ADD14RoundRect,0.218750X-0.256250X0.218750X-0.256250X-0.218750X0.256250X-0.218750X0.256250X0.218750X0*%
%ADD15RoundRect,0.062500X-0.062500X0.350000X-0.062500X-0.350000X0.062500X-0.350000X0.062500X0.350000X0*%
%ADD16RoundRect,0.062500X-0.350000X0.062500X-0.350000X-0.062500X0.350000X-0.062500X0.350000X0.062500X0*%
%ADD17R,2.600000X2.600000*%
%ADD18Outline8P,-0.500000X0.250000X-0.250000X0.500000X0.250000X0.500000X0.500000X0.250000X0.500000X-0.250000X0.250000X-0.500000X-0.250000X-0.500000X-0.500000X-0.250000X0.000000*%
%ADD19Outline8P,-0.950000X0.475000X-0.475000X0.950000X0.475000X0.950000X0.950000X0.475000X0.950000X-0.475000X0.475000X-0.950000X-0.475000X-0.950000X-0.950000X-0.475000X0.000000*%
%ADD20RoundRect,0.135000X0.135000X0.185000X-0.135000X0.185000X-0.135000X-0.185000X0.135000X-0.185000X0*%
%ADD21RoundRect,0.140000X-0.170000X0.140000X-0.170000X-0.140000X0.170000X-0.140000X0.170000X0.140000X0*%
%ADD22R,1.700000X1.700000*%
%ADD23O,1.700000X1.700000*%
%ADD24C,2.050000*%
%ADD25C,2.250000*%
%ADD26RoundRect,0.135000X-0.135000X-0.185000X0.135000X-0.185000X0.135000X0.185000X-0.135000X0.185000X0*%
%ADD27RoundRect,0.225000X0.250000X-0.225000X0.250000X0.225000X-0.250000X0.225000X-0.250000X-0.225000X0*%
%ADD28RoundRect,0.147500X0.147500X0.172500X-0.147500X0.172500X-0.147500X-0.172500X0.147500X-0.172500X0*%
%ADD29RoundRect,0.200000X0.400000X-0.200000X0.400000X0.200000X-0.400000X0.200000X-0.400000X-0.200000X0*%
%ADD30RoundRect,0.218750X0.218750X0.256250X-0.218750X0.256250X-0.218750X-0.256250X0.218750X-0.256250X0*%
%ADD31RoundRect,0.100000X-0.225000X-0.100000X0.225000X-0.100000X0.225000X0.100000X-0.225000X0.100000X0*%
%ADD32RoundRect,0.225000X-0.225000X-0.250000X0.225000X-0.250000X0.225000X0.250000X-0.225000X0.250000X0*%
%ADD33RoundRect,0.140000X0.140000X0.170000X-0.140000X0.170000X-0.140000X-0.170000X0.140000X-0.170000X0*%
%ADD34RoundRect,0.075000X-0.225000X-0.075000X0.225000X-0.075000X0.225000X0.075000X-0.225000X0.075000X0*%
%ADD35RoundRect,0.075000X-0.075000X-0.237500X0.075000X-0.237500X0.075000X0.237500X-0.075000X0.237500X0*%
%ADD36RoundRect,0.135000X0.185000X-0.135000X0.185000X0.135000X-0.185000X0.135000X-0.185000X-0.135000X0*%
%ADD37RoundRect,0.100000X0.100000X-0.155000X0.100000X0.155000X-0.100000X0.155000X-0.100000X-0.155000X0*%
%ADD38C,1.700000*%
G04 APERTURE END LIST*
D10*
%TO.C,R4*%
X11625000Y16500000D03*
X9975000Y16500000D03*
%TD*%
%TO.C,R2*%
X11625000Y11475000D03*
X9975000Y11475000D03*
%TD*%
D11*
%TO.C,C7*%
X26775000Y1700000D03*
X25225000Y1700000D03*
%TD*%
D12*
%TO.C,Y1*%
X19400000Y15850000D03*
X20800000Y15850000D03*
X20800000Y16950000D03*
X19400000Y16950000D03*
%TD*%
D13*
%TO.C,R5*%
X20500000Y5325000D03*
X20500000Y3675000D03*
%TD*%
D11*
%TO.C,C8*%
X16775000Y9400000D03*
X15225000Y9400000D03*
%TD*%
D14*
%TO.C,L4*%
X24500000Y15187500D03*
X24500000Y13612500D03*
%TD*%
D10*
%TO.C,R13*%
X20525000Y1700000D03*
X18875000Y1700000D03*
%TD*%
D15*
%TO.C,U1*%
X21850000Y13987500D03*
X21350000Y13987500D03*
X20850000Y13987500D03*
X20350000Y13987500D03*
X19850000Y13987500D03*
X19350000Y13987500D03*
D16*
X18662500Y13300000D03*
X18662500Y12800000D03*
X18662500Y12300000D03*
X18662500Y11800000D03*
X18662500Y11300000D03*
X18662500Y10800000D03*
D15*
X19350000Y10112500D03*
X19850000Y10112500D03*
X20350000Y10112500D03*
X20850000Y10112500D03*
X21350000Y10112500D03*
X21850000Y10112500D03*
D16*
X22537500Y10800000D03*
X22537500Y11300000D03*
X22537500Y11800000D03*
X22537500Y12300000D03*
X22537500Y12800000D03*
X22537500Y13300000D03*
D17*
X20600000Y12050000D03*
%TD*%
D10*
%TO.C,R7*%
X26825000Y3800000D03*
X25175000Y3800000D03*
%TD*%
D18*
%TO.C,TP4*%
X33200000Y10500000D03*
%TD*%
D19*
%TO.C,TP6*%
X24900000Y18800000D03*
%TD*%
D10*
%TO.C,R8*%
X11625000Y8900000D03*
X9975000Y8900000D03*
%TD*%
D11*
%TO.C,C11*%
X17075000Y16600000D03*
X15525000Y16600000D03*
%TD*%
D20*
%TO.C,R12*%
X34310000Y14300000D03*
X33290000Y14300000D03*
%TD*%
D21*
%TO.C,C3*%
X42400000Y17780000D03*
X42400000Y16820000D03*
%TD*%
D22*
%TO.C,J2*%
X13970000Y3800000D03*
D23*
X11430000Y3800000D03*
%TD*%
D24*
%TO.C,J1*%
X39300000Y8300000D03*
D25*
X36760000Y10840000D03*
X36760000Y5760000D03*
X41840000Y10840000D03*
X41840000Y5760000D03*
%TD*%
D18*
%TO.C,TP3*%
X33200000Y12300000D03*
%TD*%
D19*
%TO.C,TP9*%
X27400000Y18800000D03*
%TD*%
D26*
%TO.C,JP1*%
X38280000Y14300000D03*
X39300000Y14300000D03*
X40320000Y14300000D03*
%TD*%
D19*
%TO.C,TP10*%
X22600000Y3800000D03*
%TD*%
D10*
%TO.C,R6*%
X26850000Y7900000D03*
X25200000Y7900000D03*
%TD*%
D27*
%TO.C,C10*%
X26300000Y15525000D03*
X26300000Y17075000D03*
%TD*%
D11*
%TO.C,C12*%
X10775000Y6700000D03*
X9225000Y6700000D03*
%TD*%
D20*
%TO.C,R10*%
X36610000Y14300000D03*
X35590000Y14300000D03*
%TD*%
D28*
%TO.C,L3*%
X40785000Y17800000D03*
X39815000Y17800000D03*
%TD*%
D11*
%TO.C,C6*%
X26775000Y5800000D03*
X25225000Y5800000D03*
%TD*%
D29*
%TO.C,L1*%
X15900000Y13800000D03*
X15900000Y14800000D03*
%TD*%
D30*
%TO.C,L2*%
X20187500Y18900000D03*
X18612500Y18900000D03*
%TD*%
D31*
%TO.C,U2*%
X29250000Y12950000D03*
X29250000Y12300000D03*
X29250000Y11650000D03*
X31150000Y11650000D03*
X31150000Y12300000D03*
X31150000Y12950000D03*
%TD*%
D10*
%TO.C,R3*%
X11625000Y14000000D03*
X9975000Y14000000D03*
%TD*%
D19*
%TO.C,TP8*%
X11000000Y18600000D03*
%TD*%
D32*
%TO.C,C1*%
X22925000Y16900000D03*
X24475000Y16900000D03*
%TD*%
D33*
%TO.C,C5*%
X36580000Y17800000D03*
X35620000Y17800000D03*
%TD*%
D34*
%TO.C,FL1*%
X26100000Y13150000D03*
X26100000Y12650000D03*
X26100000Y12150000D03*
X26100000Y11650000D03*
D35*
X26800000Y11337500D03*
D34*
X27500000Y11650000D03*
X27500000Y12150000D03*
X27500000Y12650000D03*
X27500000Y13150000D03*
D35*
X26800000Y13462500D03*
%TD*%
D36*
%TO.C,R1*%
X44200000Y17390000D03*
X44200000Y18410000D03*
%TD*%
%TO.C,R11*%
X35600000Y15590000D03*
X35600000Y16610000D03*
%TD*%
D21*
%TO.C,C4*%
X38100000Y17780000D03*
X38100000Y16820000D03*
%TD*%
D37*
%TO.C,Q1*%
X18300000Y5645000D03*
X17300000Y5645000D03*
X17800000Y4355000D03*
%TD*%
D11*
%TO.C,C2*%
X16775000Y11400000D03*
X15225000Y11400000D03*
%TD*%
D22*
%TO.C,J4*%
X6350000Y16510000D03*
D23*
X6350000Y13970000D03*
X6350000Y11430000D03*
X6350000Y8890000D03*
X6350000Y6350000D03*
D38*
X6350000Y3810000D03*
X3810000Y16510000D03*
D23*
X3810000Y13970000D03*
X3810000Y11430000D03*
X3810000Y8890000D03*
X3810000Y6350000D03*
X3810000Y3810000D03*
%TD*%
D19*
%TO.C,TP5*%
X13700000Y18600000D03*
%TD*%
D27*
%TO.C,C9*%
X28100000Y15525000D03*
X28100000Y17075000D03*
%TD*%
D19*
%TO.C,TP7*%
X22600000Y6500000D03*
%TD*%
M02*
