%TF.GenerationSoftware,KiCad,Pcbnew,10.0.0*%
%TF.CreationDate,2026-03-24T14:40:18+01:00*%
%TF.ProjectId,6gend-rf-db-1,3667656e-642d-4726-962d-64622d312e6b,1a*%
%TF.SameCoordinates,PX964c900PY623a7c0*%
%TF.FileFunction,Copper,L2,Inr*%
%TF.FilePolarity,Positive*%
%FSLAX46Y46*%
G04 Gerber Fmt 4.6, Leading zero omitted, Abs format (unit mm)*
G04 Created by KiCad (PCBNEW 10.0.0) date 2026-03-24 14:40:18*
%MOMM*%
%LPD*%
G01*
G04 APERTURE LIST*
G04 Aperture macros list*
%AMOutline5P*
0 Free polygon, 5 corners , with rotation*
0 The origin of the aperture is its center*
0 number of corners: always 5*
0 $1 to $10 corner X, Y*
0 $11 Rotation angle, in degrees counterclockwise*
0 create outline with 5 corners*
4,1,5,$1,$2,$3,$4,$5,$6,$7,$8,$9,$10,$1,$2,$11*%
%AMOutline6P*
0 Free polygon, 6 corners , with rotation*
0 The origin of the aperture is its center*
0 number of corners: always 6*
0 $1 to $12 corner X, Y*
0 $13 Rotation angle, in degrees counterclockwise*
0 create outline with 6 corners*
4,1,6,$1,$2,$3,$4,$5,$6,$7,$8,$9,$10,$11,$12,$1,$2,$13*%
%AMOutline7P*
0 Free polygon, 7 corners , with rotation*
0 The origin of the aperture is its center*
0 number of corners: always 7*
0 $1 to $14 corner X, Y*
0 $15 Rotation angle, in degrees counterclockwise*
0 create outline with 7 corners*
4,1,7,$1,$2,$3,$4,$5,$6,$7,$8,$9,$10,$11,$12,$13,$14,$1,$2,$15*%
%AMOutline8P*
0 Free polygon, 8 corners , with rotation*
0 The origin of the aperture is its center*
0 number of corners: always 8*
0 $1 to $16 corner X, Y*
0 $17 Rotation angle, in degrees counterclockwise*
0 create outline with 8 corners*
4,1,8,$1,$2,$3,$4,$5,$6,$7,$8,$9,$10,$11,$12,$13,$14,$15,$16,$1,$2,$17*%
G04 Aperture macros list end*
%TA.AperFunction,ComponentPad*%
%ADD10Outline8P,-0.950000X0.475000X-0.475000X0.950000X0.475000X0.950000X0.950000X0.475000X0.950000X-0.475000X0.475000X-0.950000X-0.475000X-0.950000X-0.950000X-0.475000X0.000000*%
%TD*%
%TA.AperFunction,ComponentPad*%
%ADD11R,1.700000X1.700000*%
%TD*%
%TA.AperFunction,ComponentPad*%
%ADD12O,1.700000X1.700000*%
%TD*%
%TA.AperFunction,ComponentPad*%
%ADD13C,2.050000*%
%TD*%
%TA.AperFunction,ComponentPad*%
%ADD14C,2.250000*%
%TD*%
%TA.AperFunction,ComponentPad*%
%ADD15C,1.000000*%
%TD*%
%TA.AperFunction,ComponentPad*%
%ADD16C,1.700000*%
%TD*%
%TA.AperFunction,ViaPad*%
%ADD17C,0.600000*%
%TD*%
%TA.AperFunction,ViaPad*%
%ADD18C,0.550000*%
%TD*%
G04 APERTURE END LIST*
D10*
%TO.N,/VR_PA*%
%TO.C,TP6*%
X24900000Y18800000D03*
%TD*%
D11*
%TO.N,VCC*%
%TO.C,J2*%
X13970000Y3800000D03*
D12*
%TO.N,/VCC_IN*%
X11430000Y3800000D03*
%TD*%
D13*
%TO.N,/ANT_CONN*%
%TO.C,J1*%
X39300000Y8300000D03*
D14*
%TO.N,GND*%
X36760000Y10840000D03*
X36760000Y5760000D03*
X41840000Y10840000D03*
X41840000Y5760000D03*
%TD*%
D10*
%TO.N,GND*%
%TO.C,TP9*%
X27400000Y18800000D03*
%TD*%
%TO.N,GND*%
%TO.C,TP10*%
X22600000Y3800000D03*
%TD*%
D15*
%TO.N,*%
%TO.C,AE1*%
X57200000Y19200000D03*
X57200000Y17200000D03*
X52200000Y17200000D03*
X57200000Y15200000D03*
X52200000Y15200000D03*
X57200000Y13200000D03*
X52200000Y13200000D03*
X57200000Y11200000D03*
X52200000Y11200000D03*
X57200000Y9200000D03*
X52200000Y9200000D03*
X57200000Y7200000D03*
X52200000Y7200000D03*
X57200000Y5200000D03*
X52200000Y5200000D03*
X57200000Y3200000D03*
X52200000Y3200000D03*
X57200000Y1200000D03*
X52200000Y1200000D03*
%TD*%
D10*
%TO.N,GND*%
%TO.C,TP8*%
X11000000Y18600000D03*
%TD*%
D11*
%TO.N,/LoadSwitch*%
%TO.C,J4*%
X6350000Y16510000D03*
D12*
%TO.N,/BUSY*%
X6350000Y13970000D03*
%TO.N,/~{RST}*%
X6350000Y11430000D03*
%TO.N,/ANT_SW*%
X6350000Y8890000D03*
%TO.N,GND*%
X6350000Y6350000D03*
D16*
%TO.N,/VCC_IN*%
X6350000Y3810000D03*
%TO.N,/CS*%
X3810000Y16510000D03*
D12*
%TO.N,/MOSI*%
X3810000Y13970000D03*
%TO.N,/MISO*%
X3810000Y11430000D03*
%TO.N,/SCK*%
X3810000Y8890000D03*
%TO.N,GND*%
X3810000Y6350000D03*
%TO.N,VBAT*%
X3810000Y3810000D03*
%TD*%
D10*
%TO.N,/VDD_IN*%
%TO.C,TP5*%
X13700000Y18600000D03*
%TD*%
%TO.N,/DIO2*%
%TO.C,TP7*%
X22600000Y6500000D03*
%TD*%
D17*
%TO.N,/CS_SX*%
X14100000Y13300000D03*
X23700000Y9300000D03*
%TO.N,/MISO_SX*%
X12600000Y9500000D03*
X12600000Y10800000D03*
%TO.N,/VC2*%
X31100000Y10900000D03*
X28000000Y3800000D03*
%TO.N,GND*%
X40700000Y8900000D03*
X43800000Y19100000D03*
X35900000Y13500000D03*
X24200000Y1700000D03*
X37100000Y16400000D03*
X45100000Y12800000D03*
X45100000Y16300000D03*
X40400000Y17000000D03*
X41000000Y13600000D03*
X30200000Y13200000D03*
X39100000Y16800000D03*
X38600000Y12500000D03*
X28800000Y11000000D03*
X26200000Y14200000D03*
X42500000Y18600000D03*
X44500000Y14000000D03*
X27500000Y10700000D03*
X29000000Y17100000D03*
X29500000Y11000000D03*
X45100000Y17700000D03*
X41500000Y16500000D03*
X38600000Y15100000D03*
X40800000Y8200000D03*
X35300000Y18600000D03*
X41700000Y18500000D03*
X45100000Y18400000D03*
X37100000Y17100000D03*
X40000000Y10100000D03*
X34900000Y17400000D03*
X40100000Y7000000D03*
X34800000Y16000000D03*
X28100000Y11000000D03*
X32000000Y11600000D03*
X29600000Y13700000D03*
X24800000Y11000000D03*
X43500000Y15000000D03*
X21600000Y13000000D03*
X37100000Y15100000D03*
X27900000Y13900000D03*
X43100000Y13600000D03*
X42100000Y15000000D03*
X9200000Y5800000D03*
X24100000Y11000000D03*
X43500000Y15600000D03*
X38100000Y9200000D03*
X34100000Y12800000D03*
X33900000Y11500000D03*
X32500000Y14300000D03*
X40300000Y18600000D03*
X32600000Y11500000D03*
X36700000Y18600000D03*
X37300000Y13600000D03*
X38700000Y6900000D03*
X21600000Y11100000D03*
X41000000Y18600000D03*
X40700000Y15100000D03*
X25500000Y13900000D03*
X45100000Y17000000D03*
X45100000Y15600000D03*
X40000000Y15100000D03*
X19600000Y13000000D03*
X42800000Y15000000D03*
X38900000Y16200000D03*
X36000000Y18600000D03*
X28500000Y13600000D03*
X32500000Y13600000D03*
X15200000Y10300000D03*
X32300000Y13000000D03*
X20600000Y12050000D03*
X20600000Y11100000D03*
X43400000Y16800000D03*
X32700000Y15000000D03*
X43800000Y13600000D03*
X36300000Y15100000D03*
X38600000Y10400000D03*
X45100000Y14200000D03*
X31700000Y10300000D03*
X34500000Y13500000D03*
X19600000Y12100000D03*
X40000000Y11500000D03*
X40600000Y7500000D03*
X40000000Y12200000D03*
X33400000Y15100000D03*
X40000000Y10800000D03*
X38200000Y7300000D03*
X33900000Y13500000D03*
X38300000Y15900000D03*
X36600000Y13500000D03*
X34800000Y16700000D03*
X38900000Y18400000D03*
X37600000Y15900000D03*
X19272275Y14849908D03*
X15200000Y12300000D03*
X26100000Y10600000D03*
X26800000Y10400000D03*
X38600000Y11800000D03*
X42400000Y13600000D03*
X41400000Y15000000D03*
X21700000Y15800000D03*
X44400000Y19500000D03*
X19600000Y11100000D03*
X18500000Y16900000D03*
X30300000Y12500000D03*
X37500000Y18500000D03*
X34800000Y18100000D03*
X36400000Y15800000D03*
X27400000Y14200000D03*
X40000000Y12900000D03*
X26200000Y17800000D03*
X38000000Y13500000D03*
X39300000Y15100000D03*
X37900000Y15100000D03*
X39600000Y18600000D03*
X34200000Y12100000D03*
X37800000Y8600000D03*
X45100000Y14900000D03*
X21300000Y14900000D03*
X17700000Y13100000D03*
X42600000Y15900000D03*
X25500000Y11000000D03*
X36400000Y16500000D03*
X24200000Y5800000D03*
X37800000Y7900000D03*
X18000000Y1700000D03*
X41900000Y15900000D03*
X39700000Y17000000D03*
X38600000Y9700000D03*
X38200000Y18600000D03*
X15500000Y17500000D03*
X34100000Y15100000D03*
X45100000Y13500000D03*
X25400000Y16900000D03*
X35200000Y13500000D03*
D18*
X24481689Y12743606D03*
D17*
X41700000Y13600000D03*
X39400000Y6800000D03*
X43300000Y18500000D03*
X21600000Y12100000D03*
X40300000Y13500000D03*
X31900000Y14100000D03*
X38600000Y11100000D03*
X40200000Y9500000D03*
X38600000Y13200000D03*
X43200000Y16200000D03*
X34800000Y15300000D03*
X41100000Y17000000D03*
X31900000Y10900000D03*
X20600000Y13000000D03*
%TO.N,VCC*%
X17522500Y4077500D03*
X17500000Y11800000D03*
X17500000Y9500000D03*
%TO.N,/VR_PA*%
X25400000Y15400000D03*
%TO.N,/VDD_IN*%
X21200000Y18600000D03*
%TO.N,/DIO2*%
X19094087Y9286577D03*
X22600000Y9300000D03*
%TO.N,/MOSI_SX*%
X13200000Y13300000D03*
X12700000Y8700000D03*
%TO.N,/ANT_SW*%
X10500000Y7800000D03*
X21700000Y2300000D03*
%TO.N,/VC1*%
X31200000Y13600000D03*
X27900000Y7900000D03*
%TD*%
%TA.AperFunction,Conductor*%
%TO.N,GND*%
G36*
X10243911Y19797826D02*
G01*
X10265585Y19745500D01*
X10243911Y19693174D01*
X9802641Y19251903D01*
X9794294Y19241614D01*
X9751376Y19137998D01*
X9750000Y19124808D01*
X9750000Y18750000D01*
X10574318Y18750000D01*
X10550000Y18659244D01*
X10550000Y18540756D01*
X10574318Y18450000D01*
X9750001Y18450000D01*
X9750001Y18075180D01*
X9751374Y18062010D01*
X9751376Y18062003D01*
X9794296Y17958384D01*
X9794297Y17958383D01*
X9802641Y17948095D01*
X10348097Y17402642D01*
X10358386Y17394295D01*
X10462002Y17351377D01*
X10475192Y17350001D01*
X10850000Y17350001D01*
X10850000Y18174319D01*
X10940756Y18150000D01*
X11059244Y18150000D01*
X11150000Y18174319D01*
X11150000Y17350001D01*
X11524816Y17350001D01*
X11524820Y17350002D01*
X11537990Y17351375D01*
X11537997Y17351377D01*
X11641616Y17394297D01*
X11641617Y17394298D01*
X11651905Y17402642D01*
X12197358Y17948098D01*
X12205705Y17958387D01*
X12248623Y18062003D01*
X12250000Y18075193D01*
X12250000Y18450000D01*
X11425682Y18450000D01*
X11450000Y18540756D01*
X11450000Y18659244D01*
X11425682Y18750000D01*
X12249999Y18750000D01*
X12249999Y19124817D01*
X12249998Y19124821D01*
X12248625Y19137991D01*
X12248623Y19137998D01*
X12205703Y19241617D01*
X12205702Y19241618D01*
X12197358Y19251906D01*
X11756088Y19693174D01*
X11734414Y19745500D01*
X11756088Y19797826D01*
X11808414Y19819500D01*
X13113494Y19819500D01*
X13165820Y19797826D01*
X13187494Y19745500D01*
X13165820Y19693174D01*
X13154607Y19683972D01*
X13129069Y19666908D01*
X13129065Y19666905D01*
X12633099Y19170940D01*
X12633098Y19170938D01*
X12608233Y19133723D01*
X12608232Y19133721D01*
X12599499Y19089820D01*
X12599499Y18110174D01*
X12608231Y18066276D01*
X12633092Y18029069D01*
X12633094Y18029067D01*
X12633097Y18029063D01*
X13129060Y17533100D01*
X13166278Y17508233D01*
X13210180Y17499500D01*
X14189827Y17499499D01*
X14233723Y17508231D01*
X14270937Y17533097D01*
X14766900Y18029060D01*
X14791767Y18066278D01*
X14800500Y18110180D01*
X14800500Y18380667D01*
X14800501Y18659312D01*
X20749500Y18659312D01*
X20749500Y18540689D01*
X20780199Y18426118D01*
X20780201Y18426113D01*
X20839508Y18323391D01*
X20839509Y18323390D01*
X20839511Y18323387D01*
X20923387Y18239511D01*
X20923389Y18239510D01*
X20923390Y18239509D01*
X20941488Y18229060D01*
X21026114Y18180201D01*
X21026115Y18180201D01*
X21026117Y18180200D01*
X21083402Y18164851D01*
X21140688Y18149501D01*
X21140689Y18149500D01*
X21140691Y18149500D01*
X21259311Y18149500D01*
X21259311Y18149501D01*
X21373886Y18180201D01*
X21476613Y18239511D01*
X21560489Y18323387D01*
X21619799Y18426114D01*
X21650499Y18540689D01*
X21650500Y18540689D01*
X21650500Y18659311D01*
X21650499Y18659312D01*
X21619800Y18773883D01*
X21619798Y18773888D01*
X21560491Y18876610D01*
X21560490Y18876611D01*
X21560489Y18876613D01*
X21476613Y18960489D01*
X21476610Y18960491D01*
X21476609Y18960492D01*
X21373887Y19019799D01*
X21373882Y19019801D01*
X21259311Y19050500D01*
X21259309Y19050500D01*
X21140691Y19050500D01*
X21140689Y19050500D01*
X21026117Y19019801D01*
X21026112Y19019799D01*
X20923390Y18960492D01*
X20839508Y18876610D01*
X20780201Y18773888D01*
X20780199Y18773883D01*
X20749500Y18659312D01*
X14800501Y18659312D01*
X14800501Y18664159D01*
X14800501Y19089827D01*
X14793542Y19124808D01*
X14791769Y19133723D01*
X14791768Y19133725D01*
X14766907Y19170932D01*
X14766904Y19170935D01*
X14766903Y19170937D01*
X14270940Y19666900D01*
X14270939Y19666901D01*
X14270937Y19666903D01*
X14245392Y19683970D01*
X14213924Y19731061D01*
X14224972Y19786610D01*
X14272063Y19818078D01*
X14286502Y19819500D01*
X24103008Y19819500D01*
X24155334Y19797826D01*
X24177008Y19745500D01*
X24155334Y19693174D01*
X23833099Y19370940D01*
X23833098Y19370938D01*
X23808233Y19333723D01*
X23808232Y19333721D01*
X23799499Y19289820D01*
X23799499Y18310174D01*
X23808231Y18266276D01*
X23833092Y18229069D01*
X23833094Y18229067D01*
X23833097Y18229063D01*
X24329060Y17733100D01*
X24366278Y17708233D01*
X24410180Y17699500D01*
X25389827Y17699499D01*
X25433723Y17708231D01*
X25470937Y17733097D01*
X25966900Y18229060D01*
X25991767Y18266278D01*
X26000500Y18310180D01*
X26000501Y19289827D01*
X25991769Y19333723D01*
X25991768Y19333725D01*
X25966907Y19370932D01*
X25966904Y19370935D01*
X25966903Y19370937D01*
X25644666Y19693174D01*
X25622992Y19745500D01*
X25644666Y19797826D01*
X25696992Y19819500D01*
X26391586Y19819500D01*
X26443912Y19797826D01*
X26465586Y19745500D01*
X26443912Y19693174D01*
X26202641Y19451903D01*
X26194294Y19441614D01*
X26151376Y19337998D01*
X26150000Y19324808D01*
X26150000Y18950000D01*
X26974318Y18950000D01*
X26950000Y18859244D01*
X26950000Y18740756D01*
X26974318Y18650000D01*
X26150001Y18650000D01*
X26150001Y18275180D01*
X26151374Y18262010D01*
X26151376Y18262003D01*
X26194296Y18158384D01*
X26194297Y18158383D01*
X26202641Y18148095D01*
X26748097Y17602642D01*
X26758386Y17594295D01*
X26862002Y17551377D01*
X26875192Y17550001D01*
X27250000Y17550001D01*
X27250000Y18374319D01*
X27340756Y18350000D01*
X27459244Y18350000D01*
X27550000Y18374319D01*
X27550000Y17550001D01*
X27924816Y17550001D01*
X27924820Y17550002D01*
X27937990Y17551375D01*
X27937997Y17551377D01*
X28041616Y17594297D01*
X28041617Y17594298D01*
X28051905Y17602642D01*
X28597358Y18148098D01*
X28605705Y18158387D01*
X28648623Y18262003D01*
X28650000Y18275193D01*
X28650000Y18650000D01*
X27825682Y18650000D01*
X27850000Y18740756D01*
X27850000Y18859244D01*
X27825682Y18950000D01*
X28649999Y18950000D01*
X28649999Y19324817D01*
X28649998Y19324821D01*
X28648625Y19337991D01*
X28648623Y19337998D01*
X28605703Y19441617D01*
X28605702Y19441618D01*
X28597358Y19451906D01*
X28356089Y19693174D01*
X28334415Y19745500D01*
X28356089Y19797826D01*
X28408415Y19819500D01*
X45326000Y19819500D01*
X45378326Y19797826D01*
X45400000Y19745500D01*
X45400000Y574500D01*
X45378326Y522174D01*
X45326000Y500500D01*
X574500Y500500D01*
X522174Y522174D01*
X500500Y574500D01*
X500500Y2359312D01*
X21249500Y2359312D01*
X21249500Y2240689D01*
X21280199Y2126118D01*
X21280201Y2126113D01*
X21339508Y2023391D01*
X21339509Y2023390D01*
X21339511Y2023387D01*
X21423387Y1939511D01*
X21526114Y1880201D01*
X21526115Y1880201D01*
X21526117Y1880200D01*
X21583402Y1864851D01*
X21640688Y1849501D01*
X21640689Y1849500D01*
X21640691Y1849500D01*
X21759311Y1849500D01*
X21759311Y1849501D01*
X21873886Y1880201D01*
X21976613Y1939511D01*
X22060489Y2023387D01*
X22119799Y2126114D01*
X22150499Y2240689D01*
X22150500Y2240689D01*
X22150500Y2359311D01*
X22150499Y2359312D01*
X22124365Y2456848D01*
X22131757Y2513001D01*
X22176690Y2547479D01*
X22195843Y2550001D01*
X22450000Y2550001D01*
X22450000Y3374319D01*
X22540756Y3350000D01*
X22659244Y3350000D01*
X22750000Y3374319D01*
X22750000Y2550001D01*
X23124816Y2550001D01*
X23124820Y2550002D01*
X23137990Y2551375D01*
X23137997Y2551377D01*
X23241616Y2594297D01*
X23241617Y2594298D01*
X23251905Y2602642D01*
X23797358Y3148098D01*
X23805705Y3158387D01*
X23848623Y3262003D01*
X23850000Y3275193D01*
X23850000Y3650000D01*
X23025682Y3650000D01*
X23050000Y3740756D01*
X23050000Y3859244D01*
X23049982Y3859312D01*
X27549500Y3859312D01*
X27549500Y3740689D01*
X27580199Y3626118D01*
X27580201Y3626113D01*
X27639508Y3523391D01*
X27639509Y3523390D01*
X27639511Y3523387D01*
X27723387Y3439511D01*
X27826114Y3380201D01*
X27826115Y3380201D01*
X27826117Y3380200D01*
X27883402Y3364851D01*
X27940688Y3349501D01*
X27940689Y3349500D01*
X27940691Y3349500D01*
X28059311Y3349500D01*
X28059311Y3349501D01*
X28173886Y3380201D01*
X28276613Y3439511D01*
X28360489Y3523387D01*
X28419799Y3626114D01*
X28450499Y3740689D01*
X28450500Y3740689D01*
X28450500Y3859311D01*
X28450499Y3859312D01*
X28437308Y3908540D01*
X28426199Y3950000D01*
X28419800Y3973883D01*
X28419798Y3973888D01*
X28360491Y4076610D01*
X28360490Y4076611D01*
X28360489Y4076613D01*
X28276613Y4160489D01*
X28276610Y4160491D01*
X28276609Y4160492D01*
X28173887Y4219799D01*
X28173882Y4219801D01*
X28059311Y4250500D01*
X28059309Y4250500D01*
X27940691Y4250500D01*
X27940689Y4250500D01*
X27826117Y4219801D01*
X27826112Y4219799D01*
X27723390Y4160492D01*
X27639508Y4076610D01*
X27580201Y3973888D01*
X27580199Y3973883D01*
X27549500Y3859312D01*
X23049982Y3859312D01*
X23025682Y3950000D01*
X23849999Y3950000D01*
X23849999Y4324817D01*
X23849998Y4324821D01*
X23848625Y4337991D01*
X23848623Y4337998D01*
X23805703Y4441617D01*
X23805702Y4441618D01*
X23797358Y4451906D01*
X23622840Y4626423D01*
X23251902Y4997359D01*
X23241613Y5005706D01*
X23137997Y5048624D01*
X23124807Y5050000D01*
X22750000Y5050000D01*
X22750000Y4225682D01*
X22659244Y4250000D01*
X22540756Y4250000D01*
X22450000Y4225682D01*
X22450000Y5050000D01*
X22075183Y5050000D01*
X22075179Y5049999D01*
X22062009Y5048626D01*
X22062002Y5048624D01*
X21958383Y5005704D01*
X21958382Y5005703D01*
X21948094Y4997359D01*
X21402641Y4451903D01*
X21394294Y4441614D01*
X21351376Y4337998D01*
X21350000Y4324808D01*
X21350000Y3950000D01*
X22174318Y3950000D01*
X22150000Y3859244D01*
X22150000Y3740756D01*
X22174318Y3650000D01*
X21350001Y3650000D01*
X21350001Y3275180D01*
X21351374Y3262010D01*
X21351376Y3262003D01*
X21394296Y3158384D01*
X21394297Y3158383D01*
X21402641Y3148095D01*
X21675889Y2874848D01*
X21697563Y2822522D01*
X21675889Y2770196D01*
X21642716Y2751044D01*
X21526117Y2719801D01*
X21526112Y2719799D01*
X21423390Y2660492D01*
X21339508Y2576610D01*
X21280201Y2473888D01*
X21280199Y2473883D01*
X21249500Y2359312D01*
X500500Y2359312D01*
X500500Y3908541D01*
X2809500Y3908541D01*
X2809500Y3711459D01*
X2821725Y3650000D01*
X2847947Y3518171D01*
X2847950Y3518161D01*
X2923367Y3336087D01*
X3032860Y3172219D01*
X3172218Y3032861D01*
X3336086Y2923368D01*
X3453224Y2874848D01*
X3518165Y2847949D01*
X3711459Y2809500D01*
X3711461Y2809500D01*
X3908539Y2809500D01*
X3908541Y2809500D01*
X4101835Y2847949D01*
X4283914Y2923368D01*
X4447782Y3032861D01*
X4587139Y3172218D01*
X4696632Y3336086D01*
X4772051Y3518165D01*
X4810500Y3711459D01*
X4810500Y3908541D01*
X5349500Y3908541D01*
X5349500Y3711459D01*
X5361725Y3650000D01*
X5387947Y3518171D01*
X5387950Y3518161D01*
X5463367Y3336087D01*
X5572860Y3172219D01*
X5712218Y3032861D01*
X5876086Y2923368D01*
X5993224Y2874848D01*
X6058165Y2847949D01*
X6251459Y2809500D01*
X6251461Y2809500D01*
X6448539Y2809500D01*
X6448541Y2809500D01*
X6641835Y2847949D01*
X6823914Y2923368D01*
X6987782Y3032861D01*
X7127139Y3172218D01*
X7236632Y3336086D01*
X7312051Y3518165D01*
X7350500Y3711459D01*
X7350500Y3898540D01*
X10429500Y3898540D01*
X10429500Y3701461D01*
X10467947Y3508171D01*
X10467950Y3508161D01*
X10543367Y3326087D01*
X10646179Y3172219D01*
X10652861Y3162218D01*
X10792218Y3022861D01*
X10956086Y2913368D01*
X11138165Y2837949D01*
X11331459Y2799500D01*
X11331461Y2799500D01*
X11528539Y2799500D01*
X11528541Y2799500D01*
X11721835Y2837949D01*
X11903914Y2913368D01*
X12067782Y3022861D01*
X12207139Y3162218D01*
X12316632Y3326086D01*
X12392051Y3508165D01*
X12430500Y3701459D01*
X12430500Y3898541D01*
X12392051Y4091835D01*
X12373421Y4136811D01*
X12316632Y4273914D01*
X12207139Y4437782D01*
X12067781Y4577140D01*
X12023201Y4606927D01*
X11936558Y4664820D01*
X12969500Y4664820D01*
X12969500Y2935180D01*
X12978233Y2891278D01*
X13011496Y2841496D01*
X13061278Y2808233D01*
X13105180Y2799500D01*
X13105181Y2799500D01*
X14834819Y2799500D01*
X14834820Y2799500D01*
X14878722Y2808233D01*
X14928504Y2841496D01*
X14961767Y2891278D01*
X14970500Y2935180D01*
X14970500Y4136812D01*
X17072000Y4136812D01*
X17072000Y4018189D01*
X17102699Y3903618D01*
X17102701Y3903613D01*
X17162008Y3800891D01*
X17162009Y3800890D01*
X17162011Y3800887D01*
X17245887Y3717011D01*
X17245889Y3717010D01*
X17245890Y3717009D01*
X17348612Y3657702D01*
X17348614Y3657701D01*
X17348615Y3657701D01*
X17348617Y3657700D01*
X17377354Y3650000D01*
X17463188Y3627001D01*
X17463189Y3627000D01*
X17463191Y3627000D01*
X17581811Y3627000D01*
X17581811Y3627001D01*
X17696386Y3657701D01*
X17799113Y3717011D01*
X17882989Y3800887D01*
X17916719Y3859309D01*
X17940882Y3901159D01*
X17940882Y3901160D01*
X17942297Y3903611D01*
X17942298Y3903613D01*
X17942299Y3903614D01*
X17972999Y4018189D01*
X17973000Y4018189D01*
X17973000Y4136811D01*
X17972999Y4136812D01*
X17942300Y4251383D01*
X17942298Y4251388D01*
X17920157Y4289737D01*
X17882991Y4354110D01*
X17882990Y4354111D01*
X17882989Y4354113D01*
X17799113Y4437989D01*
X17799110Y4437991D01*
X17799109Y4437992D01*
X17696387Y4497299D01*
X17696382Y4497301D01*
X17581811Y4528000D01*
X17581809Y4528000D01*
X17463191Y4528000D01*
X17463189Y4528000D01*
X17348617Y4497301D01*
X17348612Y4497299D01*
X17245890Y4437992D01*
X17162008Y4354110D01*
X17102701Y4251388D01*
X17102699Y4251383D01*
X17072000Y4136812D01*
X14970500Y4136812D01*
X14970500Y4664820D01*
X14961767Y4708722D01*
X14928504Y4758504D01*
X14923195Y4762051D01*
X14878722Y4791767D01*
X14834820Y4800500D01*
X13105180Y4800500D01*
X13083229Y4796134D01*
X13061277Y4791767D01*
X13011496Y4758505D01*
X13011495Y4758504D01*
X12978233Y4708723D01*
X12978233Y4708722D01*
X12969500Y4664820D01*
X11936558Y4664820D01*
X11903913Y4686633D01*
X11721839Y4762050D01*
X11721829Y4762053D01*
X11572444Y4791767D01*
X11528541Y4800500D01*
X11331459Y4800500D01*
X11287556Y4791767D01*
X11138170Y4762053D01*
X11138160Y4762050D01*
X10956086Y4686633D01*
X10792218Y4577140D01*
X10792217Y4577138D01*
X10652862Y4437783D01*
X10652860Y4437782D01*
X10543367Y4273914D01*
X10467950Y4091840D01*
X10467947Y4091830D01*
X10444449Y3973694D01*
X10430509Y3903611D01*
X10429500Y3898540D01*
X7350500Y3898540D01*
X7350500Y3908541D01*
X7312051Y4101835D01*
X7236632Y4283914D01*
X7127139Y4447782D01*
X6987782Y4587139D01*
X6958168Y4606927D01*
X6823913Y4696633D01*
X6641839Y4772050D01*
X6641829Y4772053D01*
X6512388Y4797800D01*
X6448541Y4810500D01*
X6251459Y4810500D01*
X6201186Y4800500D01*
X6058170Y4772053D01*
X6058160Y4772050D01*
X5876086Y4696633D01*
X5712218Y4587140D01*
X5712217Y4587138D01*
X5572862Y4447783D01*
X5572860Y4447782D01*
X5463367Y4283914D01*
X5387950Y4101840D01*
X5387947Y4101830D01*
X5362498Y3973888D01*
X5349500Y3908541D01*
X4810500Y3908541D01*
X4772051Y4101835D01*
X4696632Y4283914D01*
X4587139Y4447782D01*
X4447782Y4587139D01*
X4418168Y4606927D01*
X4283913Y4696633D01*
X4101839Y4772050D01*
X4101829Y4772053D01*
X3972388Y4797800D01*
X3908541Y4810500D01*
X3711459Y4810500D01*
X3661186Y4800500D01*
X3518170Y4772053D01*
X3518160Y4772050D01*
X3336086Y4696633D01*
X3172218Y4587140D01*
X3172217Y4587138D01*
X3032862Y4447783D01*
X3032860Y4447782D01*
X2923367Y4283914D01*
X2847950Y4101840D01*
X2847947Y4101830D01*
X2822498Y3973888D01*
X2809500Y3908541D01*
X500500Y3908541D01*
X500500Y6500002D01*
X2669422Y6500002D01*
X2669424Y6500000D01*
X3332555Y6500000D01*
X3310000Y6415826D01*
X3310000Y6284174D01*
X3332555Y6200000D01*
X2669424Y6200000D01*
X2669422Y6199999D01*
X2688316Y6080711D01*
X2688319Y6080698D01*
X2744251Y5908557D01*
X2826433Y5747268D01*
X2826433Y5747267D01*
X2932826Y5600830D01*
X2932834Y5600820D01*
X3060820Y5472834D01*
X3060829Y5472827D01*
X3207266Y5366434D01*
X3368556Y5284252D01*
X3368555Y5284252D01*
X3540697Y5228320D01*
X3540710Y5228317D01*
X3659998Y5209423D01*
X3660000Y5209424D01*
X3660000Y5872555D01*
X3744174Y5850000D01*
X3875826Y5850000D01*
X3960000Y5872555D01*
X3960000Y5209424D01*
X3960001Y5209423D01*
X4079289Y5228317D01*
X4079302Y5228320D01*
X4251443Y5284252D01*
X4412732Y5366434D01*
X4412733Y5366434D01*
X4559170Y5472827D01*
X4559180Y5472834D01*
X4687166Y5600820D01*
X4687173Y5600830D01*
X4793566Y5747267D01*
X4793566Y5747268D01*
X4875748Y5908557D01*
X4931680Y6080698D01*
X4931683Y6080711D01*
X4950577Y6199999D01*
X4950576Y6200000D01*
X4287445Y6200000D01*
X4310000Y6284174D01*
X4310000Y6415826D01*
X4287445Y6500000D01*
X4950576Y6500000D01*
X4950577Y6500002D01*
X5209422Y6500002D01*
X5209424Y6500000D01*
X5872555Y6500000D01*
X5850000Y6415826D01*
X5850000Y6284174D01*
X5872555Y6200000D01*
X5209424Y6200000D01*
X5209422Y6199999D01*
X5228316Y6080711D01*
X5228319Y6080698D01*
X5284251Y5908557D01*
X5366433Y5747268D01*
X5366433Y5747267D01*
X5472826Y5600830D01*
X5472834Y5600820D01*
X5600820Y5472834D01*
X5600829Y5472827D01*
X5747266Y5366434D01*
X5908556Y5284252D01*
X5908555Y5284252D01*
X6080697Y5228320D01*
X6080710Y5228317D01*
X6199998Y5209423D01*
X6200000Y5209424D01*
X6200000Y5872555D01*
X6284174Y5850000D01*
X6415826Y5850000D01*
X6500000Y5872555D01*
X6500000Y5209424D01*
X6500001Y5209423D01*
X6619289Y5228317D01*
X6619302Y5228320D01*
X6791443Y5284252D01*
X6952732Y5366434D01*
X6952733Y5366434D01*
X7099170Y5472827D01*
X7099180Y5472834D01*
X7227166Y5600820D01*
X7227173Y5600830D01*
X7333566Y5747267D01*
X7333566Y5747268D01*
X7415748Y5908557D01*
X7455014Y6029404D01*
X7471680Y6080698D01*
X7471683Y6080711D01*
X7490577Y6199999D01*
X7490576Y6200000D01*
X6827445Y6200000D01*
X6850000Y6284174D01*
X6850000Y6415826D01*
X6827445Y6500000D01*
X7490576Y6500000D01*
X7490577Y6500002D01*
X7471683Y6619290D01*
X7471680Y6619303D01*
X7415748Y6791444D01*
X7333566Y6952733D01*
X7333566Y6952734D01*
X7306621Y6989820D01*
X21499499Y6989820D01*
X21499499Y6010174D01*
X21508231Y5966276D01*
X21533092Y5929069D01*
X21533094Y5929067D01*
X21533097Y5929063D01*
X22029060Y5433100D01*
X22066278Y5408233D01*
X22110180Y5399500D01*
X23089827Y5399499D01*
X23133723Y5408231D01*
X23170937Y5433097D01*
X23609991Y5872151D01*
X35335000Y5872151D01*
X35335000Y5647850D01*
X35370089Y5426313D01*
X35370091Y5426302D01*
X35439398Y5212996D01*
X35541228Y5013142D01*
X35650545Y4862679D01*
X36062215Y5274350D01*
X36099762Y5218156D01*
X36218156Y5099762D01*
X36274347Y5062217D01*
X35862677Y4650547D01*
X36013136Y4541231D01*
X36212995Y4439399D01*
X36426301Y4370092D01*
X36426312Y4370090D01*
X36647849Y4335000D01*
X36872151Y4335000D01*
X37093687Y4370090D01*
X37093698Y4370092D01*
X37307004Y4439399D01*
X37506862Y4541231D01*
X37657321Y4650546D01*
X37245651Y5062216D01*
X37301844Y5099762D01*
X37420238Y5218156D01*
X37457784Y5274349D01*
X37869454Y4862679D01*
X37978769Y5013138D01*
X38080601Y5212996D01*
X38149908Y5426302D01*
X38149910Y5426313D01*
X38185000Y5647850D01*
X38185000Y5872151D01*
X40415000Y5872151D01*
X40415000Y5647850D01*
X40450089Y5426313D01*
X40450091Y5426302D01*
X40519398Y5212996D01*
X40621228Y5013142D01*
X40730545Y4862679D01*
X41142215Y5274350D01*
X41179762Y5218156D01*
X41298156Y5099762D01*
X41354347Y5062217D01*
X40942677Y4650547D01*
X41093136Y4541231D01*
X41292995Y4439399D01*
X41506301Y4370092D01*
X41506312Y4370090D01*
X41727849Y4335000D01*
X41952151Y4335000D01*
X42173687Y4370090D01*
X42173698Y4370092D01*
X42387004Y4439399D01*
X42586862Y4541231D01*
X42737321Y4650546D01*
X42325651Y5062216D01*
X42381844Y5099762D01*
X42500238Y5218156D01*
X42537784Y5274349D01*
X42949454Y4862679D01*
X43058769Y5013138D01*
X43160601Y5212996D01*
X43229908Y5426302D01*
X43229910Y5426313D01*
X43265000Y5647850D01*
X43265000Y5872151D01*
X43229910Y6093688D01*
X43229908Y6093699D01*
X43160601Y6307005D01*
X43058769Y6506864D01*
X42949453Y6657323D01*
X42537783Y6245653D01*
X42500238Y6301844D01*
X42381844Y6420238D01*
X42325650Y6457785D01*
X42737321Y6869455D01*
X42586858Y6978772D01*
X42387004Y7080602D01*
X42173698Y7149909D01*
X42173687Y7149911D01*
X41952151Y7185000D01*
X41727849Y7185000D01*
X41506312Y7149911D01*
X41506301Y7149909D01*
X41292995Y7080602D01*
X41093141Y6978772D01*
X40942677Y6869455D01*
X41354347Y6457785D01*
X41298156Y6420238D01*
X41179762Y6301844D01*
X41142215Y6245653D01*
X40730545Y6657323D01*
X40621228Y6506859D01*
X40519398Y6307005D01*
X40450091Y6093699D01*
X40450089Y6093688D01*
X40415000Y5872151D01*
X38185000Y5872151D01*
X38149910Y6093688D01*
X38149908Y6093699D01*
X38080601Y6307005D01*
X37978769Y6506864D01*
X37869453Y6657323D01*
X37457783Y6245653D01*
X37420238Y6301844D01*
X37301844Y6420238D01*
X37245650Y6457785D01*
X37657321Y6869455D01*
X37506858Y6978772D01*
X37307004Y7080602D01*
X37093698Y7149909D01*
X37093687Y7149911D01*
X36872151Y7185000D01*
X36647849Y7185000D01*
X36426312Y7149911D01*
X36426301Y7149909D01*
X36212995Y7080602D01*
X36013141Y6978772D01*
X35862677Y6869455D01*
X36274347Y6457785D01*
X36218156Y6420238D01*
X36099762Y6301844D01*
X36062215Y6245653D01*
X35650545Y6657323D01*
X35541228Y6506859D01*
X35439398Y6307005D01*
X35370091Y6093699D01*
X35370089Y6093688D01*
X35335000Y5872151D01*
X23609991Y5872151D01*
X23666900Y5929060D01*
X23691767Y5966278D01*
X23700500Y6010180D01*
X23700500Y6420238D01*
X23700501Y6841252D01*
X23700501Y6989827D01*
X23691769Y7033722D01*
X23691769Y7033723D01*
X23691768Y7033725D01*
X23666907Y7070932D01*
X23666904Y7070935D01*
X23666903Y7070937D01*
X23170940Y7566900D01*
X23133722Y7591767D01*
X23133720Y7591768D01*
X23089815Y7600501D01*
X22110173Y7600501D01*
X22066275Y7591769D01*
X22029068Y7566908D01*
X22029065Y7566905D01*
X21533099Y7070940D01*
X21533098Y7070938D01*
X21508233Y7033723D01*
X21508232Y7033721D01*
X21499499Y6989820D01*
X7306621Y6989820D01*
X7227173Y7099171D01*
X7227166Y7099180D01*
X7099180Y7227166D01*
X7099170Y7227174D01*
X6952733Y7333567D01*
X6791443Y7415749D01*
X6791444Y7415749D01*
X6619302Y7471681D01*
X6619291Y7471683D01*
X6500000Y7490578D01*
X6500000Y6827446D01*
X6415826Y6850000D01*
X6284174Y6850000D01*
X6200000Y6827446D01*
X6200000Y7490578D01*
X6080708Y7471683D01*
X6080697Y7471681D01*
X5908556Y7415749D01*
X5747267Y7333567D01*
X5747266Y7333567D01*
X5600829Y7227174D01*
X5600820Y7227166D01*
X5472834Y7099180D01*
X5472826Y7099171D01*
X5366433Y6952734D01*
X5366433Y6952733D01*
X5284251Y6791444D01*
X5228319Y6619303D01*
X5228316Y6619290D01*
X5209422Y6500002D01*
X4950577Y6500002D01*
X4931683Y6619290D01*
X4931680Y6619303D01*
X4875748Y6791444D01*
X4793566Y6952733D01*
X4793566Y6952734D01*
X4687173Y7099171D01*
X4687166Y7099180D01*
X4559180Y7227166D01*
X4559170Y7227174D01*
X4412733Y7333567D01*
X4251443Y7415749D01*
X4251444Y7415749D01*
X4079302Y7471681D01*
X4079291Y7471683D01*
X3960000Y7490578D01*
X3960000Y6827446D01*
X3875826Y6850000D01*
X3744174Y6850000D01*
X3660000Y6827446D01*
X3660000Y7490578D01*
X3540708Y7471683D01*
X3540697Y7471681D01*
X3368556Y7415749D01*
X3207267Y7333567D01*
X3207266Y7333567D01*
X3060829Y7227174D01*
X3060820Y7227166D01*
X2932834Y7099180D01*
X2932826Y7099171D01*
X2826433Y6952734D01*
X2826433Y6952733D01*
X2744251Y6791444D01*
X2688319Y6619303D01*
X2688316Y6619290D01*
X2669422Y6500002D01*
X500500Y6500002D01*
X500500Y7859312D01*
X10049500Y7859312D01*
X10049500Y7740689D01*
X10080199Y7626118D01*
X10080201Y7626113D01*
X10139508Y7523391D01*
X10139509Y7523390D01*
X10139511Y7523387D01*
X10223387Y7439511D01*
X10223389Y7439510D01*
X10223390Y7439509D01*
X10285960Y7403384D01*
X10326114Y7380201D01*
X10326115Y7380201D01*
X10326117Y7380200D01*
X10383402Y7364851D01*
X10440688Y7349501D01*
X10440689Y7349500D01*
X10440691Y7349500D01*
X10559311Y7349500D01*
X10559311Y7349501D01*
X10673886Y7380201D01*
X10776613Y7439511D01*
X10860489Y7523387D01*
X10919799Y7626114D01*
X10950499Y7740689D01*
X10950500Y7740689D01*
X10950500Y7859311D01*
X10950499Y7859312D01*
X10927538Y7945006D01*
X10923705Y7959312D01*
X27449500Y7959312D01*
X27449500Y7840689D01*
X27480199Y7726118D01*
X27480201Y7726113D01*
X27539508Y7623391D01*
X27539509Y7623390D01*
X27539511Y7623387D01*
X27623387Y7539511D01*
X27623389Y7539510D01*
X27623390Y7539509D01*
X27726112Y7480202D01*
X27726114Y7480201D01*
X27726115Y7480201D01*
X27726117Y7480200D01*
X27757903Y7471683D01*
X27840688Y7449501D01*
X27840689Y7449500D01*
X27840691Y7449500D01*
X27959311Y7449500D01*
X27959311Y7449501D01*
X28073886Y7480201D01*
X28176613Y7539511D01*
X28260489Y7623387D01*
X28319799Y7726114D01*
X28350499Y7840689D01*
X28350500Y7840689D01*
X28350500Y7959311D01*
X28350499Y7959312D01*
X28346593Y7973888D01*
X28319799Y8073886D01*
X28297296Y8112862D01*
X28260491Y8176610D01*
X28260490Y8176611D01*
X28260489Y8176613D01*
X28176613Y8260489D01*
X28176610Y8260491D01*
X28176609Y8260492D01*
X28073887Y8319799D01*
X28073882Y8319801D01*
X28058422Y8323943D01*
X27959311Y8350500D01*
X27959309Y8350500D01*
X27840691Y8350500D01*
X27840689Y8350500D01*
X27726117Y8319801D01*
X27726112Y8319799D01*
X27623390Y8260492D01*
X27539508Y8176610D01*
X27480201Y8073888D01*
X27480199Y8073883D01*
X27449500Y7959312D01*
X10923705Y7959312D01*
X10919800Y7973883D01*
X10919798Y7973888D01*
X10860491Y8076610D01*
X10860490Y8076611D01*
X10860489Y8076613D01*
X10776613Y8160489D01*
X10776610Y8160491D01*
X10776609Y8160492D01*
X10673887Y8219799D01*
X10673882Y8219801D01*
X10559311Y8250500D01*
X10559309Y8250500D01*
X10440691Y8250500D01*
X10440689Y8250500D01*
X10326117Y8219801D01*
X10326112Y8219799D01*
X10223390Y8160492D01*
X10139508Y8076610D01*
X10080201Y7973888D01*
X10080199Y7973883D01*
X10049500Y7859312D01*
X500500Y7859312D01*
X500500Y8988540D01*
X2809500Y8988540D01*
X2809500Y8791461D01*
X2847947Y8598171D01*
X2847950Y8598161D01*
X2923367Y8416087D01*
X3032860Y8252219D01*
X3172218Y8112861D01*
X3336086Y8003368D01*
X3507112Y7932527D01*
X3518165Y7927949D01*
X3711459Y7889500D01*
X3711461Y7889500D01*
X3908539Y7889500D01*
X3908541Y7889500D01*
X4101835Y7927949D01*
X4283914Y8003368D01*
X4447782Y8112861D01*
X4587139Y8252218D01*
X4696632Y8416086D01*
X4772051Y8598165D01*
X4810500Y8791459D01*
X4810500Y8988540D01*
X5349500Y8988540D01*
X5349500Y8791461D01*
X5387947Y8598171D01*
X5387950Y8598161D01*
X5463367Y8416087D01*
X5572860Y8252219D01*
X5712218Y8112861D01*
X5876086Y8003368D01*
X6047112Y7932527D01*
X6058165Y7927949D01*
X6251459Y7889500D01*
X6251461Y7889500D01*
X6448539Y7889500D01*
X6448541Y7889500D01*
X6641835Y7927949D01*
X6823914Y8003368D01*
X6987782Y8112861D01*
X7127139Y8252218D01*
X7236632Y8416086D01*
X7312051Y8598165D01*
X7350500Y8791459D01*
X7350500Y8988541D01*
X7312051Y9181835D01*
X7305926Y9196621D01*
X7236632Y9363914D01*
X7130303Y9523047D01*
X7127138Y9527783D01*
X7095609Y9559312D01*
X12149500Y9559312D01*
X12149500Y9440689D01*
X12180199Y9326118D01*
X12180201Y9326113D01*
X12239508Y9223391D01*
X12239509Y9223390D01*
X12239511Y9223387D01*
X12323387Y9139511D01*
X12323389Y9139510D01*
X12323390Y9139509D01*
X12353363Y9122204D01*
X12387841Y9077271D01*
X12380449Y9021118D01*
X12368691Y9005794D01*
X12339508Y8976611D01*
X12280201Y8873888D01*
X12280199Y8873883D01*
X12249500Y8759312D01*
X12249500Y8640689D01*
X12280199Y8526118D01*
X12280201Y8526113D01*
X12339508Y8423391D01*
X12339509Y8423390D01*
X12339511Y8423387D01*
X12423387Y8339511D01*
X12423389Y8339510D01*
X12423390Y8339509D01*
X12526112Y8280202D01*
X12526114Y8280201D01*
X12526115Y8280201D01*
X12526117Y8280200D01*
X12583402Y8264851D01*
X12640688Y8249501D01*
X12640689Y8249500D01*
X12640691Y8249500D01*
X12759311Y8249500D01*
X12759311Y8249501D01*
X12873886Y8280201D01*
X12976613Y8339511D01*
X13029618Y8392516D01*
X38124500Y8392516D01*
X38124500Y8207485D01*
X38153444Y8024739D01*
X38153447Y8024726D01*
X38210619Y7848768D01*
X38210621Y7848764D01*
X38294620Y7683908D01*
X38294623Y7683902D01*
X38399531Y7539509D01*
X38403379Y7534213D01*
X38534213Y7403379D01*
X38534216Y7403377D01*
X38534217Y7403376D01*
X38608369Y7349501D01*
X38683904Y7294622D01*
X38816278Y7227174D01*
X38848763Y7210622D01*
X38848767Y7210620D01*
X39024725Y7153448D01*
X39024731Y7153447D01*
X39024736Y7153445D01*
X39116111Y7138973D01*
X39207484Y7124500D01*
X39207486Y7124500D01*
X39392516Y7124500D01*
X39465614Y7136078D01*
X39575264Y7153445D01*
X39575271Y7153448D01*
X39575274Y7153448D01*
X39751232Y7210620D01*
X39751232Y7210621D01*
X39751235Y7210621D01*
X39916096Y7294622D01*
X40065787Y7403379D01*
X40196621Y7534213D01*
X40305378Y7683904D01*
X40389379Y7848765D01*
X40415108Y7927951D01*
X40446552Y8024726D01*
X40446552Y8024729D01*
X40446555Y8024736D01*
X40475500Y8207486D01*
X40475500Y8392514D01*
X40471766Y8416087D01*
X40446555Y8575262D01*
X40446552Y8575275D01*
X40389380Y8751233D01*
X40389378Y8751237D01*
X40330507Y8866777D01*
X40305378Y8916096D01*
X40298118Y8926088D01*
X40196624Y9065783D01*
X40196623Y9065784D01*
X40196621Y9065787D01*
X40065787Y9196621D01*
X40065784Y9196624D01*
X40065782Y9196625D01*
X39916098Y9305377D01*
X39916092Y9305380D01*
X39751236Y9389379D01*
X39751232Y9389381D01*
X39575274Y9446553D01*
X39575261Y9446556D01*
X39392516Y9475500D01*
X39392514Y9475500D01*
X39207486Y9475500D01*
X39207484Y9475500D01*
X39024738Y9446556D01*
X39024725Y9446553D01*
X38848767Y9389381D01*
X38848763Y9389379D01*
X38683907Y9305380D01*
X38683901Y9305377D01*
X38534217Y9196625D01*
X38403375Y9065783D01*
X38294623Y8916099D01*
X38294620Y8916093D01*
X38210621Y8751237D01*
X38210619Y8751233D01*
X38153447Y8575275D01*
X38153444Y8575262D01*
X38124500Y8392516D01*
X13029618Y8392516D01*
X13060489Y8423387D01*
X13119799Y8526114D01*
X13150499Y8640689D01*
X13150500Y8640689D01*
X13150500Y8759311D01*
X13150499Y8759312D01*
X13119800Y8873883D01*
X13119798Y8873888D01*
X13060491Y8976610D01*
X13060490Y8976611D01*
X13060489Y8976613D01*
X12976613Y9060489D01*
X12976610Y9060491D01*
X12976609Y9060492D01*
X12946636Y9077797D01*
X12912157Y9122731D01*
X12919550Y9178883D01*
X12931306Y9194205D01*
X12960489Y9223387D01*
X13019799Y9326114D01*
X13050499Y9440689D01*
X13050500Y9440689D01*
X13050500Y9559311D01*
X13050499Y9559312D01*
X17049500Y9559312D01*
X17049500Y9440689D01*
X17080199Y9326118D01*
X17080201Y9326113D01*
X17139508Y9223391D01*
X17139509Y9223390D01*
X17139511Y9223387D01*
X17223387Y9139511D01*
X17223389Y9139510D01*
X17223390Y9139509D01*
X17269833Y9112695D01*
X17326114Y9080201D01*
X17326115Y9080201D01*
X17326117Y9080200D01*
X17347569Y9074452D01*
X17440688Y9049501D01*
X17440689Y9049500D01*
X17440691Y9049500D01*
X17559311Y9049500D01*
X17559311Y9049501D01*
X17673886Y9080201D01*
X17776613Y9139511D01*
X17860489Y9223387D01*
X17919799Y9326114D01*
X17921403Y9332104D01*
X17925097Y9345889D01*
X18643587Y9345889D01*
X18643587Y9227266D01*
X18674286Y9112695D01*
X18674288Y9112690D01*
X18733595Y9009968D01*
X18733596Y9009967D01*
X18733598Y9009964D01*
X18817474Y8926088D01*
X18817476Y8926087D01*
X18817477Y8926086D01*
X18907895Y8873883D01*
X18920201Y8866778D01*
X18920202Y8866778D01*
X18920204Y8866777D01*
X18977489Y8851428D01*
X19034775Y8836078D01*
X19034776Y8836077D01*
X19034778Y8836077D01*
X19153398Y8836077D01*
X19153398Y8836078D01*
X19267973Y8866778D01*
X19370700Y8926088D01*
X19454576Y9009964D01*
X19513886Y9112691D01*
X19544586Y9227266D01*
X19544587Y9227266D01*
X19544587Y9345884D01*
X19544587Y9345886D01*
X19540989Y9359312D01*
X22149500Y9359312D01*
X22149500Y9240689D01*
X22180199Y9126118D01*
X22180201Y9126113D01*
X22239508Y9023391D01*
X22239509Y9023390D01*
X22239511Y9023387D01*
X22323387Y8939511D01*
X22323389Y8939510D01*
X22323390Y8939509D01*
X22426112Y8880202D01*
X22426114Y8880201D01*
X22426115Y8880201D01*
X22426117Y8880200D01*
X22449693Y8873883D01*
X22540688Y8849501D01*
X22540689Y8849500D01*
X22540691Y8849500D01*
X22659311Y8849500D01*
X22659311Y8849501D01*
X22773886Y8880201D01*
X22876613Y8939511D01*
X22960489Y9023387D01*
X23019799Y9126114D01*
X23050499Y9240689D01*
X23050500Y9240689D01*
X23050500Y9359311D01*
X23050499Y9359312D01*
X23249500Y9359312D01*
X23249500Y9240689D01*
X23280199Y9126118D01*
X23280201Y9126113D01*
X23339508Y9023391D01*
X23339509Y9023390D01*
X23339511Y9023387D01*
X23423387Y8939511D01*
X23423389Y8939510D01*
X23423390Y8939509D01*
X23526112Y8880202D01*
X23526114Y8880201D01*
X23526115Y8880201D01*
X23526117Y8880200D01*
X23549693Y8873883D01*
X23640688Y8849501D01*
X23640689Y8849500D01*
X23640691Y8849500D01*
X23759311Y8849500D01*
X23759311Y8849501D01*
X23873886Y8880201D01*
X23976613Y8939511D01*
X24060489Y9023387D01*
X24119799Y9126114D01*
X24150499Y9240689D01*
X24150500Y9240689D01*
X24150500Y9359311D01*
X24150499Y9359312D01*
X24119800Y9473883D01*
X24119798Y9473888D01*
X24060491Y9576610D01*
X24060490Y9576611D01*
X24060489Y9576613D01*
X23976613Y9660489D01*
X23976610Y9660491D01*
X23976609Y9660492D01*
X23917423Y9694663D01*
X23873887Y9719799D01*
X23873882Y9719801D01*
X23759311Y9750500D01*
X23759309Y9750500D01*
X23640691Y9750500D01*
X23640689Y9750500D01*
X23526117Y9719801D01*
X23526112Y9719799D01*
X23423390Y9660492D01*
X23339508Y9576610D01*
X23280201Y9473888D01*
X23280199Y9473883D01*
X23249500Y9359312D01*
X23050499Y9359312D01*
X23019800Y9473883D01*
X23019798Y9473888D01*
X22960491Y9576610D01*
X22960490Y9576611D01*
X22960489Y9576613D01*
X22876613Y9660489D01*
X22876610Y9660491D01*
X22876609Y9660492D01*
X22773887Y9719799D01*
X22773882Y9719801D01*
X22659311Y9750500D01*
X22659309Y9750500D01*
X22540691Y9750500D01*
X22540689Y9750500D01*
X22426117Y9719801D01*
X22426112Y9719799D01*
X22323390Y9660492D01*
X22239508Y9576610D01*
X22180201Y9473888D01*
X22180199Y9473883D01*
X22149500Y9359312D01*
X19540989Y9359312D01*
X19513886Y9460463D01*
X19475019Y9527782D01*
X19454578Y9563187D01*
X19454577Y9563188D01*
X19454576Y9563190D01*
X19370700Y9647066D01*
X19370697Y9647068D01*
X19370696Y9647069D01*
X19267974Y9706376D01*
X19267969Y9706378D01*
X19153398Y9737077D01*
X19153396Y9737077D01*
X19034778Y9737077D01*
X19034776Y9737077D01*
X18920204Y9706378D01*
X18920199Y9706376D01*
X18817477Y9647069D01*
X18733595Y9563187D01*
X18674288Y9460465D01*
X18674286Y9460460D01*
X18643587Y9345889D01*
X17925097Y9345889D01*
X17931529Y9369889D01*
X17950499Y9440689D01*
X17950500Y9440689D01*
X17950500Y9559311D01*
X17950499Y9559312D01*
X17919800Y9673883D01*
X17919798Y9673888D01*
X17860491Y9776610D01*
X17860490Y9776611D01*
X17860489Y9776613D01*
X17776613Y9860489D01*
X17776610Y9860491D01*
X17776609Y9860492D01*
X17673887Y9919799D01*
X17673882Y9919801D01*
X17559311Y9950500D01*
X17559309Y9950500D01*
X17440691Y9950500D01*
X17440689Y9950500D01*
X17326117Y9919801D01*
X17326112Y9919799D01*
X17223390Y9860492D01*
X17139508Y9776610D01*
X17080201Y9673888D01*
X17080199Y9673883D01*
X17049500Y9559312D01*
X13050499Y9559312D01*
X13019800Y9673883D01*
X13019798Y9673888D01*
X12960491Y9776610D01*
X12960490Y9776611D01*
X12960489Y9776613D01*
X12876613Y9860489D01*
X12876610Y9860491D01*
X12876609Y9860492D01*
X12773887Y9919799D01*
X12773882Y9919801D01*
X12659311Y9950500D01*
X12659309Y9950500D01*
X12540691Y9950500D01*
X12540689Y9950500D01*
X12426117Y9919801D01*
X12426112Y9919799D01*
X12323390Y9860492D01*
X12239508Y9776610D01*
X12180201Y9673888D01*
X12180199Y9673883D01*
X12149500Y9559312D01*
X7095609Y9559312D01*
X6987781Y9667140D01*
X6823913Y9776633D01*
X6641839Y9852050D01*
X6641829Y9852053D01*
X6512388Y9877800D01*
X6448541Y9890500D01*
X6251459Y9890500D01*
X6196662Y9879601D01*
X6058170Y9852053D01*
X6058160Y9852050D01*
X5876086Y9776633D01*
X5712218Y9667140D01*
X5712217Y9667138D01*
X5572862Y9527783D01*
X5572860Y9527782D01*
X5463367Y9363914D01*
X5387950Y9181840D01*
X5387947Y9181830D01*
X5349500Y8988540D01*
X4810500Y8988540D01*
X4810500Y8988541D01*
X4772051Y9181835D01*
X4765926Y9196621D01*
X4696632Y9363914D01*
X4587139Y9527782D01*
X4447781Y9667140D01*
X4283913Y9776633D01*
X4101839Y9852050D01*
X4101829Y9852053D01*
X3972388Y9877800D01*
X3908541Y9890500D01*
X3711459Y9890500D01*
X3656662Y9879601D01*
X3518170Y9852053D01*
X3518160Y9852050D01*
X3336086Y9776633D01*
X3172218Y9667140D01*
X3172217Y9667138D01*
X3032862Y9527783D01*
X3032860Y9527782D01*
X2923367Y9363914D01*
X2847950Y9181840D01*
X2847947Y9181830D01*
X2809500Y8988540D01*
X500500Y8988540D01*
X500500Y11528541D01*
X2809500Y11528541D01*
X2809500Y11331459D01*
X2822200Y11267612D01*
X2847947Y11138171D01*
X2847950Y11138161D01*
X2923367Y10956087D01*
X3000474Y10840689D01*
X3032861Y10792218D01*
X3172218Y10652861D01*
X3336086Y10543368D01*
X3518165Y10467949D01*
X3711459Y10429500D01*
X3711461Y10429500D01*
X3908539Y10429500D01*
X3908541Y10429500D01*
X4101835Y10467949D01*
X4283914Y10543368D01*
X4447782Y10652861D01*
X4587139Y10792218D01*
X4696632Y10956086D01*
X4772051Y11138165D01*
X4810500Y11331459D01*
X4810500Y11528541D01*
X5349500Y11528541D01*
X5349500Y11331459D01*
X5362200Y11267612D01*
X5387947Y11138171D01*
X5387950Y11138161D01*
X5463367Y10956087D01*
X5540474Y10840689D01*
X5572861Y10792218D01*
X5712218Y10652861D01*
X5876086Y10543368D01*
X6058165Y10467949D01*
X6251459Y10429500D01*
X6251461Y10429500D01*
X6448539Y10429500D01*
X6448541Y10429500D01*
X6641835Y10467949D01*
X6823914Y10543368D01*
X6987782Y10652861D01*
X7127139Y10792218D01*
X7171970Y10859312D01*
X12149500Y10859312D01*
X12149500Y10740689D01*
X12180199Y10626118D01*
X12180201Y10626113D01*
X12239508Y10523391D01*
X12239509Y10523390D01*
X12239511Y10523387D01*
X12323387Y10439511D01*
X12426114Y10380201D01*
X12426115Y10380201D01*
X12426117Y10380200D01*
X12483402Y10364851D01*
X12540688Y10349501D01*
X12540689Y10349500D01*
X12540691Y10349500D01*
X12659311Y10349500D01*
X12659311Y10349501D01*
X12773886Y10380201D01*
X12876613Y10439511D01*
X12960489Y10523387D01*
X13019799Y10626114D01*
X13050499Y10740689D01*
X13050500Y10740689D01*
X13050500Y10859311D01*
X13050499Y10859312D01*
X13027538Y10945006D01*
X13023705Y10959312D01*
X30649500Y10959312D01*
X30649500Y10840689D01*
X30680199Y10726118D01*
X30680201Y10726113D01*
X30739508Y10623391D01*
X30739509Y10623390D01*
X30739511Y10623387D01*
X30823387Y10539511D01*
X30926114Y10480201D01*
X30926115Y10480201D01*
X30926117Y10480200D01*
X30983402Y10464851D01*
X31040688Y10449501D01*
X31040689Y10449500D01*
X31040691Y10449500D01*
X31159311Y10449500D01*
X31159311Y10449501D01*
X31273886Y10480201D01*
X31376613Y10539511D01*
X31460489Y10623387D01*
X31519799Y10726114D01*
X31550499Y10840689D01*
X31550500Y10840689D01*
X31550500Y10952151D01*
X35335000Y10952151D01*
X35335000Y10727850D01*
X35370089Y10506313D01*
X35370091Y10506302D01*
X35439398Y10292996D01*
X35541228Y10093142D01*
X35650545Y9942679D01*
X36062215Y10354350D01*
X36099762Y10298156D01*
X36218156Y10179762D01*
X36274347Y10142217D01*
X35862677Y9730547D01*
X36013136Y9621231D01*
X36212995Y9519399D01*
X36426301Y9450092D01*
X36426312Y9450090D01*
X36647849Y9415000D01*
X36872151Y9415000D01*
X37093687Y9450090D01*
X37093698Y9450092D01*
X37307004Y9519399D01*
X37506862Y9621231D01*
X37657321Y9730546D01*
X37245651Y10142216D01*
X37301844Y10179762D01*
X37420238Y10298156D01*
X37457784Y10354349D01*
X37869454Y9942679D01*
X37978769Y10093138D01*
X38080601Y10292996D01*
X38149908Y10506302D01*
X38149910Y10506313D01*
X38185000Y10727850D01*
X38185000Y10952151D01*
X40415000Y10952151D01*
X40415000Y10727850D01*
X40450089Y10506313D01*
X40450091Y10506302D01*
X40519398Y10292996D01*
X40621228Y10093142D01*
X40730545Y9942679D01*
X41142215Y10354350D01*
X41179762Y10298156D01*
X41298156Y10179762D01*
X41354347Y10142217D01*
X40942677Y9730547D01*
X41093136Y9621231D01*
X41292995Y9519399D01*
X41506301Y9450092D01*
X41506312Y9450090D01*
X41727849Y9415000D01*
X41952151Y9415000D01*
X42173687Y9450090D01*
X42173698Y9450092D01*
X42387004Y9519399D01*
X42586862Y9621231D01*
X42737321Y9730546D01*
X42325651Y10142216D01*
X42381844Y10179762D01*
X42500238Y10298156D01*
X42537784Y10354349D01*
X42949454Y9942679D01*
X43058769Y10093138D01*
X43160601Y10292996D01*
X43229908Y10506302D01*
X43229910Y10506313D01*
X43265000Y10727850D01*
X43265000Y10952151D01*
X43229910Y11173688D01*
X43229908Y11173699D01*
X43160601Y11387005D01*
X43058769Y11586864D01*
X42949453Y11737323D01*
X42537783Y11325653D01*
X42500238Y11381844D01*
X42381844Y11500238D01*
X42325650Y11537785D01*
X42737321Y11949455D01*
X42586858Y12058772D01*
X42387004Y12160602D01*
X42173698Y12229909D01*
X42173687Y12229911D01*
X41952151Y12265000D01*
X41727849Y12265000D01*
X41506312Y12229911D01*
X41506301Y12229909D01*
X41292995Y12160602D01*
X41093141Y12058772D01*
X40942677Y11949455D01*
X41354347Y11537785D01*
X41298156Y11500238D01*
X41179762Y11381844D01*
X41142215Y11325653D01*
X40730545Y11737323D01*
X40621228Y11586859D01*
X40519398Y11387005D01*
X40450091Y11173699D01*
X40450089Y11173688D01*
X40415000Y10952151D01*
X38185000Y10952151D01*
X38149910Y11173688D01*
X38149908Y11173699D01*
X38080601Y11387005D01*
X37978769Y11586864D01*
X37869453Y11737323D01*
X37457783Y11325653D01*
X37420238Y11381844D01*
X37301844Y11500238D01*
X37245650Y11537785D01*
X37657321Y11949455D01*
X37506858Y12058772D01*
X37307004Y12160602D01*
X37093698Y12229909D01*
X37093687Y12229911D01*
X36872151Y12265000D01*
X36647849Y12265000D01*
X36426312Y12229911D01*
X36426301Y12229909D01*
X36212995Y12160602D01*
X36013141Y12058772D01*
X35862677Y11949455D01*
X36274347Y11537785D01*
X36218156Y11500238D01*
X36099762Y11381844D01*
X36062215Y11325653D01*
X35650545Y11737323D01*
X35541228Y11586859D01*
X35439398Y11387005D01*
X35370091Y11173699D01*
X35370089Y11173688D01*
X35335000Y10952151D01*
X31550500Y10952151D01*
X31550500Y10959311D01*
X31550499Y10959312D01*
X31546593Y10973888D01*
X31519799Y11073886D01*
X31511687Y11087936D01*
X31460491Y11176610D01*
X31460490Y11176611D01*
X31460489Y11176613D01*
X31376613Y11260489D01*
X31376610Y11260491D01*
X31376609Y11260492D01*
X31273887Y11319799D01*
X31273882Y11319801D01*
X31159311Y11350500D01*
X31159309Y11350500D01*
X31040691Y11350500D01*
X31040689Y11350500D01*
X30926117Y11319801D01*
X30926112Y11319799D01*
X30823390Y11260492D01*
X30739508Y11176610D01*
X30680201Y11073888D01*
X30680199Y11073883D01*
X30649500Y10959312D01*
X13023705Y10959312D01*
X13019800Y10973883D01*
X13019798Y10973888D01*
X12960491Y11076610D01*
X12960490Y11076611D01*
X12960489Y11076613D01*
X12876613Y11160489D01*
X12876610Y11160491D01*
X12876609Y11160492D01*
X12773887Y11219799D01*
X12773882Y11219801D01*
X12659311Y11250500D01*
X12659309Y11250500D01*
X12540691Y11250500D01*
X12540689Y11250500D01*
X12426117Y11219801D01*
X12426112Y11219799D01*
X12323390Y11160492D01*
X12239508Y11076610D01*
X12180201Y10973888D01*
X12180199Y10973883D01*
X12149500Y10859312D01*
X7171970Y10859312D01*
X7236632Y10956086D01*
X7312051Y11138165D01*
X7350500Y11331459D01*
X7350500Y11528541D01*
X7312051Y11721835D01*
X7305636Y11737323D01*
X7264829Y11835841D01*
X7255107Y11859312D01*
X17049500Y11859312D01*
X17049500Y11740689D01*
X17080199Y11626118D01*
X17080201Y11626113D01*
X17139508Y11523391D01*
X17139509Y11523390D01*
X17139511Y11523387D01*
X17223387Y11439511D01*
X17326114Y11380201D01*
X17326115Y11380201D01*
X17326117Y11380200D01*
X17383402Y11364851D01*
X17440688Y11349501D01*
X17440689Y11349500D01*
X17440691Y11349500D01*
X17559311Y11349500D01*
X17559311Y11349501D01*
X17673886Y11380201D01*
X17776613Y11439511D01*
X17860489Y11523387D01*
X17919799Y11626114D01*
X17950499Y11740689D01*
X17950500Y11740689D01*
X17950500Y11859311D01*
X17950499Y11859312D01*
X17939035Y11902099D01*
X17919800Y11973883D01*
X17919798Y11973888D01*
X17860491Y12076610D01*
X17860490Y12076611D01*
X17860489Y12076613D01*
X17776613Y12160489D01*
X17776610Y12160491D01*
X17776609Y12160492D01*
X17673887Y12219799D01*
X17673882Y12219801D01*
X17559311Y12250500D01*
X17559309Y12250500D01*
X17440691Y12250500D01*
X17440689Y12250500D01*
X17326117Y12219801D01*
X17326112Y12219799D01*
X17223390Y12160492D01*
X17139508Y12076610D01*
X17080201Y11973888D01*
X17080199Y11973883D01*
X17049500Y11859312D01*
X7255107Y11859312D01*
X7236632Y11903914D01*
X7127139Y12067782D01*
X6987781Y12207140D01*
X6823913Y12316633D01*
X6641839Y12392050D01*
X6641829Y12392053D01*
X6512388Y12417800D01*
X6448541Y12430500D01*
X6251459Y12430500D01*
X6196662Y12419601D01*
X6058170Y12392053D01*
X6058160Y12392050D01*
X5876086Y12316633D01*
X5712218Y12207140D01*
X5712217Y12207138D01*
X5572862Y12067783D01*
X5572860Y12067782D01*
X5463367Y11903914D01*
X5387950Y11721840D01*
X5387947Y11721830D01*
X5361101Y11586864D01*
X5349500Y11528541D01*
X4810500Y11528541D01*
X4772051Y11721835D01*
X4764241Y11740689D01*
X4696632Y11903914D01*
X4587139Y12067782D01*
X4447781Y12207140D01*
X4283913Y12316633D01*
X4101839Y12392050D01*
X4101829Y12392053D01*
X3972388Y12417800D01*
X3908541Y12430500D01*
X3711459Y12430500D01*
X3656662Y12419601D01*
X3518170Y12392053D01*
X3518160Y12392050D01*
X3336086Y12316633D01*
X3172218Y12207140D01*
X3172217Y12207138D01*
X3032862Y12067783D01*
X3032860Y12067782D01*
X2923367Y11903914D01*
X2847950Y11721840D01*
X2847947Y11721830D01*
X2821101Y11586864D01*
X2809500Y11528541D01*
X500500Y11528541D01*
X500500Y14068540D01*
X2809500Y14068540D01*
X2809500Y13871461D01*
X2847947Y13678171D01*
X2847950Y13678161D01*
X2923367Y13496087D01*
X3032860Y13332219D01*
X3172218Y13192861D01*
X3336086Y13083368D01*
X3374578Y13067424D01*
X3518165Y13007949D01*
X3711459Y12969500D01*
X3711461Y12969500D01*
X3908539Y12969500D01*
X3908541Y12969500D01*
X4101835Y13007949D01*
X4283914Y13083368D01*
X4447782Y13192861D01*
X4587139Y13332218D01*
X4696632Y13496086D01*
X4772051Y13678165D01*
X4810500Y13871459D01*
X4810500Y14068540D01*
X5349500Y14068540D01*
X5349500Y13871461D01*
X5387947Y13678171D01*
X5387950Y13678161D01*
X5463367Y13496087D01*
X5572860Y13332219D01*
X5712218Y13192861D01*
X5876086Y13083368D01*
X5914578Y13067424D01*
X6058165Y13007949D01*
X6251459Y12969500D01*
X6251461Y12969500D01*
X6448539Y12969500D01*
X6448541Y12969500D01*
X6641835Y13007949D01*
X6823914Y13083368D01*
X6987782Y13192861D01*
X7127139Y13332218D01*
X7145243Y13359312D01*
X12749500Y13359312D01*
X12749500Y13240689D01*
X12780199Y13126118D01*
X12780201Y13126113D01*
X12839508Y13023391D01*
X12839509Y13023390D01*
X12839511Y13023387D01*
X12923387Y12939511D01*
X13026114Y12880201D01*
X13026115Y12880201D01*
X13026117Y12880200D01*
X13083402Y12864851D01*
X13140688Y12849501D01*
X13140689Y12849500D01*
X13140691Y12849500D01*
X13259311Y12849500D01*
X13259311Y12849501D01*
X13373886Y12880201D01*
X13476613Y12939511D01*
X13560489Y13023387D01*
X13585914Y13067425D01*
X13630847Y13101902D01*
X13687000Y13094510D01*
X13714086Y13067424D01*
X13739508Y13023391D01*
X13739509Y13023390D01*
X13739511Y13023387D01*
X13823387Y12939511D01*
X13926114Y12880201D01*
X13926115Y12880201D01*
X13926117Y12880200D01*
X13983402Y12864851D01*
X14040688Y12849501D01*
X14040689Y12849500D01*
X14040691Y12849500D01*
X14159311Y12849500D01*
X14159311Y12849501D01*
X14273886Y12880201D01*
X14376613Y12939511D01*
X14460489Y13023387D01*
X14519799Y13126114D01*
X14550499Y13240689D01*
X14550500Y13240689D01*
X14550500Y13359311D01*
X14550499Y13359312D01*
X14519800Y13473883D01*
X14519798Y13473888D01*
X14460491Y13576610D01*
X14460490Y13576611D01*
X14460489Y13576613D01*
X14377790Y13659312D01*
X30749500Y13659312D01*
X30749500Y13540689D01*
X30780199Y13426118D01*
X30780201Y13426113D01*
X30839508Y13323391D01*
X30839509Y13323390D01*
X30839511Y13323387D01*
X30923387Y13239511D01*
X30923389Y13239510D01*
X30923390Y13239509D01*
X31004186Y13192861D01*
X31026114Y13180201D01*
X31026115Y13180201D01*
X31026117Y13180200D01*
X31083402Y13164851D01*
X31140688Y13149501D01*
X31140689Y13149500D01*
X31140691Y13149500D01*
X31259311Y13149500D01*
X31259311Y13149501D01*
X31373886Y13180201D01*
X31476613Y13239511D01*
X31560489Y13323387D01*
X31619799Y13426114D01*
X31650499Y13540689D01*
X31650500Y13540689D01*
X31650500Y13659311D01*
X31650499Y13659312D01*
X31645448Y13678161D01*
X31619799Y13773886D01*
X31560489Y13876613D01*
X31476613Y13960489D01*
X31476610Y13960491D01*
X31476609Y13960492D01*
X31373887Y14019799D01*
X31373882Y14019801D01*
X31259311Y14050500D01*
X31259309Y14050500D01*
X31140691Y14050500D01*
X31140689Y14050500D01*
X31026117Y14019801D01*
X31026112Y14019799D01*
X30923390Y13960492D01*
X30839508Y13876610D01*
X30780201Y13773888D01*
X30780199Y13773883D01*
X30749500Y13659312D01*
X14377790Y13659312D01*
X14376613Y13660489D01*
X14376610Y13660491D01*
X14376609Y13660492D01*
X14273887Y13719799D01*
X14273882Y13719801D01*
X14159311Y13750500D01*
X14159309Y13750500D01*
X14040691Y13750500D01*
X14040689Y13750500D01*
X13926117Y13719801D01*
X13926112Y13719799D01*
X13823390Y13660492D01*
X13739508Y13576610D01*
X13714086Y13532577D01*
X13669152Y13498098D01*
X13613000Y13505491D01*
X13585914Y13532577D01*
X13560491Y13576610D01*
X13560490Y13576611D01*
X13560489Y13576613D01*
X13476613Y13660489D01*
X13476610Y13660491D01*
X13476609Y13660492D01*
X13373887Y13719799D01*
X13373882Y13719801D01*
X13259311Y13750500D01*
X13259309Y13750500D01*
X13140691Y13750500D01*
X13140689Y13750500D01*
X13026117Y13719801D01*
X13026112Y13719799D01*
X12923390Y13660492D01*
X12839508Y13576610D01*
X12780201Y13473888D01*
X12780199Y13473883D01*
X12749500Y13359312D01*
X7145243Y13359312D01*
X7236632Y13496086D01*
X7312051Y13678165D01*
X7350500Y13871459D01*
X7350500Y14068541D01*
X7312051Y14261835D01*
X7236632Y14443914D01*
X7127139Y14607782D01*
X6987782Y14747139D01*
X6823914Y14856632D01*
X6823915Y14856632D01*
X6823913Y14856633D01*
X6641839Y14932050D01*
X6641829Y14932053D01*
X6512388Y14957800D01*
X6448541Y14970500D01*
X6251459Y14970500D01*
X6196662Y14959601D01*
X6058170Y14932053D01*
X6058160Y14932050D01*
X5876086Y14856633D01*
X5712218Y14747140D01*
X5712217Y14747138D01*
X5572862Y14607783D01*
X5572860Y14607782D01*
X5463367Y14443914D01*
X5387950Y14261840D01*
X5387947Y14261830D01*
X5349500Y14068540D01*
X4810500Y14068540D01*
X4810500Y14068541D01*
X4772051Y14261835D01*
X4696632Y14443914D01*
X4587139Y14607782D01*
X4447782Y14747139D01*
X4283914Y14856632D01*
X4283915Y14856632D01*
X4283913Y14856633D01*
X4101839Y14932050D01*
X4101829Y14932053D01*
X3972388Y14957800D01*
X3908541Y14970500D01*
X3711459Y14970500D01*
X3656662Y14959601D01*
X3518170Y14932053D01*
X3518160Y14932050D01*
X3336086Y14856633D01*
X3172218Y14747140D01*
X3172217Y14747138D01*
X3032862Y14607783D01*
X3032860Y14607782D01*
X2923367Y14443914D01*
X2847950Y14261840D01*
X2847947Y14261830D01*
X2809500Y14068540D01*
X500500Y14068540D01*
X500500Y15459312D01*
X24949500Y15459312D01*
X24949500Y15340689D01*
X24980199Y15226118D01*
X24980201Y15226113D01*
X25039508Y15123391D01*
X25039509Y15123390D01*
X25039511Y15123387D01*
X25123387Y15039511D01*
X25226114Y14980201D01*
X25226115Y14980201D01*
X25226117Y14980200D01*
X25262318Y14970500D01*
X25340688Y14949501D01*
X25340689Y14949500D01*
X25340691Y14949500D01*
X25459311Y14949500D01*
X25459311Y14949501D01*
X25573886Y14980201D01*
X25676613Y15039511D01*
X25760489Y15123387D01*
X25819799Y15226114D01*
X25850499Y15340689D01*
X25850500Y15340689D01*
X25850500Y15459311D01*
X25850499Y15459312D01*
X25819800Y15573883D01*
X25819798Y15573888D01*
X25760491Y15676610D01*
X25760490Y15676611D01*
X25760489Y15676613D01*
X25676613Y15760489D01*
X25676610Y15760491D01*
X25676609Y15760492D01*
X25573887Y15819799D01*
X25573882Y15819801D01*
X25459311Y15850500D01*
X25459309Y15850500D01*
X25340691Y15850500D01*
X25340689Y15850500D01*
X25226117Y15819801D01*
X25226112Y15819799D01*
X25123390Y15760492D01*
X25039508Y15676610D01*
X24980201Y15573888D01*
X24980199Y15573883D01*
X24949500Y15459312D01*
X500500Y15459312D01*
X500500Y16608540D01*
X2809500Y16608540D01*
X2809500Y16411461D01*
X2847947Y16218171D01*
X2847950Y16218161D01*
X2923367Y16036087D01*
X2923368Y16036086D01*
X3032861Y15872218D01*
X3172218Y15732861D01*
X3336086Y15623368D01*
X3518165Y15547949D01*
X3711459Y15509500D01*
X3711461Y15509500D01*
X3908539Y15509500D01*
X3908541Y15509500D01*
X4101835Y15547949D01*
X4283914Y15623368D01*
X4447782Y15732861D01*
X4587139Y15872218D01*
X4696632Y16036086D01*
X4772051Y16218165D01*
X4810500Y16411459D01*
X4810500Y16608541D01*
X4772051Y16801835D01*
X4696632Y16983914D01*
X4587139Y17147782D01*
X4447782Y17287139D01*
X4316558Y17374820D01*
X5349500Y17374820D01*
X5349500Y15645181D01*
X5358233Y15601278D01*
X5376537Y15573883D01*
X5391496Y15551496D01*
X5441278Y15518233D01*
X5485180Y15509500D01*
X5485181Y15509500D01*
X7214819Y15509500D01*
X7214820Y15509500D01*
X7258722Y15518233D01*
X7308504Y15551496D01*
X7341767Y15601278D01*
X7350500Y15645180D01*
X7350500Y17374820D01*
X7341767Y17418722D01*
X7308504Y17468504D01*
X7303195Y17472051D01*
X7258722Y17501767D01*
X7214820Y17510500D01*
X5485180Y17510500D01*
X5463229Y17506134D01*
X5441277Y17501767D01*
X5391496Y17468505D01*
X5391495Y17468504D01*
X5358233Y17418723D01*
X5349500Y17374820D01*
X4316558Y17374820D01*
X4287409Y17394297D01*
X4283913Y17396633D01*
X4101839Y17472050D01*
X4101829Y17472053D01*
X3952444Y17501767D01*
X3908541Y17510500D01*
X3711459Y17510500D01*
X3667556Y17501767D01*
X3518170Y17472053D01*
X3518160Y17472050D01*
X3336086Y17396633D01*
X3172218Y17287140D01*
X3172217Y17287138D01*
X3032862Y17147783D01*
X3032860Y17147782D01*
X2923367Y16983914D01*
X2847950Y16801840D01*
X2847947Y16801830D01*
X2809500Y16608540D01*
X500500Y16608540D01*
X500500Y19745500D01*
X522174Y19797826D01*
X574500Y19819500D01*
X10191585Y19819500D01*
X10243911Y19797826D01*
G37*
%TD.AperFunction*%
%TD*%
M02*
