%TF.GenerationSoftware,KiCad,Pcbnew,10.0.0*%
%TF.CreationDate,2026-03-24T14:40:18+01:00*%
%TF.ProjectId,6gend-rf-db-1,3667656e-642d-4726-962d-64622d312e6b,1a*%
%TF.SameCoordinates,PX964c900PY623a7c0*%
%TF.FileFunction,Legend,Top*%
%TF.FilePolarity,Positive*%
%FSLAX46Y46*%
G04 Gerber Fmt 4.6, Leading zero omitted, Abs format (unit mm)*
G04 Created by KiCad (PCBNEW 10.0.0) date 2026-03-24 14:40:18*
%MOMM*%
%LPD*%
G01*
G04 APERTURE LIST*
%ADD10C,0.100000*%
%ADD11C,0.130000*%
%ADD12C,0.500000*%
%ADD13C,0.150000*%
%ADD14C,0.120000*%
G04 APERTURE END LIST*
D10*
X47762500Y10400000D02*
X51237500Y10400000D01*
X51237500Y1950000D01*
X47762500Y1950000D01*
X47762500Y10400000D01*
G36*
X47762500Y10400000D02*
G01*
X51237500Y10400000D01*
X51237500Y1950000D01*
X47762500Y1950000D01*
X47762500Y10400000D01*
G37*
D11*
X44253651Y2052193D02*
X44253651Y2452193D01*
X44953651Y2252193D02*
X44253651Y2252193D01*
X44953651Y2685526D02*
X44486984Y2685526D01*
X44253651Y2685526D02*
X44286984Y2652193D01*
X44286984Y2652193D02*
X44320318Y2685526D01*
X44320318Y2685526D02*
X44286984Y2718859D01*
X44286984Y2718859D02*
X44253651Y2685526D01*
X44253651Y2685526D02*
X44320318Y2685526D01*
X44486984Y3018859D02*
X45086984Y3018859D01*
X45086984Y3018859D02*
X45153651Y2985526D01*
X45153651Y2985526D02*
X45186984Y2918859D01*
X45186984Y2918859D02*
X45186984Y2885526D01*
X44253651Y3018859D02*
X44286984Y2985526D01*
X44286984Y2985526D02*
X44320318Y3018859D01*
X44320318Y3018859D02*
X44286984Y3052192D01*
X44286984Y3052192D02*
X44253651Y3018859D01*
X44253651Y3018859D02*
X44320318Y3018859D01*
X44953651Y3452192D02*
X44920318Y3385525D01*
X44920318Y3385525D02*
X44853651Y3352192D01*
X44853651Y3352192D02*
X44253651Y3352192D01*
X44920318Y4218859D02*
X44953651Y4318859D01*
X44953651Y4318859D02*
X44953651Y4485525D01*
X44953651Y4485525D02*
X44920318Y4552192D01*
X44920318Y4552192D02*
X44886984Y4585525D01*
X44886984Y4585525D02*
X44820318Y4618859D01*
X44820318Y4618859D02*
X44753651Y4618859D01*
X44753651Y4618859D02*
X44686984Y4585525D01*
X44686984Y4585525D02*
X44653651Y4552192D01*
X44653651Y4552192D02*
X44620318Y4485525D01*
X44620318Y4485525D02*
X44586984Y4352192D01*
X44586984Y4352192D02*
X44553651Y4285525D01*
X44553651Y4285525D02*
X44520318Y4252192D01*
X44520318Y4252192D02*
X44453651Y4218859D01*
X44453651Y4218859D02*
X44386984Y4218859D01*
X44386984Y4218859D02*
X44320318Y4252192D01*
X44320318Y4252192D02*
X44286984Y4285525D01*
X44286984Y4285525D02*
X44253651Y4352192D01*
X44253651Y4352192D02*
X44253651Y4518859D01*
X44253651Y4518859D02*
X44286984Y4618859D01*
X44920318Y5218859D02*
X44953651Y5152192D01*
X44953651Y5152192D02*
X44953651Y5018859D01*
X44953651Y5018859D02*
X44920318Y4952192D01*
X44920318Y4952192D02*
X44886984Y4918859D01*
X44886984Y4918859D02*
X44820318Y4885526D01*
X44820318Y4885526D02*
X44620318Y4885526D01*
X44620318Y4885526D02*
X44553651Y4918859D01*
X44553651Y4918859D02*
X44520318Y4952192D01*
X44520318Y4952192D02*
X44486984Y5018859D01*
X44486984Y5018859D02*
X44486984Y5152192D01*
X44486984Y5152192D02*
X44520318Y5218859D01*
X44953651Y5518859D02*
X44253651Y5518859D01*
X44953651Y5818859D02*
X44586984Y5818859D01*
X44586984Y5818859D02*
X44520318Y5785526D01*
X44520318Y5785526D02*
X44486984Y5718859D01*
X44486984Y5718859D02*
X44486984Y5618859D01*
X44486984Y5618859D02*
X44520318Y5552192D01*
X44520318Y5552192D02*
X44553651Y5518859D01*
X44920318Y6418859D02*
X44953651Y6352192D01*
X44953651Y6352192D02*
X44953651Y6218859D01*
X44953651Y6218859D02*
X44920318Y6152192D01*
X44920318Y6152192D02*
X44853651Y6118859D01*
X44853651Y6118859D02*
X44586984Y6118859D01*
X44586984Y6118859D02*
X44520318Y6152192D01*
X44520318Y6152192D02*
X44486984Y6218859D01*
X44486984Y6218859D02*
X44486984Y6352192D01*
X44486984Y6352192D02*
X44520318Y6418859D01*
X44520318Y6418859D02*
X44586984Y6452192D01*
X44586984Y6452192D02*
X44653651Y6452192D01*
X44653651Y6452192D02*
X44720318Y6118859D01*
X44486984Y6752192D02*
X45186984Y6752192D01*
X44520318Y6752192D02*
X44486984Y6818859D01*
X44486984Y6818859D02*
X44486984Y6952192D01*
X44486984Y6952192D02*
X44520318Y7018859D01*
X44520318Y7018859D02*
X44553651Y7052192D01*
X44553651Y7052192D02*
X44620318Y7085525D01*
X44620318Y7085525D02*
X44820318Y7085525D01*
X44820318Y7085525D02*
X44886984Y7052192D01*
X44886984Y7052192D02*
X44920318Y7018859D01*
X44920318Y7018859D02*
X44953651Y6952192D01*
X44953651Y6952192D02*
X44953651Y6818859D01*
X44953651Y6818859D02*
X44920318Y6752192D01*
X44920318Y7652192D02*
X44953651Y7585525D01*
X44953651Y7585525D02*
X44953651Y7452192D01*
X44953651Y7452192D02*
X44920318Y7385525D01*
X44920318Y7385525D02*
X44853651Y7352192D01*
X44853651Y7352192D02*
X44586984Y7352192D01*
X44586984Y7352192D02*
X44520318Y7385525D01*
X44520318Y7385525D02*
X44486984Y7452192D01*
X44486984Y7452192D02*
X44486984Y7585525D01*
X44486984Y7585525D02*
X44520318Y7652192D01*
X44520318Y7652192D02*
X44586984Y7685525D01*
X44586984Y7685525D02*
X44653651Y7685525D01*
X44653651Y7685525D02*
X44720318Y7352192D01*
X44486984Y7985525D02*
X44953651Y7985525D01*
X44553651Y7985525D02*
X44520318Y8018858D01*
X44520318Y8018858D02*
X44486984Y8085525D01*
X44486984Y8085525D02*
X44486984Y8185525D01*
X44486984Y8185525D02*
X44520318Y8252192D01*
X44520318Y8252192D02*
X44586984Y8285525D01*
X44586984Y8285525D02*
X44953651Y8285525D01*
X44920318Y8585525D02*
X44953651Y8652191D01*
X44953651Y8652191D02*
X44953651Y8785525D01*
X44953651Y8785525D02*
X44920318Y8852191D01*
X44920318Y8852191D02*
X44853651Y8885525D01*
X44853651Y8885525D02*
X44820318Y8885525D01*
X44820318Y8885525D02*
X44753651Y8852191D01*
X44753651Y8852191D02*
X44720318Y8785525D01*
X44720318Y8785525D02*
X44720318Y8685525D01*
X44720318Y8685525D02*
X44686984Y8618858D01*
X44686984Y8618858D02*
X44620318Y8585525D01*
X44620318Y8585525D02*
X44586984Y8585525D01*
X44586984Y8585525D02*
X44520318Y8618858D01*
X44520318Y8618858D02*
X44486984Y8685525D01*
X44486984Y8685525D02*
X44486984Y8785525D01*
X44486984Y8785525D02*
X44520318Y8852191D01*
X45380612Y2452193D02*
X45380612Y2318860D01*
X45380612Y2318860D02*
X45413945Y2252193D01*
X45413945Y2252193D02*
X45447279Y2218860D01*
X45447279Y2218860D02*
X45547279Y2152193D01*
X45547279Y2152193D02*
X45680612Y2118860D01*
X45680612Y2118860D02*
X45947279Y2118860D01*
X45947279Y2118860D02*
X46013945Y2152193D01*
X46013945Y2152193D02*
X46047279Y2185526D01*
X46047279Y2185526D02*
X46080612Y2252193D01*
X46080612Y2252193D02*
X46080612Y2385526D01*
X46080612Y2385526D02*
X46047279Y2452193D01*
X46047279Y2452193D02*
X46013945Y2485526D01*
X46013945Y2485526D02*
X45947279Y2518860D01*
X45947279Y2518860D02*
X45780612Y2518860D01*
X45780612Y2518860D02*
X45713945Y2485526D01*
X45713945Y2485526D02*
X45680612Y2452193D01*
X45680612Y2452193D02*
X45647279Y2385526D01*
X45647279Y2385526D02*
X45647279Y2252193D01*
X45647279Y2252193D02*
X45680612Y2185526D01*
X45680612Y2185526D02*
X45713945Y2152193D01*
X45713945Y2152193D02*
X45780612Y2118860D01*
X45613945Y3118860D02*
X46180612Y3118860D01*
X46180612Y3118860D02*
X46247279Y3085527D01*
X46247279Y3085527D02*
X46280612Y3052193D01*
X46280612Y3052193D02*
X46313945Y2985527D01*
X46313945Y2985527D02*
X46313945Y2885527D01*
X46313945Y2885527D02*
X46280612Y2818860D01*
X46047279Y3118860D02*
X46080612Y3052193D01*
X46080612Y3052193D02*
X46080612Y2918860D01*
X46080612Y2918860D02*
X46047279Y2852193D01*
X46047279Y2852193D02*
X46013945Y2818860D01*
X46013945Y2818860D02*
X45947279Y2785527D01*
X45947279Y2785527D02*
X45747279Y2785527D01*
X45747279Y2785527D02*
X45680612Y2818860D01*
X45680612Y2818860D02*
X45647279Y2852193D01*
X45647279Y2852193D02*
X45613945Y2918860D01*
X45613945Y2918860D02*
X45613945Y3052193D01*
X45613945Y3052193D02*
X45647279Y3118860D01*
X46047279Y3718860D02*
X46080612Y3652193D01*
X46080612Y3652193D02*
X46080612Y3518860D01*
X46080612Y3518860D02*
X46047279Y3452193D01*
X46047279Y3452193D02*
X45980612Y3418860D01*
X45980612Y3418860D02*
X45713945Y3418860D01*
X45713945Y3418860D02*
X45647279Y3452193D01*
X45647279Y3452193D02*
X45613945Y3518860D01*
X45613945Y3518860D02*
X45613945Y3652193D01*
X45613945Y3652193D02*
X45647279Y3718860D01*
X45647279Y3718860D02*
X45713945Y3752193D01*
X45713945Y3752193D02*
X45780612Y3752193D01*
X45780612Y3752193D02*
X45847279Y3418860D01*
X45613945Y4052193D02*
X46080612Y4052193D01*
X45680612Y4052193D02*
X45647279Y4085526D01*
X45647279Y4085526D02*
X45613945Y4152193D01*
X45613945Y4152193D02*
X45613945Y4252193D01*
X45613945Y4252193D02*
X45647279Y4318860D01*
X45647279Y4318860D02*
X45713945Y4352193D01*
X45713945Y4352193D02*
X46080612Y4352193D01*
X46080612Y4985526D02*
X45380612Y4985526D01*
X46047279Y4985526D02*
X46080612Y4918859D01*
X46080612Y4918859D02*
X46080612Y4785526D01*
X46080612Y4785526D02*
X46047279Y4718859D01*
X46047279Y4718859D02*
X46013945Y4685526D01*
X46013945Y4685526D02*
X45947279Y4652193D01*
X45947279Y4652193D02*
X45747279Y4652193D01*
X45747279Y4652193D02*
X45680612Y4685526D01*
X45680612Y4685526D02*
X45647279Y4718859D01*
X45647279Y4718859D02*
X45613945Y4785526D01*
X45613945Y4785526D02*
X45613945Y4918859D01*
X45613945Y4918859D02*
X45647279Y4985526D01*
X45813945Y5318859D02*
X45813945Y5852192D01*
X46080612Y6185526D02*
X45613945Y6185526D01*
X45747279Y6185526D02*
X45680612Y6218859D01*
X45680612Y6218859D02*
X45647279Y6252193D01*
X45647279Y6252193D02*
X45613945Y6318859D01*
X45613945Y6318859D02*
X45613945Y6385526D01*
X45613945Y6518859D02*
X45613945Y6785526D01*
X46080612Y6618859D02*
X45480612Y6618859D01*
X45480612Y6618859D02*
X45413945Y6652192D01*
X45413945Y6652192D02*
X45380612Y6718859D01*
X45380612Y6718859D02*
X45380612Y6785526D01*
X45813945Y7018859D02*
X45813945Y7552192D01*
X46080612Y8185526D02*
X45380612Y8185526D01*
X46047279Y8185526D02*
X46080612Y8118859D01*
X46080612Y8118859D02*
X46080612Y7985526D01*
X46080612Y7985526D02*
X46047279Y7918859D01*
X46047279Y7918859D02*
X46013945Y7885526D01*
X46013945Y7885526D02*
X45947279Y7852193D01*
X45947279Y7852193D02*
X45747279Y7852193D01*
X45747279Y7852193D02*
X45680612Y7885526D01*
X45680612Y7885526D02*
X45647279Y7918859D01*
X45647279Y7918859D02*
X45613945Y7985526D01*
X45613945Y7985526D02*
X45613945Y8118859D01*
X45613945Y8118859D02*
X45647279Y8185526D01*
X46080612Y8518859D02*
X45380612Y8518859D01*
X45647279Y8518859D02*
X45613945Y8585526D01*
X45613945Y8585526D02*
X45613945Y8718859D01*
X45613945Y8718859D02*
X45647279Y8785526D01*
X45647279Y8785526D02*
X45680612Y8818859D01*
X45680612Y8818859D02*
X45747279Y8852192D01*
X45747279Y8852192D02*
X45947279Y8852192D01*
X45947279Y8852192D02*
X46013945Y8818859D01*
X46013945Y8818859D02*
X46047279Y8785526D01*
X46047279Y8785526D02*
X46080612Y8718859D01*
X46080612Y8718859D02*
X46080612Y8585526D01*
X46080612Y8585526D02*
X46047279Y8518859D01*
X45813945Y9152192D02*
X45813945Y9685525D01*
X46080612Y10385526D02*
X46080612Y9985526D01*
X46080612Y10185526D02*
X45380612Y10185526D01*
X45380612Y10185526D02*
X45480612Y10118859D01*
X45480612Y10118859D02*
X45547279Y10052192D01*
X45547279Y10052192D02*
X45580612Y9985526D01*
X46574240Y2118860D02*
X46540906Y2152193D01*
X46540906Y2152193D02*
X46507573Y2218860D01*
X46507573Y2218860D02*
X46507573Y2385526D01*
X46507573Y2385526D02*
X46540906Y2452193D01*
X46540906Y2452193D02*
X46574240Y2485526D01*
X46574240Y2485526D02*
X46640906Y2518860D01*
X46640906Y2518860D02*
X46707573Y2518860D01*
X46707573Y2518860D02*
X46807573Y2485526D01*
X46807573Y2485526D02*
X47207573Y2085526D01*
X47207573Y2085526D02*
X47207573Y2518860D01*
X46507573Y2952193D02*
X46507573Y3018860D01*
X46507573Y3018860D02*
X46540906Y3085527D01*
X46540906Y3085527D02*
X46574240Y3118860D01*
X46574240Y3118860D02*
X46640906Y3152193D01*
X46640906Y3152193D02*
X46774240Y3185527D01*
X46774240Y3185527D02*
X46940906Y3185527D01*
X46940906Y3185527D02*
X47074240Y3152193D01*
X47074240Y3152193D02*
X47140906Y3118860D01*
X47140906Y3118860D02*
X47174240Y3085527D01*
X47174240Y3085527D02*
X47207573Y3018860D01*
X47207573Y3018860D02*
X47207573Y2952193D01*
X47207573Y2952193D02*
X47174240Y2885527D01*
X47174240Y2885527D02*
X47140906Y2852193D01*
X47140906Y2852193D02*
X47074240Y2818860D01*
X47074240Y2818860D02*
X46940906Y2785527D01*
X46940906Y2785527D02*
X46774240Y2785527D01*
X46774240Y2785527D02*
X46640906Y2818860D01*
X46640906Y2818860D02*
X46574240Y2852193D01*
X46574240Y2852193D02*
X46540906Y2885527D01*
X46540906Y2885527D02*
X46507573Y2952193D01*
X46574240Y3452194D02*
X46540906Y3485527D01*
X46540906Y3485527D02*
X46507573Y3552194D01*
X46507573Y3552194D02*
X46507573Y3718860D01*
X46507573Y3718860D02*
X46540906Y3785527D01*
X46540906Y3785527D02*
X46574240Y3818860D01*
X46574240Y3818860D02*
X46640906Y3852194D01*
X46640906Y3852194D02*
X46707573Y3852194D01*
X46707573Y3852194D02*
X46807573Y3818860D01*
X46807573Y3818860D02*
X47207573Y3418860D01*
X47207573Y3418860D02*
X47207573Y3852194D01*
X46507573Y4452194D02*
X46507573Y4318861D01*
X46507573Y4318861D02*
X46540906Y4252194D01*
X46540906Y4252194D02*
X46574240Y4218861D01*
X46574240Y4218861D02*
X46674240Y4152194D01*
X46674240Y4152194D02*
X46807573Y4118861D01*
X46807573Y4118861D02*
X47074240Y4118861D01*
X47074240Y4118861D02*
X47140906Y4152194D01*
X47140906Y4152194D02*
X47174240Y4185527D01*
X47174240Y4185527D02*
X47207573Y4252194D01*
X47207573Y4252194D02*
X47207573Y4385527D01*
X47207573Y4385527D02*
X47174240Y4452194D01*
X47174240Y4452194D02*
X47140906Y4485527D01*
X47140906Y4485527D02*
X47074240Y4518861D01*
X47074240Y4518861D02*
X46907573Y4518861D01*
X46907573Y4518861D02*
X46840906Y4485527D01*
X46840906Y4485527D02*
X46807573Y4452194D01*
X46807573Y4452194D02*
X46774240Y4385527D01*
X46774240Y4385527D02*
X46774240Y4252194D01*
X46774240Y4252194D02*
X46807573Y4185527D01*
X46807573Y4185527D02*
X46840906Y4152194D01*
X46840906Y4152194D02*
X46907573Y4118861D01*
X46940906Y4818861D02*
X46940906Y5352194D01*
X46507573Y5818861D02*
X46507573Y5885528D01*
X46507573Y5885528D02*
X46540906Y5952195D01*
X46540906Y5952195D02*
X46574240Y5985528D01*
X46574240Y5985528D02*
X46640906Y6018861D01*
X46640906Y6018861D02*
X46774240Y6052195D01*
X46774240Y6052195D02*
X46940906Y6052195D01*
X46940906Y6052195D02*
X47074240Y6018861D01*
X47074240Y6018861D02*
X47140906Y5985528D01*
X47140906Y5985528D02*
X47174240Y5952195D01*
X47174240Y5952195D02*
X47207573Y5885528D01*
X47207573Y5885528D02*
X47207573Y5818861D01*
X47207573Y5818861D02*
X47174240Y5752195D01*
X47174240Y5752195D02*
X47140906Y5718861D01*
X47140906Y5718861D02*
X47074240Y5685528D01*
X47074240Y5685528D02*
X46940906Y5652195D01*
X46940906Y5652195D02*
X46774240Y5652195D01*
X46774240Y5652195D02*
X46640906Y5685528D01*
X46640906Y5685528D02*
X46574240Y5718861D01*
X46574240Y5718861D02*
X46540906Y5752195D01*
X46540906Y5752195D02*
X46507573Y5818861D01*
X46507573Y6285528D02*
X46507573Y6718862D01*
X46507573Y6718862D02*
X46774240Y6485528D01*
X46774240Y6485528D02*
X46774240Y6585528D01*
X46774240Y6585528D02*
X46807573Y6652195D01*
X46807573Y6652195D02*
X46840906Y6685528D01*
X46840906Y6685528D02*
X46907573Y6718862D01*
X46907573Y6718862D02*
X47074240Y6718862D01*
X47074240Y6718862D02*
X47140906Y6685528D01*
X47140906Y6685528D02*
X47174240Y6652195D01*
X47174240Y6652195D02*
X47207573Y6585528D01*
X47207573Y6585528D02*
X47207573Y6385528D01*
X47207573Y6385528D02*
X47174240Y6318862D01*
X47174240Y6318862D02*
X47140906Y6285528D01*
X46940906Y7018862D02*
X46940906Y7552195D01*
X46574240Y7852196D02*
X46540906Y7885529D01*
X46540906Y7885529D02*
X46507573Y7952196D01*
X46507573Y7952196D02*
X46507573Y8118862D01*
X46507573Y8118862D02*
X46540906Y8185529D01*
X46540906Y8185529D02*
X46574240Y8218862D01*
X46574240Y8218862D02*
X46640906Y8252196D01*
X46640906Y8252196D02*
X46707573Y8252196D01*
X46707573Y8252196D02*
X46807573Y8218862D01*
X46807573Y8218862D02*
X47207573Y7818862D01*
X47207573Y7818862D02*
X47207573Y8252196D01*
X46740906Y8852196D02*
X47207573Y8852196D01*
X46474240Y8685529D02*
X46974240Y8518863D01*
X46974240Y8518863D02*
X46974240Y8952196D01*
D10*
G36*
X33644780Y4180313D02*
G01*
X33690942Y4166940D01*
X33735088Y4146424D01*
X33735088Y4145325D01*
X33736004Y4145325D01*
X33827412Y4067980D01*
X33882916Y3963975D01*
X33893175Y3918729D01*
X33898304Y3871651D01*
X33898304Y3869086D01*
X33898304Y3866522D01*
X33898304Y1343005D01*
X33876343Y1223190D01*
X33810193Y1119522D01*
X33775205Y1086733D01*
X33735272Y1059988D01*
X33735272Y1059072D01*
X33734173Y1059072D01*
X33625587Y1019106D01*
X33507576Y1022070D01*
X33463429Y1035442D01*
X33420382Y1054859D01*
X33415252Y1056874D01*
X33413237Y1057973D01*
X33413237Y1059072D01*
X32104632Y1814332D01*
X32468018Y1814332D01*
X33449324Y1250315D01*
X33452438Y1248300D01*
X33475886Y1238041D01*
X33500799Y1230897D01*
X33565259Y1229136D01*
X33623164Y1250315D01*
X33623164Y1251414D01*
X33644963Y1265702D01*
X33664380Y1283104D01*
X33699043Y1338311D01*
X33710725Y1404188D01*
X33710725Y3803141D01*
X33709626Y3804057D01*
X33708710Y3829702D01*
X33702482Y3854249D01*
X33679767Y3900410D01*
X33104576Y2911593D01*
X33143593Y2864516D01*
X33191221Y2912509D01*
X33197449Y2917455D01*
X33256250Y2938521D01*
X33310106Y2928080D01*
X33325676Y2919837D01*
X33346311Y2890091D01*
X33354619Y2834657D01*
X33354619Y2824032D01*
X33354619Y2814324D01*
X33412138Y2816339D01*
X33433937Y2809194D01*
X33453354Y2796555D01*
X33459583Y2791426D01*
X33482236Y2757489D01*
X33487426Y2712291D01*
X33480536Y2672414D01*
X33459583Y2636271D01*
X33519483Y2579667D01*
X33542564Y2542848D01*
X33555204Y2500533D01*
X33555204Y2451623D01*
X33545381Y2414622D01*
X33528276Y2389707D01*
X33473490Y2354024D01*
X33388142Y2340615D01*
X33382096Y2340615D01*
X33375685Y2340615D01*
X33308274Y2348491D01*
X33282629Y2314420D01*
X33266142Y2286759D01*
X33420931Y2317167D01*
X33477097Y2304180D01*
X33525528Y2263678D01*
X33550075Y2222645D01*
X33558318Y2174285D01*
X33548104Y2130309D01*
X33516186Y2092220D01*
X33473390Y2065397D01*
X33387042Y2031770D01*
X33368541Y2025541D01*
X33301496Y1998980D01*
X33215767Y1966007D01*
X33104392Y1946590D01*
X32989904Y1927173D01*
X32988988Y1927173D01*
X32985874Y1926073D01*
X32943375Y1914899D01*
X32837828Y1894223D01*
X32784556Y1897314D01*
X32694797Y1933218D01*
X32617744Y1964651D01*
X32562723Y1977364D01*
X32468018Y1814332D01*
X32104632Y1814332D01*
X31226409Y2321197D01*
X31167507Y2363141D01*
X31120713Y2416635D01*
X31120713Y2415536D01*
X31105326Y2439167D01*
X31072251Y2517253D01*
X31061179Y2602199D01*
X31061313Y2602931D01*
X31272205Y2602931D01*
X31278312Y2557955D01*
X31296934Y2514638D01*
X31304078Y2503280D01*
X31304078Y2502181D01*
X31361781Y2451806D01*
X31362697Y2450890D01*
X32346568Y1884125D01*
X32426380Y2021511D01*
X32587452Y2021511D01*
X32714031Y1975349D01*
X32796463Y1942560D01*
X32840175Y1940832D01*
X32930186Y1959962D01*
X32974516Y1972235D01*
X32977630Y1972235D01*
X33097065Y1992752D01*
X33201113Y2010154D01*
X33281346Y2042028D01*
X33333920Y2062544D01*
X33331905Y2069688D01*
X33328790Y2094235D01*
X33354619Y2094235D01*
X33356634Y2075733D01*
X33358649Y2070604D01*
X33372021Y2075733D01*
X33485411Y2127024D01*
X33506607Y2151718D01*
X33513072Y2177399D01*
X33509958Y2199931D01*
X33496219Y2199931D01*
X33478633Y2199931D01*
X33460315Y2199015D01*
X33424595Y2181796D01*
X33415985Y2175567D01*
X33404262Y2169339D01*
X33366254Y2134712D01*
X33354619Y2094235D01*
X33328790Y2094235D01*
X33343506Y2145708D01*
X33391439Y2189489D01*
X33409024Y2201579D01*
X33452255Y2222096D01*
X33478084Y2224111D01*
X33498600Y2223012D01*
X33490357Y2233087D01*
X33457076Y2261929D01*
X33419466Y2273753D01*
X33418550Y2273753D01*
X33263944Y2238033D01*
X33233169Y2228873D01*
X33206425Y2221729D01*
X33193602Y2219531D01*
X33180779Y2218615D01*
X33079663Y2225759D01*
X33002360Y2208357D01*
X32925093Y2188210D01*
X32884024Y2187108D01*
X32808920Y2224843D01*
X32759525Y2251688D01*
X32726488Y2259465D01*
X32587452Y2021511D01*
X32426380Y2021511D01*
X32453729Y2068589D01*
X32399874Y2127207D01*
X32351331Y2197000D01*
X32340157Y2214952D01*
X32326967Y2237117D01*
X32291430Y2295552D01*
X32221051Y2404753D01*
X32181887Y2491740D01*
X32159453Y2589144D01*
X32151479Y2704414D01*
X32151479Y2735738D01*
X32151479Y2767979D01*
X32151479Y2899503D01*
X32145625Y2964758D01*
X32128398Y3024983D01*
X32074176Y3165667D01*
X31358667Y2753873D01*
X31358667Y2752774D01*
X31337051Y2738486D01*
X31318550Y2721084D01*
X31283748Y2666157D01*
X31272205Y2602931D01*
X31061313Y2602931D01*
X31082713Y2720077D01*
X31147458Y2821651D01*
X31182445Y2853341D01*
X31221463Y2881185D01*
X31755426Y3188931D01*
X32117407Y3188931D01*
X32177857Y3042569D01*
X32198568Y2976291D01*
X32205518Y2906098D01*
X32198374Y2765780D01*
X32198374Y2703132D01*
X32205758Y2592736D01*
X32225668Y2507677D01*
X32261771Y2426652D01*
X32328250Y2323579D01*
X32367817Y2260930D01*
X32389982Y2222828D01*
X32436693Y2155967D01*
X32477360Y2109622D01*
X32589481Y2303062D01*
X32752316Y2303062D01*
X32835664Y2262029D01*
X32892267Y2232171D01*
X32986973Y2251771D01*
X33057727Y2269808D01*
X33089921Y2270273D01*
X33177482Y2264044D01*
X33185725Y2264960D01*
X33191953Y2266059D01*
X33201296Y2282546D01*
X33208440Y2292804D01*
X33221812Y2308191D01*
X33242512Y2337500D01*
X33258815Y2364062D01*
X33175467Y2417002D01*
X33093035Y2367726D01*
X33072519Y2357467D01*
X33050903Y2349591D01*
X33049987Y2349591D01*
X32973600Y2340615D01*
X32936231Y2340615D01*
X32898496Y2340615D01*
X32838778Y2346843D01*
X32792433Y2370290D01*
X32752316Y2303062D01*
X32589481Y2303062D01*
X32652762Y2412239D01*
X32816430Y2412239D01*
X32851235Y2392822D01*
X32898496Y2387509D01*
X32972684Y2387509D01*
X33038447Y2395386D01*
X33055849Y2401248D01*
X33074534Y2409125D01*
X33136266Y2445578D01*
X33127473Y2453272D01*
X33117765Y2461881D01*
X33043576Y2536436D01*
X32986973Y2505662D01*
X32976714Y2500533D01*
X32921027Y2487160D01*
X32863508Y2496503D01*
X32816430Y2412239D01*
X32652762Y2412239D01*
X32726023Y2538634D01*
X32887138Y2538634D01*
X32920111Y2534604D01*
X32957297Y2542848D01*
X32967555Y2546878D01*
X33012618Y2572523D01*
X32953084Y2651658D01*
X32887138Y2538634D01*
X32726023Y2538634D01*
X32817122Y2695805D01*
X32978729Y2695805D01*
X33052552Y2596886D01*
X33149822Y2493938D01*
X33231298Y2431176D01*
X33303406Y2397792D01*
X33369091Y2387509D01*
X33346376Y2400882D01*
X33309190Y2464079D01*
X33303145Y2479650D01*
X33302229Y2486794D01*
X33300031Y2495220D01*
X33298016Y2504563D01*
X33293260Y2591025D01*
X33316517Y2591025D01*
X33316517Y2517019D01*
X33320914Y2500349D01*
X33323112Y2493205D01*
X33324211Y2486061D01*
X33326775Y2479283D01*
X33328241Y2472506D01*
X33361397Y2418833D01*
X33407192Y2399233D01*
X33430090Y2399233D01*
X33467636Y2405619D01*
X33493471Y2423230D01*
X33507943Y2457485D01*
X33507943Y2495404D01*
X33507943Y2496503D01*
X33500799Y2523064D01*
X33483213Y2552007D01*
X33416352Y2610442D01*
X33338133Y2651475D01*
X33316517Y2591025D01*
X33293260Y2591025D01*
X33292887Y2597802D01*
X33298565Y2621066D01*
X33310289Y2656787D01*
X33289773Y2663015D01*
X33247641Y2681333D01*
X33223039Y2701117D01*
X33326226Y2701117D01*
X33346742Y2695988D01*
X33421664Y2663198D01*
X33421664Y2664114D01*
X33441081Y2715405D01*
X33427709Y2757537D01*
X33424595Y2759552D01*
X33413421Y2766696D01*
X33402063Y2770726D01*
X33374435Y2771207D01*
X33346742Y2757537D01*
X33339598Y2733907D01*
X33326226Y2701117D01*
X33223039Y2701117D01*
X33168140Y2745264D01*
X33131137Y2798936D01*
X33114329Y2822384D01*
X33171803Y2822384D01*
X33205692Y2773108D01*
X33268157Y2723648D01*
X33274385Y2719985D01*
X33280614Y2717420D01*
X33294902Y2748195D01*
X33308274Y2833741D01*
X33296001Y2881918D01*
X33293803Y2883017D01*
X33253869Y2892176D01*
X33228224Y2883933D01*
X33225293Y2879720D01*
X33222178Y2877888D01*
X33171803Y2822384D01*
X33114329Y2822384D01*
X33079663Y2870744D01*
X32978729Y2695805D01*
X32817122Y2695805D01*
X33003459Y3017289D01*
X32961979Y3101345D01*
X32862409Y3216775D01*
X32829436Y3247549D01*
X32800676Y3270081D01*
X32720259Y3306900D01*
X32632698Y3343903D01*
X32561807Y3397026D01*
X32533963Y3428716D01*
X32118323Y3188931D01*
X32117407Y3188931D01*
X31755426Y3188931D01*
X32214062Y3453263D01*
X32575179Y3453263D01*
X32575179Y3452347D01*
X32594596Y3429816D01*
X32656512Y3383837D01*
X32657611Y3383837D01*
X32735830Y3349948D01*
X32827421Y3307999D01*
X32859295Y3283270D01*
X32895382Y3249748D01*
X32983033Y3150089D01*
X33033318Y3068397D01*
X33561432Y3976065D01*
X33534687Y3976065D01*
X33520216Y3976065D01*
X33519300Y3976981D01*
X33446027Y3952434D01*
X33444928Y3952434D01*
X32575179Y3453263D01*
X32214062Y3453263D01*
X33409757Y4142394D01*
X33523319Y4184654D01*
X33644780Y4180313D01*
G37*
G36*
X33112461Y6231997D02*
G01*
X33138336Y6205999D01*
X33147990Y6159046D01*
X33138390Y6112822D01*
X33112565Y6087120D01*
X33065924Y6077530D01*
X33019284Y6087120D01*
X32993458Y6112822D01*
X32984277Y6157031D01*
X33048522Y6157031D01*
X33060978Y6144758D01*
X33074167Y6157031D01*
X33060978Y6170404D01*
X33048522Y6157031D01*
X32984277Y6157031D01*
X32983859Y6159046D01*
X32993512Y6205999D01*
X33019388Y6231997D01*
X33065924Y6241661D01*
X33112461Y6231997D01*
G37*
G36*
X31369474Y6506726D02*
G01*
X31369474Y6558200D01*
X31647362Y6558200D01*
X31647362Y6361279D01*
X32086632Y6324460D01*
X32690584Y6270055D01*
X33385577Y6942699D01*
X33436868Y6890492D01*
X32790601Y6265841D01*
X32829436Y6260712D01*
X32844274Y6290021D01*
X32866256Y6320246D01*
X32893550Y6349189D01*
X32923958Y6370255D01*
X32959862Y6389306D01*
X32992285Y6400297D01*
X33027822Y6407441D01*
X33072152Y6410372D01*
X33105858Y6406342D01*
X33148539Y6395168D01*
X33194152Y6373919D01*
X33234818Y6344610D01*
X33262479Y6314934D01*
X33285376Y6278481D01*
X33302229Y6235983D01*
X33312121Y6198247D01*
X33312121Y6143293D01*
X33306442Y6094383D01*
X33289590Y6041993D01*
X33260280Y5995098D01*
X33224193Y5959194D01*
X33192869Y5936846D01*
X33159713Y5919261D01*
X33159713Y5432729D01*
X33324394Y5432729D01*
X33324394Y5268598D01*
X33159713Y5268598D01*
X33159713Y5247532D01*
X32707437Y5205217D01*
X33437784Y4491356D01*
X33387409Y4439149D01*
X32610167Y5200088D01*
X32262487Y5164184D01*
X31782184Y5119121D01*
X31583797Y5099521D01*
X30845757Y4388957D01*
X30795565Y4441164D01*
X31470225Y5091278D01*
X31307376Y5073692D01*
X31307376Y4961768D01*
X31178415Y4961768D01*
X31178415Y5062518D01*
X31148557Y5059404D01*
X31131704Y5066548D01*
X31116866Y5078821D01*
X31102028Y5094208D01*
X31080596Y5116923D01*
X31062644Y5143668D01*
X31042494Y5173343D01*
X31029672Y5201187D01*
X31020146Y5221703D01*
X31102028Y5221703D01*
X31124010Y5182869D01*
X31143794Y5155941D01*
X31164677Y5134325D01*
X31178415Y5136524D01*
X31178415Y5146782D01*
X31307376Y5146782D01*
X31551008Y5169496D01*
X31561124Y5179388D01*
X31663665Y5179388D01*
X32544588Y5262553D01*
X32149830Y5652548D01*
X31663665Y5179388D01*
X31561124Y5179388D01*
X32092007Y5698526D01*
X32200938Y5698526D01*
X32639842Y5271712D01*
X33089371Y5313661D01*
X33089371Y5342970D01*
X33151837Y5342970D01*
X33253319Y5342970D01*
X33253319Y5359273D01*
X33151837Y5359273D01*
X33151837Y5342970D01*
X33089371Y5342970D01*
X33089371Y5902408D01*
X33049255Y5899477D01*
X32991369Y5911567D01*
X32939712Y5932816D01*
X32898496Y5960294D01*
X32868087Y5990702D01*
X32843724Y6025323D01*
X32820643Y6068921D01*
X32808004Y6113617D01*
X32808004Y6151719D01*
X32808004Y6156298D01*
X32936964Y6156298D01*
X32951495Y6084802D01*
X32990279Y6045402D01*
X33059696Y6030819D01*
X33129597Y6045439D01*
X33168579Y6084872D01*
X33183161Y6156298D01*
X33168526Y6228454D01*
X33129495Y6268183D01*
X33059696Y6282877D01*
X32990380Y6268220D01*
X32951548Y6228525D01*
X32936964Y6156298D01*
X32808004Y6156298D01*
X32808004Y6187806D01*
X32718794Y6196049D01*
X32200938Y5698526D01*
X32092007Y5698526D01*
X32097440Y5703839D01*
X31846297Y5938129D01*
X31846297Y5573413D01*
X31679052Y5573413D01*
X31679052Y5651632D01*
X31752325Y5651632D01*
X31775956Y5651632D01*
X31775956Y6027888D01*
X31752325Y6027888D01*
X31752325Y5651632D01*
X31679052Y5651632D01*
X31679052Y6100977D01*
X31502648Y6279946D01*
X31604680Y6279946D01*
X31785847Y6100977D01*
X31846297Y6100977D01*
X31846297Y6046756D01*
X32149830Y5752565D01*
X32622440Y6204659D01*
X31648827Y6288006D01*
X31648827Y6279946D01*
X31604680Y6279946D01*
X31502648Y6279946D01*
X31369474Y6279946D01*
X31369474Y6311087D01*
X31307376Y6317132D01*
X31307376Y5146782D01*
X31178415Y5146782D01*
X31178415Y5221703D01*
X31102028Y5221703D01*
X31020146Y5221703D01*
X30938080Y5221703D01*
X30938080Y5293877D01*
X31008422Y5293877D01*
X31103860Y5294793D01*
X31103860Y5322453D01*
X31008422Y5322453D01*
X31008422Y5293877D01*
X30938080Y5293877D01*
X30938080Y5397558D01*
X30972336Y5397558D01*
X30963176Y5450131D01*
X30956032Y5504170D01*
X30951086Y5554179D01*
X30950170Y5585137D01*
X31026374Y5585137D01*
X31032602Y5515527D01*
X31040113Y5453978D01*
X31050737Y5397558D01*
X31178415Y5397558D01*
X31178415Y6327207D01*
X31159181Y6327207D01*
X31132803Y6298265D01*
X31107158Y6256865D01*
X31084993Y6207040D01*
X31065758Y6144025D01*
X31047807Y6068554D01*
X31034801Y5983741D01*
X31084626Y5983741D01*
X31084626Y5585137D01*
X31026374Y5585137D01*
X30950170Y5585137D01*
X30897048Y5585137D01*
X30897048Y5667202D01*
X30967390Y5667202D01*
X31008422Y5667202D01*
X31008422Y5914315D01*
X30967390Y5914315D01*
X30967390Y5667202D01*
X30897048Y5667202D01*
X30897048Y5983741D01*
X30958047Y5983741D01*
X30965191Y6033933D01*
X30975633Y6094932D01*
X30988089Y6153368D01*
X31005675Y6211619D01*
X31026374Y6265475D01*
X31045975Y6304493D01*
X31065758Y6336183D01*
X31079436Y6350288D01*
X31439633Y6350288D01*
X31577020Y6350288D01*
X31577020Y6487858D01*
X31439633Y6487858D01*
X31439633Y6350288D01*
X31079436Y6350288D01*
X31083344Y6354318D01*
X31070887Y6364577D01*
X31058614Y6386192D01*
X31047074Y6410555D01*
X31043244Y6438582D01*
X31113935Y6438582D01*
X31123448Y6412547D01*
X31153503Y6403411D01*
X31183403Y6412533D01*
X31192887Y6438582D01*
X31183403Y6464631D01*
X31153503Y6473753D01*
X31123448Y6464617D01*
X31113935Y6438582D01*
X31043244Y6438582D01*
X31043044Y6440048D01*
X31048173Y6468807D01*
X31060629Y6496285D01*
X31080230Y6516801D01*
X31108257Y6535119D01*
X31124926Y6542263D01*
X31150755Y6545377D01*
X31172554Y6543362D01*
X31190505Y6538416D01*
X31208274Y6531455D01*
X31224028Y6519732D01*
X31237583Y6506726D01*
X31244911Y6494819D01*
X31254253Y6483828D01*
X31289973Y6483828D01*
X30793550Y6967429D01*
X30843925Y7019636D01*
X31369474Y6506726D01*
G37*
G36*
X34590000Y6470639D02*
G01*
X34590000Y5684238D01*
X34590000Y4898387D01*
X34590000Y4541731D01*
X34500240Y4541731D01*
X34302770Y4541731D01*
X34105300Y4541731D01*
X34015540Y4541731D01*
X34015540Y4898387D01*
X34015540Y5684238D01*
X34015540Y6470639D01*
X34015540Y6827844D01*
X34105300Y6827844D01*
X34302770Y6827844D01*
X34500240Y6827844D01*
X34590000Y6827844D01*
X34590000Y6470639D01*
G37*
D12*
G36*
X30965964Y19121204D02*
G01*
X31062843Y19079379D01*
X31146198Y19014465D01*
X31211343Y18931368D01*
X31253262Y18834722D01*
X31267397Y18727425D01*
X31253651Y18619926D01*
X31212808Y18522139D01*
X31148398Y18438068D01*
X31064309Y18372663D01*
X30966194Y18330891D01*
X30858412Y18316853D01*
X30750649Y18330894D01*
X30652637Y18372663D01*
X30568194Y18438024D01*
X30502794Y18522139D01*
X30460831Y18620012D01*
X30446741Y18727425D01*
X30491559Y18727425D01*
X30503901Y18630791D01*
X30540530Y18543144D01*
X30598267Y18468097D01*
X30673642Y18410398D01*
X30761254Y18373830D01*
X30857069Y18361550D01*
X30952798Y18374175D01*
X31040495Y18411864D01*
X31115853Y18470613D01*
X31173607Y18545953D01*
X31210315Y18633133D01*
X31222578Y18727425D01*
X31210315Y18821718D01*
X31173607Y18908898D01*
X31115781Y18984035D01*
X31040495Y19041644D01*
X30953074Y19078351D01*
X30858534Y19090615D01*
X30778903Y19080294D01*
X30849377Y19071391D01*
X30915443Y19044086D01*
X30971910Y19000991D01*
X31015094Y18944435D01*
X31042302Y18878481D01*
X31051486Y18805583D01*
X31042393Y18734138D01*
X31015651Y18670798D01*
X30970153Y18613364D01*
X30911909Y18568623D01*
X30848051Y18542310D01*
X30776468Y18533375D01*
X30704890Y18542312D01*
X30641075Y18568627D01*
X30582906Y18613364D01*
X30537335Y18670806D01*
X30510555Y18734146D01*
X30501727Y18803415D01*
X30491559Y18727425D01*
X30446741Y18727425D01*
X30456990Y18805583D01*
X30543461Y18805583D01*
X30551152Y18744744D01*
X30573798Y18690604D01*
X30612337Y18641330D01*
X30661603Y18602864D01*
X30715743Y18580256D01*
X30776591Y18572576D01*
X30837358Y18580252D01*
X30891459Y18602857D01*
X30940722Y18641330D01*
X30979188Y18690595D01*
X31001796Y18744735D01*
X31009476Y18805583D01*
X31001796Y18866431D01*
X30979188Y18920571D01*
X30940722Y18969837D01*
X30891459Y19008309D01*
X30837358Y19030914D01*
X30776591Y19038591D01*
X30751453Y19035419D01*
X30790392Y19027914D01*
X30848154Y18987666D01*
X30887004Y18928565D01*
X30900055Y18857729D01*
X30886970Y18787207D01*
X30848154Y18729135D01*
X30790508Y18690033D01*
X30720415Y18676867D01*
X30650321Y18690033D01*
X30592676Y18729135D01*
X30553764Y18787217D01*
X30546248Y18827634D01*
X30543461Y18805583D01*
X30456990Y18805583D01*
X30460838Y18834926D01*
X30470569Y18857607D01*
X30577166Y18857607D01*
X30587682Y18802418D01*
X30619298Y18755636D01*
X30665728Y18723818D01*
X30720415Y18713259D01*
X30775101Y18723818D01*
X30821531Y18755636D01*
X30853153Y18802401D01*
X30863663Y18857485D01*
X30853190Y18912903D01*
X30821531Y18960800D01*
X30774987Y18993767D01*
X30720415Y19004641D01*
X30665842Y18993767D01*
X30619298Y18960800D01*
X30587634Y18912920D01*
X30577166Y18857607D01*
X30470569Y18857607D01*
X30502794Y18932712D01*
X30568266Y19016623D01*
X30652637Y19080845D01*
X30750570Y19121587D01*
X30858412Y19135311D01*
X30965964Y19121204D01*
G37*
G36*
X31037710Y19243321D02*
G01*
X31137568Y19215967D01*
X31232836Y19170116D01*
X31319113Y19108736D01*
X31392041Y19035462D01*
X31452655Y18949320D01*
X31497796Y18854435D01*
X31524762Y18754815D01*
X31533866Y18648901D01*
X31524766Y18543067D01*
X31497804Y18443445D01*
X31452655Y18348483D01*
X31391993Y18262515D01*
X31319067Y18189786D01*
X31232836Y18129275D01*
X31137649Y18084268D01*
X31037780Y18057383D01*
X30931685Y18048308D01*
X30825511Y18057387D01*
X30725644Y18084277D01*
X30630533Y18129275D01*
X30544234Y18189798D01*
X30471312Y18262527D01*
X30410715Y18348483D01*
X30365570Y18443446D01*
X30338605Y18543108D01*
X30329504Y18649024D01*
X30377009Y18649024D01*
X30385369Y18550411D01*
X30410061Y18458210D01*
X30451259Y18370953D01*
X30506797Y18292013D01*
X30573719Y18225284D01*
X30653004Y18169819D01*
X30740408Y18128767D01*
X30832814Y18104150D01*
X30931685Y18095813D01*
X31030477Y18104146D01*
X31122886Y18128759D01*
X31210366Y18169819D01*
X31289650Y18225284D01*
X31356572Y18292013D01*
X31412110Y18370953D01*
X31453238Y18458203D01*
X31477891Y18550405D01*
X31486238Y18649024D01*
X31475705Y18758386D01*
X31444228Y18862614D01*
X31393141Y18958693D01*
X31323817Y19042865D01*
X31239562Y19112164D01*
X31144542Y19163033D01*
X31041214Y19194385D01*
X30931685Y19204920D01*
X30822067Y19194379D01*
X30718827Y19163033D01*
X30623727Y19112151D01*
X30539553Y19042865D01*
X30470131Y18958685D01*
X30419019Y18862614D01*
X30387542Y18758386D01*
X30377009Y18649024D01*
X30329504Y18649024D01*
X30338605Y18754856D01*
X30365569Y18854436D01*
X30410715Y18949320D01*
X30471264Y19035450D01*
X30544188Y19108724D01*
X30630533Y19170116D01*
X30725725Y19215959D01*
X30825581Y19243317D01*
X30931685Y19252548D01*
X31037710Y19243321D01*
G37*
G36*
X31270726Y19448513D02*
G01*
X31434281Y19403882D01*
X31590163Y19329118D01*
X31726293Y19233108D01*
X31842639Y19117062D01*
X31940652Y18979240D01*
X32013865Y18823744D01*
X32057637Y18660373D01*
X32072421Y18486602D01*
X32057641Y18312910D01*
X32013873Y18149537D01*
X31940652Y17993964D01*
X31842651Y17856211D01*
X31726306Y17740161D01*
X31590163Y17644086D01*
X31434281Y17569322D01*
X31270726Y17524691D01*
X31096915Y17509631D01*
X30923024Y17524694D01*
X30759429Y17569327D01*
X30603545Y17644086D01*
X30465823Y17740438D01*
X30349558Y17856506D01*
X30253056Y17993964D01*
X30178216Y18149693D01*
X30133549Y18313044D01*
X30118478Y18486602D01*
X30177341Y18486602D01*
X30191400Y18323985D01*
X30233184Y18169871D01*
X30303370Y18021930D01*
X30393699Y17893154D01*
X30502550Y17784548D01*
X30631510Y17694522D01*
X30779537Y17624355D01*
X30933892Y17582562D01*
X31096915Y17568493D01*
X31259806Y17582606D01*
X31413159Y17624437D01*
X31559389Y17694522D01*
X31688453Y17786199D01*
X31797306Y17895776D01*
X31887529Y18024739D01*
X31957625Y18170886D01*
X31999450Y18324078D01*
X32013558Y18486724D01*
X31999446Y18649366D01*
X31957617Y18802474D01*
X31887529Y18948465D01*
X31797311Y19077436D01*
X31688458Y19187056D01*
X31559389Y19278804D01*
X31413159Y19348890D01*
X31259806Y19390720D01*
X31096915Y19404833D01*
X30933892Y19390764D01*
X30779537Y19348971D01*
X30631510Y19278804D01*
X30502545Y19188707D01*
X30393694Y19080058D01*
X30303370Y18951274D01*
X30233200Y18803486D01*
X30191409Y18649376D01*
X30177341Y18486602D01*
X30118478Y18486602D01*
X30133553Y18660239D01*
X30178224Y18823588D01*
X30253056Y18979240D01*
X30349570Y19116767D01*
X30465836Y19232832D01*
X30603545Y19329118D01*
X30759429Y19403877D01*
X30923024Y19448510D01*
X31096915Y19463573D01*
X31270726Y19448513D01*
G37*
G36*
X31467803Y19685849D02*
G01*
X31649610Y19649552D01*
X31826224Y19588992D01*
X31986545Y19508370D01*
X32134442Y19408372D01*
X32270990Y19288085D01*
X32391623Y19151846D01*
X32491855Y19004391D01*
X32572630Y18844662D01*
X32633403Y18668435D01*
X32669816Y18487079D01*
X32682051Y18299024D01*
X32669816Y18110968D01*
X32633403Y17929612D01*
X32572630Y17753385D01*
X32491860Y17593650D01*
X32391628Y17446154D01*
X32270990Y17309840D01*
X32134450Y17189627D01*
X31986552Y17089668D01*
X31826224Y17009055D01*
X31649610Y16948495D01*
X31467803Y16912198D01*
X31279242Y16900000D01*
X31090599Y16912199D01*
X30908711Y16948495D01*
X30732016Y17009055D01*
X30571767Y17089662D01*
X30423909Y17189620D01*
X30287372Y17309840D01*
X30166724Y17446150D01*
X30066451Y17593646D01*
X29985610Y17753385D01*
X29924838Y17929612D01*
X29888424Y18110968D01*
X29876189Y18299024D01*
X29946165Y18299024D01*
X29957675Y18120861D01*
X29991802Y17950549D01*
X30048528Y17786534D01*
X30128614Y17627478D01*
X30225120Y17485020D01*
X30336246Y17358969D01*
X30462688Y17248167D01*
X30605621Y17151937D01*
X30765127Y17072085D01*
X30929641Y17015507D01*
X31100498Y16981461D01*
X31279242Y16969976D01*
X31457924Y16981461D01*
X31628719Y17015506D01*
X31793173Y17072084D01*
X31952620Y17151937D01*
X32095614Y17248173D01*
X32222095Y17358977D01*
X32333241Y17485027D01*
X32429748Y17627478D01*
X32509779Y17786528D01*
X32566467Y17950542D01*
X32600572Y18120857D01*
X32612076Y18299024D01*
X32600572Y18477190D01*
X32566467Y18647505D01*
X32509779Y18811519D01*
X32429748Y18970569D01*
X32333241Y19113020D01*
X32222095Y19239070D01*
X32095614Y19349874D01*
X31952620Y19446110D01*
X31793173Y19525963D01*
X31628719Y19582541D01*
X31457924Y19616586D01*
X31279242Y19628071D01*
X31100498Y19616586D01*
X30929641Y19582540D01*
X30765127Y19525962D01*
X30605621Y19446110D01*
X30462688Y19349880D01*
X30336246Y19239078D01*
X30225120Y19113027D01*
X30128614Y18970569D01*
X30048528Y18811513D01*
X29991802Y18647498D01*
X29957675Y18477186D01*
X29946165Y18299024D01*
X29876189Y18299024D01*
X29888424Y18487079D01*
X29924838Y18668435D01*
X29985610Y18844662D01*
X30066456Y19004395D01*
X30166730Y19151850D01*
X30287372Y19288085D01*
X30423916Y19408379D01*
X30571774Y19508376D01*
X30732016Y19588992D01*
X30908711Y19649552D01*
X31090599Y19685849D01*
X31279242Y19698047D01*
X31467803Y19685849D01*
G37*
D10*
G36*
X45752379Y15300000D02*
G01*
X45776623Y14927294D01*
X45848681Y14568987D01*
X45968778Y14221913D01*
X46132947Y13893221D01*
X46336391Y13591637D01*
X46580851Y13314795D01*
X46859021Y13072181D01*
X47165964Y12870085D01*
X47504577Y12707118D01*
X47538283Y12718354D01*
X47571988Y12729589D01*
X47605450Y12740824D01*
X47594459Y12746442D01*
X47577606Y12763294D01*
X47560753Y12774285D01*
X47543900Y12785520D01*
X47526803Y12796756D01*
X47510195Y12807991D01*
X47504577Y12807991D01*
X47493342Y12819226D01*
X47487725Y12819226D01*
X47476489Y12830461D01*
X47442784Y12858305D01*
X47409078Y12880775D01*
X47380990Y12903245D01*
X47352903Y12931089D01*
X47330432Y12953559D01*
X47302344Y12976030D01*
X47280118Y13004118D01*
X47263021Y13026344D01*
X47240551Y13048814D01*
X47240551Y13054432D01*
X47207090Y13099128D01*
X47207090Y13104746D01*
X47184375Y13149686D01*
X47178757Y13155304D01*
X47173140Y13183148D01*
X47167522Y13183148D01*
X47161905Y13211236D01*
X47156287Y13239079D01*
X47150669Y13244697D01*
X47150669Y13278402D01*
X47145052Y13278402D01*
X47145052Y13317481D01*
X47145052Y13368040D01*
X47150669Y13379275D01*
X47150669Y13384892D01*
X47150669Y13412736D01*
X47156287Y13415423D01*
X47156287Y13418354D01*
X47167522Y13474285D01*
X47173140Y13476972D01*
X47173140Y13479903D01*
X47195854Y13524843D01*
X47195854Y13530461D01*
X47223698Y13580775D01*
X47240551Y13608863D01*
X47246168Y13608863D01*
X47263021Y13631089D01*
X47285736Y13653559D01*
X47285736Y13659177D01*
X47307962Y13681647D01*
X47330432Y13704118D01*
X47358520Y13731961D01*
X47386608Y13754432D01*
X47414696Y13776902D01*
X47442784Y13799128D01*
X47476489Y13827216D01*
X47493342Y13838451D01*
X47510195Y13849686D01*
X47526803Y13860922D01*
X47543900Y13871913D01*
X47560753Y13883148D01*
X47583224Y13900000D01*
X47600076Y13911236D01*
X47605450Y13911236D01*
X47600076Y13916853D01*
X47566371Y13928088D01*
X47549518Y13933706D01*
X47493342Y13950315D01*
X47476489Y13955932D01*
X47448401Y13967167D01*
X47414696Y13978402D01*
X47386608Y13995255D01*
X47358764Y14006490D01*
X47330432Y14017481D01*
X47307962Y14028716D01*
X47285736Y14039952D01*
X47263265Y14051187D01*
X47263265Y14056804D01*
X47240551Y14068040D01*
X47207090Y14090510D01*
X47207090Y14095883D01*
X47179002Y14123971D01*
X47176315Y14123971D01*
X47173384Y14123971D01*
X47156287Y14152059D01*
X47150669Y14152059D01*
X47150669Y14154746D01*
X47150669Y14157677D01*
X47145052Y14163294D01*
X47145052Y14168912D01*
X47139434Y14174285D01*
X47133817Y14185520D01*
X47133817Y14191138D01*
X47128443Y14202373D01*
X47128443Y14213608D01*
X47122826Y14224843D01*
X47122826Y14241696D01*
X47122826Y14252687D01*
X47122826Y14314481D01*
X47122826Y14347942D01*
X47122826Y14376030D01*
X47128443Y14376030D01*
X47128443Y14404118D01*
X47134061Y14409491D01*
X47134061Y14420726D01*
X47139434Y14431961D01*
X47139434Y14437579D01*
X47150669Y14454432D01*
X47153600Y14462736D01*
X47156287Y14465667D01*
X47167522Y14487893D01*
X47189993Y14510363D01*
X47189993Y14515981D01*
X47195610Y14515981D01*
X47223454Y14538451D01*
X47223454Y14544069D01*
X47240307Y14555304D01*
X47262777Y14566295D01*
X47285247Y14577530D01*
X47285247Y14583148D01*
X47307473Y14594383D01*
X47329944Y14605618D01*
X47358032Y14616853D01*
X47380502Y14628088D01*
X47386120Y14628088D01*
X47414207Y14639079D01*
X47442295Y14655932D01*
X47475757Y14667167D01*
X47492609Y14672785D01*
X47526315Y14684020D01*
X47559776Y14695255D01*
X47599099Y14706490D01*
X47655031Y14723099D01*
X47671884Y14734334D01*
X47716580Y14745569D01*
X47755903Y14756804D01*
X47795226Y14768040D01*
X47839923Y14779275D01*
X47884863Y14790510D01*
X47929560Y14801501D01*
X48002344Y14818354D01*
X48024815Y14829589D01*
X48091981Y14846442D01*
X48142540Y14857677D01*
X48288353Y14891138D01*
X48338667Y14902373D01*
X48366755Y14907991D01*
X48388981Y14919226D01*
X48439539Y14930461D01*
X48641284Y14975158D01*
X48764626Y15003245D01*
X48786852Y15008863D01*
X48814940Y15020098D01*
X49140027Y15098500D01*
X49179106Y15115109D01*
X49470488Y15199128D01*
X49532281Y15227216D01*
X49616301Y15260922D01*
X49683468Y15294383D01*
X49689085Y15300000D01*
X49610439Y15339079D01*
X49492470Y15384020D01*
X49385980Y15417481D01*
X49368883Y15428716D01*
X49009357Y15523971D01*
X48987131Y15535206D01*
X48869162Y15563294D01*
X48824221Y15574285D01*
X48723105Y15596756D01*
X48621988Y15619226D01*
X48599762Y15630461D01*
X48475931Y15658305D01*
X48425617Y15669540D01*
X48251472Y15708863D01*
X48223384Y15714481D01*
X48200914Y15725716D01*
X48150355Y15736707D01*
X48099797Y15747942D01*
X48055101Y15759177D01*
X48009916Y15770412D01*
X47959357Y15781647D01*
X47914417Y15792883D01*
X47869476Y15804118D01*
X47847006Y15809491D01*
X47824780Y15820726D01*
X47740516Y15843197D01*
X47701193Y15854432D01*
X47622547Y15876902D01*
X47600076Y15882520D01*
X47566371Y15893511D01*
X47543900Y15899128D01*
X47527048Y15910363D01*
X47510195Y15915981D01*
X47493342Y15921599D01*
X47459637Y15932834D01*
X47431549Y15944069D01*
X47397843Y15955304D01*
X47369755Y15966295D01*
X47341667Y15983148D01*
X47319197Y15994383D01*
X47296727Y16005618D01*
X47274501Y16016853D01*
X47251786Y16028088D01*
X47234933Y16044697D01*
X47229316Y16044697D01*
X47195854Y16072785D01*
X47167522Y16100873D01*
X47167522Y16106490D01*
X47145052Y16134334D01*
X47145052Y16139952D01*
X47139434Y16145569D01*
X47136748Y16153873D01*
X47133817Y16156804D01*
X47133817Y16162422D01*
X47131130Y16170726D01*
X47128443Y16173657D01*
X47128443Y16179275D01*
X47122826Y16190510D01*
X47122826Y16218354D01*
X47122826Y16223971D01*
X47122826Y16341696D01*
X47128443Y16352687D01*
X47128443Y16375158D01*
X47134061Y16375158D01*
X47134061Y16392010D01*
X47139190Y16392010D01*
X47139190Y16397628D01*
X47142121Y16408863D01*
X47144808Y16408863D01*
X47150425Y16425716D01*
X47161416Y16447942D01*
X47172651Y16459177D01*
X47172651Y16464795D01*
X47200495Y16492883D01*
X47233712Y16515109D01*
X47233712Y16520726D01*
X47250321Y16531961D01*
X47272547Y16543197D01*
X47294528Y16554432D01*
X47316755Y16571285D01*
X47338981Y16582520D01*
X47344598Y16582520D01*
X47366824Y16593511D01*
X47394424Y16604746D01*
X47427885Y16615981D01*
X47455484Y16627216D01*
X47488946Y16644069D01*
X47505554Y16649686D01*
X47538771Y16660677D01*
X47577606Y16671913D01*
X47605450Y16683148D01*
X47594459Y16688765D01*
X47577606Y16700000D01*
X47560753Y16711236D01*
X47538283Y16722471D01*
X47521430Y16733706D01*
X47504577Y16750315D01*
X47487725Y16761550D01*
X47454019Y16784020D01*
X47425931Y16806490D01*
X47397843Y16834334D01*
X47369755Y16856804D01*
X47341667Y16879275D01*
X47313579Y16907118D01*
X47291109Y16929589D01*
X47268639Y16952059D01*
X47251786Y16979903D01*
X47234933Y17002373D01*
X47229316Y17007991D01*
X47201472Y17052687D01*
X47201472Y17058305D01*
X47178757Y17103245D01*
X47173140Y17108863D01*
X47167522Y17136707D01*
X47161905Y17136707D01*
X47156287Y17170412D01*
X47150669Y17198500D01*
X47150669Y17215109D01*
X47145052Y17215109D01*
X47145052Y17220726D01*
X47145052Y17237579D01*
X47145052Y17271285D01*
X47145052Y17310363D01*
X47156287Y17371913D01*
X47167522Y17400000D01*
X47167522Y17405618D01*
X47173140Y17428088D01*
X47178757Y17430775D01*
X47178757Y17433706D01*
X47201228Y17478402D01*
X47201228Y17484020D01*
X47234933Y17534334D01*
X47251786Y17556804D01*
X47251786Y17562422D01*
X47274256Y17584892D01*
X47296482Y17607118D01*
X47319197Y17635206D01*
X47347285Y17657677D01*
X47369511Y17679903D01*
X47397599Y17707991D01*
X47403217Y17707991D01*
X47431549Y17730461D01*
X47459392Y17752687D01*
X47493098Y17775158D01*
X47509951Y17792010D01*
X47526559Y17803245D01*
X47543656Y17814481D01*
X47549274Y17814481D01*
X47566127Y17825716D01*
X47582979Y17836707D01*
X47599832Y17847942D01*
X47605205Y17853559D01*
X47582979Y17859177D01*
X47543412Y17870412D01*
X47526559Y17876030D01*
X47509951Y17887265D01*
X47493098Y17887265D01*
X47158060Y17724665D01*
X46853931Y17523467D01*
X46577920Y17282275D01*
X46335359Y17007410D01*
X46132841Y16706832D01*
X45968778Y16378088D01*
X45848681Y16031014D01*
X45776623Y15672707D01*
X45752379Y15300000D01*
G37*
G36*
X47190237Y17271285D02*
G01*
X47190237Y17254432D01*
X47190237Y17248814D01*
X47195854Y17243197D01*
X47195854Y17226344D01*
X47207090Y17192883D01*
X47229316Y17147942D01*
X47268639Y17080775D01*
X47291109Y17058305D01*
X47307962Y17036079D01*
X47330432Y17013608D01*
X47358520Y16991138D01*
X47409078Y16940824D01*
X47498960Y16873657D01*
X47554891Y16839952D01*
X47571744Y16823099D01*
X47684096Y16755932D01*
X47723419Y16728088D01*
X47740272Y16722471D01*
X47751507Y16728088D01*
X47796448Y16739079D01*
X48093935Y16812108D01*
X48116650Y16823099D01*
X48487166Y16907118D01*
X48515254Y16918354D01*
X48908485Y17007991D01*
X48930711Y17019226D01*
X49284619Y17108863D01*
X49307334Y17120098D01*
X49419441Y17153559D01*
X49604822Y17220726D01*
X49627292Y17237579D01*
X49689085Y17265667D01*
X49593586Y17310363D01*
X49565498Y17327216D01*
X49475373Y17360677D01*
X49290237Y17416853D01*
X49250914Y17433706D01*
X48891632Y17523099D01*
X48868918Y17534334D01*
X48745575Y17562422D01*
X48498401Y17618354D01*
X48470314Y17629589D01*
X48419755Y17640824D01*
X48369197Y17652059D01*
X48324256Y17663294D01*
X48273698Y17674285D01*
X48223384Y17685520D01*
X48172581Y17696756D01*
X48122267Y17707991D01*
X48099553Y17713608D01*
X48077083Y17724843D01*
X48026524Y17736079D01*
X47981828Y17747314D01*
X47936643Y17758305D01*
X47869476Y17775158D01*
X47824535Y17786393D01*
X47779595Y17797628D01*
X47756880Y17803245D01*
X47740272Y17814481D01*
X47689713Y17780775D01*
X47611067Y17736079D01*
X47560509Y17702373D01*
X47543656Y17685520D01*
X47521430Y17674285D01*
X47414696Y17595883D01*
X47386608Y17568040D01*
X47358520Y17545569D01*
X47291109Y17478402D01*
X47229316Y17388765D01*
X47207090Y17344069D01*
X47195854Y17310363D01*
X47195854Y17293511D01*
X47190237Y17271285D01*
G37*
G36*
X47189993Y13323099D02*
G01*
X47189993Y13317481D01*
X47195610Y13295255D01*
X47195610Y13278402D01*
X47206845Y13261550D01*
X47212219Y13244697D01*
X47234689Y13200000D01*
X47279874Y13132834D01*
X47324815Y13087893D01*
X47347285Y13060049D01*
X47369511Y13037579D01*
X47487480Y12942324D01*
X47627920Y12852687D01*
X47644773Y12836079D01*
X47723419Y12791138D01*
X47740272Y12785520D01*
X47751507Y12785520D01*
X47813300Y12802373D01*
X47858241Y12813608D01*
X47903182Y12824843D01*
X47903182Y12830461D01*
X47948122Y12841696D01*
X47992819Y12852687D01*
X48043621Y12863922D01*
X48139120Y12886393D01*
X48262463Y12914481D01*
X48285177Y12925716D01*
X48357962Y12942324D01*
X48661311Y13009491D01*
X48683782Y13020726D01*
X48711870Y13026344D01*
X49065778Y13110363D01*
X49065778Y13115981D01*
X49413824Y13211236D01*
X49430676Y13222471D01*
X49627292Y13295255D01*
X49689085Y13328716D01*
X49571116Y13384892D01*
X49458764Y13423971D01*
X49441912Y13435206D01*
X49127571Y13524843D01*
X49104856Y13536079D01*
X48751193Y13620098D01*
X48728722Y13631089D01*
X48453705Y13692883D01*
X48352588Y13715109D01*
X48324256Y13726344D01*
X48302030Y13731961D01*
X48251472Y13743197D01*
X48200914Y13754432D01*
X48150111Y13765667D01*
X48082944Y13782520D01*
X48032386Y13793511D01*
X47987690Y13804746D01*
X47964975Y13810363D01*
X47936887Y13821599D01*
X47892191Y13832834D01*
X47847006Y13844069D01*
X47807927Y13855304D01*
X47762742Y13866295D01*
X47740516Y13871913D01*
X47627920Y13810363D01*
X47611067Y13793511D01*
X47554891Y13760049D01*
X47487725Y13715109D01*
X47459392Y13687265D01*
X47397843Y13642324D01*
X47375129Y13620098D01*
X47347285Y13597628D01*
X47324815Y13575158D01*
X47285491Y13524843D01*
X47263021Y13502373D01*
X47223454Y13435206D01*
X47206845Y13395883D01*
X47189993Y13345569D01*
X47189993Y13334334D01*
X47189993Y13323099D01*
G37*
G36*
X47296727Y16279903D02*
G01*
X47319197Y16268912D01*
X47386608Y16235206D01*
X47616685Y16151187D01*
X47948122Y16061550D01*
X47970593Y16050315D01*
X48335736Y15966295D01*
X48358206Y15955304D01*
X48756810Y15865667D01*
X48784898Y15854432D01*
X49138806Y15770412D01*
X49155659Y15759177D01*
X49245296Y15736707D01*
X49284619Y15725716D01*
X49323942Y15714481D01*
X49363265Y15703245D01*
X49402344Y15692010D01*
X49436294Y15680775D01*
X49436294Y15675158D01*
X49475373Y15663922D01*
X49509323Y15652687D01*
X49537411Y15641696D01*
X49559637Y15636079D01*
X49548646Y15641696D01*
X49486608Y15692010D01*
X49380118Y15759177D01*
X49323942Y15798500D01*
X49183503Y15876902D01*
X49161032Y15893511D01*
X48981514Y15983148D01*
X48959043Y16000000D01*
X48790516Y16078402D01*
X48768046Y16095255D01*
X48638841Y16151187D01*
X48565812Y16190510D01*
X48442470Y16246442D01*
X48414138Y16257677D01*
X48363824Y16285520D01*
X48268325Y16330461D01*
X48217766Y16352687D01*
X48189678Y16363922D01*
X48167208Y16380775D01*
X48116650Y16403245D01*
X48071709Y16425716D01*
X48049239Y16436707D01*
X48021151Y16447942D01*
X47998681Y16459177D01*
X47976210Y16476030D01*
X47931270Y16498500D01*
X47914417Y16498500D01*
X47869476Y16487265D01*
X47830397Y16470412D01*
X47504577Y16375158D01*
X47470872Y16358305D01*
X47380990Y16324843D01*
X47313579Y16291138D01*
X47296727Y16279903D01*
G37*
G36*
X47296727Y14314481D02*
G01*
X47307962Y14308863D01*
X47353147Y14286393D01*
X47375373Y14269540D01*
X47459637Y14236079D01*
X47656252Y14174285D01*
X47695331Y14157677D01*
X47925652Y14095883D01*
X47936887Y14101501D01*
X47959357Y14112736D01*
X47982072Y14123971D01*
X48004298Y14135206D01*
X48026769Y14146442D01*
X48054856Y14157677D01*
X48077327Y14174285D01*
X48099797Y14185520D01*
X48122267Y14196756D01*
X48172826Y14219226D01*
X48245854Y14252687D01*
X48273942Y14269540D01*
X48324501Y14292010D01*
X48346971Y14303245D01*
X48448087Y14347942D01*
X48470314Y14364795D01*
X48650076Y14443197D01*
X48672791Y14460049D01*
X48846936Y14538451D01*
X48869162Y14555304D01*
X49032072Y14633706D01*
X49054542Y14650315D01*
X49211835Y14728716D01*
X49228688Y14745569D01*
X49352274Y14812736D01*
X49385980Y14835206D01*
X49402588Y14852059D01*
X49425059Y14863294D01*
X49509323Y14919226D01*
X49559881Y14958305D01*
X49548890Y14958305D01*
X49514940Y14947314D01*
X49514940Y14941696D01*
X49498087Y14936079D01*
X49464626Y14924843D01*
X49447773Y14919226D01*
X49374745Y14896756D01*
X49335177Y14885520D01*
X49296099Y14874285D01*
X49256775Y14863294D01*
X49234305Y14852059D01*
X49211835Y14846442D01*
X49166650Y14835206D01*
X49127571Y14823971D01*
X49082875Y14812736D01*
X49037690Y14801501D01*
X48987131Y14790510D01*
X48942191Y14779275D01*
X48919965Y14773657D01*
X48891632Y14762422D01*
X48846936Y14751187D01*
X48796133Y14739952D01*
X48745819Y14728716D01*
X48672791Y14712108D01*
X48621988Y14700873D01*
X48571674Y14689638D01*
X48521116Y14678402D01*
X48498646Y14667167D01*
X48470314Y14661550D01*
X48420000Y14650315D01*
X48369441Y14639079D01*
X48273942Y14616853D01*
X48223628Y14605618D01*
X48127885Y14583148D01*
X48099797Y14571913D01*
X47740516Y14482520D01*
X47723663Y14471285D01*
X47549518Y14420726D01*
X47425931Y14376030D01*
X47397843Y14359177D01*
X47369755Y14347942D01*
X47302344Y14314481D01*
X47296727Y14314481D01*
G37*
G36*
X48093691Y17993511D02*
G01*
X48099309Y17993511D01*
X48244877Y17960049D01*
X48267348Y17948814D01*
X48642505Y17864795D01*
X48664975Y17853559D01*
X49028897Y17769540D01*
X49051367Y17758305D01*
X49292191Y17696756D01*
X49331270Y17685520D01*
X49370593Y17674285D01*
X49387445Y17663294D01*
X49426524Y17652059D01*
X49460230Y17640824D01*
X49493691Y17629589D01*
X49527397Y17618354D01*
X49560858Y17607118D01*
X49588946Y17595883D01*
X49617034Y17579275D01*
X49644877Y17568040D01*
X49672965Y17556804D01*
X49695436Y17545569D01*
X49717662Y17534334D01*
X49740132Y17517481D01*
X49756985Y17506490D01*
X49773838Y17495255D01*
X49779455Y17495255D01*
X49801681Y17467167D01*
X49807299Y17464236D01*
X49807299Y17461550D01*
X49829769Y17439079D01*
X49835387Y17433706D01*
X49835387Y17428088D01*
X49841004Y17416853D01*
X49846622Y17416853D01*
X49846622Y17411236D01*
X49852240Y17405618D01*
X49852240Y17394383D01*
X49857857Y17383148D01*
X49857857Y17377530D01*
X49863475Y17371913D01*
X49863475Y17360677D01*
X49868848Y17355304D01*
X49868848Y17327216D01*
X49868848Y17321599D01*
X49868848Y17215109D01*
X49863230Y17204118D01*
X49863230Y17181647D01*
X49857857Y17176030D01*
X49857857Y17159177D01*
X49852240Y17159177D01*
X49852240Y17153559D01*
X49846622Y17142324D01*
X49846622Y17136707D01*
X49843935Y17128402D01*
X49841004Y17125716D01*
X49829769Y17103245D01*
X49801437Y17069540D01*
X49773593Y17047314D01*
X49773593Y17041696D01*
X49756741Y17030461D01*
X49739644Y17019226D01*
X49717173Y17007991D01*
X49694947Y16991138D01*
X49672477Y16979903D01*
X49649762Y16968912D01*
X49621919Y16957677D01*
X49593831Y16946442D01*
X49565498Y16935206D01*
X49532037Y16918354D01*
X49498332Y16907118D01*
X49481235Y16901501D01*
X49447773Y16890510D01*
X49414068Y16879275D01*
X49374745Y16868040D01*
X49335422Y16856804D01*
X49296099Y16839952D01*
X49256775Y16828716D01*
X49194982Y16812108D01*
X49150286Y16800873D01*
X49105101Y16789638D01*
X49060160Y16778402D01*
X49015219Y16767167D01*
X48992993Y16761550D01*
X48964661Y16750315D01*
X48919965Y16739079D01*
X48869162Y16728088D01*
X48824466Y16716853D01*
X48773663Y16705618D01*
X48723349Y16694383D01*
X48672791Y16683148D01*
X48599762Y16666295D01*
X48577292Y16655304D01*
X48526734Y16644069D01*
X48448087Y16627216D01*
X48397529Y16615981D01*
X48346971Y16604746D01*
X48178443Y16565667D01*
X48150355Y16554432D01*
X48082944Y16537579D01*
X48105659Y16531961D01*
X48128129Y16515109D01*
X48297145Y16436707D01*
X48325233Y16420098D01*
X48477397Y16352687D01*
X48528199Y16324843D01*
X48601472Y16291138D01*
X48674745Y16257677D01*
X48702588Y16246442D01*
X48725303Y16229589D01*
X48775861Y16207118D01*
X48849378Y16173657D01*
X48871605Y16162422D01*
X48899937Y16151187D01*
X48922651Y16134334D01*
X48944877Y16123099D01*
X48967592Y16112108D01*
X48995680Y16100873D01*
X49018150Y16089638D01*
X49040865Y16078402D01*
X49063335Y16067167D01*
X49086050Y16055932D01*
X49108276Y16039079D01*
X49130990Y16028088D01*
X49153461Y16016853D01*
X49175931Y16005618D01*
X49198401Y15994383D01*
X49215498Y15983148D01*
X49237969Y15971913D01*
X49260439Y15960922D01*
X49283154Y15944069D01*
X49300006Y15932834D01*
X49322477Y15921599D01*
X49339330Y15910363D01*
X49362044Y15899128D01*
X49378897Y15887893D01*
X49395750Y15876902D01*
X49418220Y15860049D01*
X49435073Y15848814D01*
X49452170Y15837579D01*
X49469023Y15826344D01*
X49485875Y15815109D01*
X49502728Y15804118D01*
X49536678Y15781647D01*
X49536678Y15776030D01*
X49570383Y15753559D01*
X49598471Y15731089D01*
X49626803Y15708863D01*
X49649274Y15680775D01*
X49654891Y15680775D01*
X49677362Y15658305D01*
X49700076Y15636079D01*
X49722302Y15607991D01*
X49739399Y15585520D01*
X49745017Y15585520D01*
X49761870Y15557677D01*
X49778967Y15535206D01*
X49778967Y15529589D01*
X49784584Y15518354D01*
X49812672Y15490510D01*
X49818290Y15490510D01*
X49823907Y15473657D01*
X49829525Y15468040D01*
X49835143Y15456804D01*
X49840760Y15456804D01*
X49840760Y15451187D01*
X49846378Y15434334D01*
X49852240Y15434334D01*
X49852240Y15423099D01*
X49857857Y15417481D01*
X49857857Y15406490D01*
X49863475Y15406490D01*
X49863475Y15389638D01*
X49868848Y15389638D01*
X49868848Y15367167D01*
X49868848Y15355932D01*
X49868848Y15244069D01*
X49863230Y15232834D01*
X49863230Y15215981D01*
X49857857Y15204746D01*
X49857857Y15187893D01*
X49852240Y15187893D01*
X49852240Y15182520D01*
X49846622Y15171285D01*
X49846622Y15165667D01*
X49841004Y15154432D01*
X49835387Y15148814D01*
X49835387Y15143197D01*
X49829769Y15131961D01*
X49823907Y15131961D01*
X49823907Y15120726D01*
X49795819Y15098500D01*
X49795819Y15095569D01*
X49795819Y15092883D01*
X49784829Y15081647D01*
X49767976Y15053559D01*
X49728408Y15003245D01*
X49711556Y14980775D01*
X49706182Y14980775D01*
X49689330Y14952687D01*
X49661242Y14930461D01*
X49638527Y14907991D01*
X49610683Y14879903D01*
X49582595Y14857677D01*
X49554263Y14835206D01*
X49548890Y14835206D01*
X49520802Y14807118D01*
X49487096Y14784892D01*
X49470244Y14773657D01*
X49453391Y14762422D01*
X49436538Y14751187D01*
X49419685Y14739952D01*
X49396971Y14723099D01*
X49380362Y14712108D01*
X49363510Y14700873D01*
X49341039Y14689638D01*
X49324187Y14678402D01*
X49301716Y14667167D01*
X49279246Y14655932D01*
X49262393Y14644697D01*
X49262393Y14639079D01*
X49239923Y14628088D01*
X49217452Y14616853D01*
X49200600Y14605618D01*
X49178129Y14594383D01*
X49155903Y14583148D01*
X49133189Y14571913D01*
X49110718Y14560922D01*
X49088248Y14544069D01*
X49066022Y14532834D01*
X49043307Y14521599D01*
X49020837Y14510363D01*
X48998611Y14499128D01*
X48970279Y14487893D01*
X48947808Y14476902D01*
X48925582Y14465667D01*
X48903112Y14448814D01*
X48880397Y14437579D01*
X48830083Y14415109D01*
X48779281Y14392883D01*
X48728967Y14370412D01*
X48706252Y14353559D01*
X48655938Y14331089D01*
X48633224Y14320098D01*
X48554822Y14286393D01*
X48504263Y14258305D01*
X48330118Y14179903D01*
X48307648Y14163294D01*
X48133747Y14084892D01*
X48111032Y14068040D01*
X48082944Y14056804D01*
X48116650Y14051187D01*
X48139364Y14039952D01*
X48335736Y13995255D01*
X48537725Y13950315D01*
X48537725Y13944697D01*
X48639085Y13922471D01*
X48734584Y13900000D01*
X48835701Y13877530D01*
X48857927Y13866295D01*
X49004228Y13832834D01*
X49048925Y13821599D01*
X49093866Y13810363D01*
X49138806Y13799128D01*
X49183747Y13787893D01*
X49200600Y13776902D01*
X49223070Y13771285D01*
X49268011Y13760049D01*
X49307334Y13748814D01*
X49346657Y13737579D01*
X49385980Y13726344D01*
X49419685Y13715109D01*
X49459009Y13704118D01*
X49475617Y13698500D01*
X49492714Y13687265D01*
X49526420Y13676030D01*
X49554263Y13664795D01*
X49588213Y13653559D01*
X49616301Y13642324D01*
X49638527Y13631089D01*
X49644145Y13631089D01*
X49666859Y13620098D01*
X49666859Y13614481D01*
X49689330Y13603245D01*
X49711556Y13592010D01*
X49734026Y13580775D01*
X49784829Y13541696D01*
X49790202Y13536079D01*
X49818290Y13507991D01*
X49823907Y13496756D01*
X49829769Y13496756D01*
X49829769Y13491138D01*
X49841004Y13474285D01*
X49841004Y13468912D01*
X49852240Y13452059D01*
X49852240Y13440824D01*
X49857857Y13435206D01*
X49857857Y13418354D01*
X49863230Y13412736D01*
X49863230Y13395883D01*
X49868848Y13384892D01*
X49868848Y13267167D01*
X49863230Y13267167D01*
X49863230Y13239079D01*
X49857857Y13239079D01*
X49857857Y13233706D01*
X49857857Y13228088D01*
X49852240Y13216853D01*
X49852240Y13211236D01*
X49849553Y13202687D01*
X49846622Y13200000D01*
X49841004Y13188765D01*
X49835387Y13177530D01*
X49823907Y13155304D01*
X49818290Y13149686D01*
X49812672Y13144069D01*
X49790202Y13121599D01*
X49790202Y13115981D01*
X49756741Y13093511D01*
X49739644Y13076902D01*
X49717173Y13065667D01*
X49694947Y13054432D01*
X49672477Y13043197D01*
X49644145Y13026344D01*
X49621919Y13015109D01*
X49593831Y13004118D01*
X49559881Y12992883D01*
X49532037Y12981647D01*
X49498332Y12970412D01*
X49464626Y12959177D01*
X49447773Y12947942D01*
X49391598Y12931089D01*
X49352274Y12920098D01*
X49312951Y12908863D01*
X49273628Y12897628D01*
X49234549Y12886393D01*
X49189364Y12875158D01*
X49166894Y12869540D01*
X49144424Y12858305D01*
X49099483Y12847314D01*
X49054542Y12836079D01*
X49032072Y12830461D01*
X48987376Y12819226D01*
X48942191Y12807991D01*
X48891632Y12796756D01*
X48841318Y12785520D01*
X48818848Y12779903D01*
X48796133Y12768912D01*
X48745819Y12757677D01*
X48695017Y12746442D01*
X48644703Y12735206D01*
X48594145Y12723971D01*
X48543342Y12712736D01*
X48442470Y12690510D01*
X48420000Y12684892D01*
X48397529Y12673657D01*
X48082944Y12600873D01*
X48178443Y12555932D01*
X48200914Y12539079D01*
X48228757Y12528088D01*
X48245610Y12516853D01*
X48559706Y12500000D01*
X48936816Y12524426D01*
X49300345Y12597101D01*
X49653426Y12718354D01*
X49973754Y12879574D01*
X50269391Y13079565D01*
X50542470Y13320168D01*
X50783579Y13592948D01*
X50983968Y13888183D01*
X51145505Y14207991D01*
X51266905Y14560598D01*
X51339655Y14923555D01*
X51364103Y15300000D01*
X51339760Y15676482D01*
X51267328Y16039446D01*
X51146482Y16392010D01*
X50985923Y16711879D01*
X50786660Y17007025D01*
X50546866Y17279589D01*
X50275182Y17520345D01*
X49980850Y17720409D01*
X49661730Y17881647D01*
X49309134Y18002908D01*
X48946175Y18075579D01*
X48569720Y18100000D01*
X48272965Y18083148D01*
X48267348Y18077530D01*
X48217034Y18055304D01*
X48144249Y18021599D01*
X48099309Y17999128D01*
X48093691Y17993511D01*
G37*
D13*
X10633333Y14745181D02*
X10300000Y15221372D01*
X10061905Y14745181D02*
X10061905Y15745181D01*
X10061905Y15745181D02*
X10442857Y15745181D01*
X10442857Y15745181D02*
X10538095Y15697562D01*
X10538095Y15697562D02*
X10585714Y15649943D01*
X10585714Y15649943D02*
X10633333Y15554705D01*
X10633333Y15554705D02*
X10633333Y15411848D01*
X10633333Y15411848D02*
X10585714Y15316610D01*
X10585714Y15316610D02*
X10538095Y15268991D01*
X10538095Y15268991D02*
X10442857Y15221372D01*
X10442857Y15221372D02*
X10061905Y15221372D01*
X11490476Y15411848D02*
X11490476Y14745181D01*
X11252381Y15792800D02*
X11014286Y15078515D01*
X11014286Y15078515D02*
X11633333Y15078515D01*
X10633333Y9745181D02*
X10300000Y10221372D01*
X10061905Y9745181D02*
X10061905Y10745181D01*
X10061905Y10745181D02*
X10442857Y10745181D01*
X10442857Y10745181D02*
X10538095Y10697562D01*
X10538095Y10697562D02*
X10585714Y10649943D01*
X10585714Y10649943D02*
X10633333Y10554705D01*
X10633333Y10554705D02*
X10633333Y10411848D01*
X10633333Y10411848D02*
X10585714Y10316610D01*
X10585714Y10316610D02*
X10538095Y10268991D01*
X10538095Y10268991D02*
X10442857Y10221372D01*
X10442857Y10221372D02*
X10061905Y10221372D01*
X11014286Y10649943D02*
X11061905Y10697562D01*
X11061905Y10697562D02*
X11157143Y10745181D01*
X11157143Y10745181D02*
X11395238Y10745181D01*
X11395238Y10745181D02*
X11490476Y10697562D01*
X11490476Y10697562D02*
X11538095Y10649943D01*
X11538095Y10649943D02*
X11585714Y10554705D01*
X11585714Y10554705D02*
X11585714Y10459467D01*
X11585714Y10459467D02*
X11538095Y10316610D01*
X11538095Y10316610D02*
X10966667Y9745181D01*
X10966667Y9745181D02*
X11585714Y9745181D01*
X29133333Y1340420D02*
X29085714Y1292800D01*
X29085714Y1292800D02*
X28942857Y1245181D01*
X28942857Y1245181D02*
X28847619Y1245181D01*
X28847619Y1245181D02*
X28704762Y1292800D01*
X28704762Y1292800D02*
X28609524Y1388039D01*
X28609524Y1388039D02*
X28561905Y1483277D01*
X28561905Y1483277D02*
X28514286Y1673753D01*
X28514286Y1673753D02*
X28514286Y1816610D01*
X28514286Y1816610D02*
X28561905Y2007086D01*
X28561905Y2007086D02*
X28609524Y2102324D01*
X28609524Y2102324D02*
X28704762Y2197562D01*
X28704762Y2197562D02*
X28847619Y2245181D01*
X28847619Y2245181D02*
X28942857Y2245181D01*
X28942857Y2245181D02*
X29085714Y2197562D01*
X29085714Y2197562D02*
X29133333Y2149943D01*
X29466667Y2245181D02*
X30133333Y2245181D01*
X30133333Y2245181D02*
X29704762Y1245181D01*
X17978628Y14923810D02*
X18454819Y14923810D01*
X17454819Y14590477D02*
X17978628Y14923810D01*
X17978628Y14923810D02*
X17454819Y15257143D01*
X18454819Y16114286D02*
X18454819Y15542858D01*
X18454819Y15828572D02*
X17454819Y15828572D01*
X17454819Y15828572D02*
X17597676Y15733334D01*
X17597676Y15733334D02*
X17692914Y15638096D01*
X17692914Y15638096D02*
X17740533Y15542858D01*
X19754819Y3133334D02*
X19278628Y2800001D01*
X19754819Y2561906D02*
X18754819Y2561906D01*
X18754819Y2561906D02*
X18754819Y2942858D01*
X18754819Y2942858D02*
X18802438Y3038096D01*
X18802438Y3038096D02*
X18850057Y3085715D01*
X18850057Y3085715D02*
X18945295Y3133334D01*
X18945295Y3133334D02*
X19088152Y3133334D01*
X19088152Y3133334D02*
X19183390Y3085715D01*
X19183390Y3085715D02*
X19231009Y3038096D01*
X19231009Y3038096D02*
X19278628Y2942858D01*
X19278628Y2942858D02*
X19278628Y2561906D01*
X18754819Y4038096D02*
X18754819Y3561906D01*
X18754819Y3561906D02*
X19231009Y3514287D01*
X19231009Y3514287D02*
X19183390Y3561906D01*
X19183390Y3561906D02*
X19135771Y3657144D01*
X19135771Y3657144D02*
X19135771Y3895239D01*
X19135771Y3895239D02*
X19183390Y3990477D01*
X19183390Y3990477D02*
X19231009Y4038096D01*
X19231009Y4038096D02*
X19326247Y4085715D01*
X19326247Y4085715D02*
X19564342Y4085715D01*
X19564342Y4085715D02*
X19659580Y4038096D01*
X19659580Y4038096D02*
X19707200Y3990477D01*
X19707200Y3990477D02*
X19754819Y3895239D01*
X19754819Y3895239D02*
X19754819Y3657144D01*
X19754819Y3657144D02*
X19707200Y3561906D01*
X19707200Y3561906D02*
X19659580Y3514287D01*
X15833333Y7740420D02*
X15785714Y7692800D01*
X15785714Y7692800D02*
X15642857Y7645181D01*
X15642857Y7645181D02*
X15547619Y7645181D01*
X15547619Y7645181D02*
X15404762Y7692800D01*
X15404762Y7692800D02*
X15309524Y7788039D01*
X15309524Y7788039D02*
X15261905Y7883277D01*
X15261905Y7883277D02*
X15214286Y8073753D01*
X15214286Y8073753D02*
X15214286Y8216610D01*
X15214286Y8216610D02*
X15261905Y8407086D01*
X15261905Y8407086D02*
X15309524Y8502324D01*
X15309524Y8502324D02*
X15404762Y8597562D01*
X15404762Y8597562D02*
X15547619Y8645181D01*
X15547619Y8645181D02*
X15642857Y8645181D01*
X15642857Y8645181D02*
X15785714Y8597562D01*
X15785714Y8597562D02*
X15833333Y8549943D01*
X16404762Y8216610D02*
X16309524Y8264229D01*
X16309524Y8264229D02*
X16261905Y8311848D01*
X16261905Y8311848D02*
X16214286Y8407086D01*
X16214286Y8407086D02*
X16214286Y8454705D01*
X16214286Y8454705D02*
X16261905Y8549943D01*
X16261905Y8549943D02*
X16309524Y8597562D01*
X16309524Y8597562D02*
X16404762Y8645181D01*
X16404762Y8645181D02*
X16595238Y8645181D01*
X16595238Y8645181D02*
X16690476Y8597562D01*
X16690476Y8597562D02*
X16738095Y8549943D01*
X16738095Y8549943D02*
X16785714Y8454705D01*
X16785714Y8454705D02*
X16785714Y8407086D01*
X16785714Y8407086D02*
X16738095Y8311848D01*
X16738095Y8311848D02*
X16690476Y8264229D01*
X16690476Y8264229D02*
X16595238Y8216610D01*
X16595238Y8216610D02*
X16404762Y8216610D01*
X16404762Y8216610D02*
X16309524Y8168991D01*
X16309524Y8168991D02*
X16261905Y8121372D01*
X16261905Y8121372D02*
X16214286Y8026134D01*
X16214286Y8026134D02*
X16214286Y7835658D01*
X16214286Y7835658D02*
X16261905Y7740420D01*
X16261905Y7740420D02*
X16309524Y7692800D01*
X16309524Y7692800D02*
X16404762Y7645181D01*
X16404762Y7645181D02*
X16595238Y7645181D01*
X16595238Y7645181D02*
X16690476Y7692800D01*
X16690476Y7692800D02*
X16738095Y7740420D01*
X16738095Y7740420D02*
X16785714Y7835658D01*
X16785714Y7835658D02*
X16785714Y8026134D01*
X16785714Y8026134D02*
X16738095Y8121372D01*
X16738095Y8121372D02*
X16690476Y8168991D01*
X16690476Y8168991D02*
X16595238Y8216610D01*
X24954819Y11733334D02*
X24954819Y11257144D01*
X24954819Y11257144D02*
X23954819Y11257144D01*
X24288152Y12495239D02*
X24954819Y12495239D01*
X23907200Y12257144D02*
X24621485Y12019049D01*
X24621485Y12019049D02*
X24621485Y12638096D01*
X15557142Y1245181D02*
X15223809Y1721372D01*
X14985714Y1245181D02*
X14985714Y2245181D01*
X14985714Y2245181D02*
X15366666Y2245181D01*
X15366666Y2245181D02*
X15461904Y2197562D01*
X15461904Y2197562D02*
X15509523Y2149943D01*
X15509523Y2149943D02*
X15557142Y2054705D01*
X15557142Y2054705D02*
X15557142Y1911848D01*
X15557142Y1911848D02*
X15509523Y1816610D01*
X15509523Y1816610D02*
X15461904Y1768991D01*
X15461904Y1768991D02*
X15366666Y1721372D01*
X15366666Y1721372D02*
X14985714Y1721372D01*
X16509523Y1245181D02*
X15938095Y1245181D01*
X16223809Y1245181D02*
X16223809Y2245181D01*
X16223809Y2245181D02*
X16128571Y2102324D01*
X16128571Y2102324D02*
X16033333Y2007086D01*
X16033333Y2007086D02*
X15938095Y1959467D01*
X16842857Y2245181D02*
X17461904Y2245181D01*
X17461904Y2245181D02*
X17128571Y1864229D01*
X17128571Y1864229D02*
X17271428Y1864229D01*
X17271428Y1864229D02*
X17366666Y1816610D01*
X17366666Y1816610D02*
X17414285Y1768991D01*
X17414285Y1768991D02*
X17461904Y1673753D01*
X17461904Y1673753D02*
X17461904Y1435658D01*
X17461904Y1435658D02*
X17414285Y1340420D01*
X17414285Y1340420D02*
X17366666Y1292800D01*
X17366666Y1292800D02*
X17271428Y1245181D01*
X17271428Y1245181D02*
X16985714Y1245181D01*
X16985714Y1245181D02*
X16890476Y1292800D01*
X16890476Y1292800D02*
X16842857Y1340420D01*
X22938095Y10245181D02*
X22938095Y9435658D01*
X22938095Y9435658D02*
X22985714Y9340420D01*
X22985714Y9340420D02*
X23033333Y9292800D01*
X23033333Y9292800D02*
X23128571Y9245181D01*
X23128571Y9245181D02*
X23319047Y9245181D01*
X23319047Y9245181D02*
X23414285Y9292800D01*
X23414285Y9292800D02*
X23461904Y9340420D01*
X23461904Y9340420D02*
X23509523Y9435658D01*
X23509523Y9435658D02*
X23509523Y10245181D01*
X24509523Y9245181D02*
X23938095Y9245181D01*
X24223809Y9245181D02*
X24223809Y10245181D01*
X24223809Y10245181D02*
X24128571Y10102324D01*
X24128571Y10102324D02*
X24033333Y10007086D01*
X24033333Y10007086D02*
X23938095Y9959467D01*
X29033333Y3245181D02*
X28700000Y3721372D01*
X28461905Y3245181D02*
X28461905Y4245181D01*
X28461905Y4245181D02*
X28842857Y4245181D01*
X28842857Y4245181D02*
X28938095Y4197562D01*
X28938095Y4197562D02*
X28985714Y4149943D01*
X28985714Y4149943D02*
X29033333Y4054705D01*
X29033333Y4054705D02*
X29033333Y3911848D01*
X29033333Y3911848D02*
X28985714Y3816610D01*
X28985714Y3816610D02*
X28938095Y3768991D01*
X28938095Y3768991D02*
X28842857Y3721372D01*
X28842857Y3721372D02*
X28461905Y3721372D01*
X29366667Y4245181D02*
X30033333Y4245181D01*
X30033333Y4245181D02*
X29604762Y3245181D01*
D11*
X32316666Y9482927D02*
X32716666Y9482927D01*
X32516666Y8782927D02*
X32516666Y9482927D01*
X32949999Y8782927D02*
X32949999Y9482927D01*
X32949999Y9482927D02*
X33216666Y9482927D01*
X33216666Y9482927D02*
X33283333Y9449594D01*
X33283333Y9449594D02*
X33316666Y9416260D01*
X33316666Y9416260D02*
X33349999Y9349594D01*
X33349999Y9349594D02*
X33349999Y9249594D01*
X33349999Y9249594D02*
X33316666Y9182927D01*
X33316666Y9182927D02*
X33283333Y9149594D01*
X33283333Y9149594D02*
X33216666Y9116260D01*
X33216666Y9116260D02*
X32949999Y9116260D01*
X33949999Y9249594D02*
X33949999Y8782927D01*
X33783333Y9516260D02*
X33616666Y9016260D01*
X33616666Y9016260D02*
X34049999Y9016260D01*
X32718859Y8459094D02*
X32652192Y8492427D01*
X32652192Y8492427D02*
X32552192Y8492427D01*
X32552192Y8492427D02*
X32452192Y8459094D01*
X32452192Y8459094D02*
X32385526Y8392427D01*
X32385526Y8392427D02*
X32352192Y8325760D01*
X32352192Y8325760D02*
X32318859Y8192427D01*
X32318859Y8192427D02*
X32318859Y8092427D01*
X32318859Y8092427D02*
X32352192Y7959094D01*
X32352192Y7959094D02*
X32385526Y7892427D01*
X32385526Y7892427D02*
X32452192Y7825760D01*
X32452192Y7825760D02*
X32552192Y7792427D01*
X32552192Y7792427D02*
X32618859Y7792427D01*
X32618859Y7792427D02*
X32718859Y7825760D01*
X32718859Y7825760D02*
X32752192Y7859094D01*
X32752192Y7859094D02*
X32752192Y8092427D01*
X32752192Y8092427D02*
X32618859Y8092427D01*
X33052192Y7792427D02*
X33052192Y8492427D01*
X33052192Y8492427D02*
X33452192Y7792427D01*
X33452192Y7792427D02*
X33452192Y8492427D01*
X33785525Y7792427D02*
X33785525Y8492427D01*
X33785525Y8492427D02*
X33952192Y8492427D01*
X33952192Y8492427D02*
X34052192Y8459094D01*
X34052192Y8459094D02*
X34118859Y8392427D01*
X34118859Y8392427D02*
X34152192Y8325760D01*
X34152192Y8325760D02*
X34185525Y8192427D01*
X34185525Y8192427D02*
X34185525Y8092427D01*
X34185525Y8092427D02*
X34152192Y7959094D01*
X34152192Y7959094D02*
X34118859Y7892427D01*
X34118859Y7892427D02*
X34052192Y7825760D01*
X34052192Y7825760D02*
X33952192Y7792427D01*
X33952192Y7792427D02*
X33785525Y7792427D01*
D13*
X21093922Y19930181D02*
X21427255Y18930181D01*
X21427255Y18930181D02*
X21760588Y19930181D01*
X22093922Y18930181D02*
X22093922Y19930181D01*
X22093922Y19930181D02*
X22474874Y19930181D01*
X22474874Y19930181D02*
X22570112Y19882562D01*
X22570112Y19882562D02*
X22617731Y19834943D01*
X22617731Y19834943D02*
X22665350Y19739705D01*
X22665350Y19739705D02*
X22665350Y19596848D01*
X22665350Y19596848D02*
X22617731Y19501610D01*
X22617731Y19501610D02*
X22570112Y19453991D01*
X22570112Y19453991D02*
X22474874Y19406372D01*
X22474874Y19406372D02*
X22093922Y19406372D01*
X23046303Y19215896D02*
X23522493Y19215896D01*
X22951065Y18930181D02*
X23284398Y19930181D01*
X23284398Y19930181D02*
X23617731Y18930181D01*
X12933333Y8445181D02*
X12600000Y8921372D01*
X12361905Y8445181D02*
X12361905Y9445181D01*
X12361905Y9445181D02*
X12742857Y9445181D01*
X12742857Y9445181D02*
X12838095Y9397562D01*
X12838095Y9397562D02*
X12885714Y9349943D01*
X12885714Y9349943D02*
X12933333Y9254705D01*
X12933333Y9254705D02*
X12933333Y9111848D01*
X12933333Y9111848D02*
X12885714Y9016610D01*
X12885714Y9016610D02*
X12838095Y8968991D01*
X12838095Y8968991D02*
X12742857Y8921372D01*
X12742857Y8921372D02*
X12361905Y8921372D01*
X13504762Y9016610D02*
X13409524Y9064229D01*
X13409524Y9064229D02*
X13361905Y9111848D01*
X13361905Y9111848D02*
X13314286Y9207086D01*
X13314286Y9207086D02*
X13314286Y9254705D01*
X13314286Y9254705D02*
X13361905Y9349943D01*
X13361905Y9349943D02*
X13409524Y9397562D01*
X13409524Y9397562D02*
X13504762Y9445181D01*
X13504762Y9445181D02*
X13695238Y9445181D01*
X13695238Y9445181D02*
X13790476Y9397562D01*
X13790476Y9397562D02*
X13838095Y9349943D01*
X13838095Y9349943D02*
X13885714Y9254705D01*
X13885714Y9254705D02*
X13885714Y9207086D01*
X13885714Y9207086D02*
X13838095Y9111848D01*
X13838095Y9111848D02*
X13790476Y9064229D01*
X13790476Y9064229D02*
X13695238Y9016610D01*
X13695238Y9016610D02*
X13504762Y9016610D01*
X13504762Y9016610D02*
X13409524Y8968991D01*
X13409524Y8968991D02*
X13361905Y8921372D01*
X13361905Y8921372D02*
X13314286Y8826134D01*
X13314286Y8826134D02*
X13314286Y8635658D01*
X13314286Y8635658D02*
X13361905Y8540420D01*
X13361905Y8540420D02*
X13409524Y8492800D01*
X13409524Y8492800D02*
X13504762Y8445181D01*
X13504762Y8445181D02*
X13695238Y8445181D01*
X13695238Y8445181D02*
X13790476Y8492800D01*
X13790476Y8492800D02*
X13838095Y8540420D01*
X13838095Y8540420D02*
X13885714Y8635658D01*
X13885714Y8635658D02*
X13885714Y8826134D01*
X13885714Y8826134D02*
X13838095Y8921372D01*
X13838095Y8921372D02*
X13790476Y8968991D01*
X13790476Y8968991D02*
X13695238Y9016610D01*
X13057142Y16240420D02*
X13009523Y16192800D01*
X13009523Y16192800D02*
X12866666Y16145181D01*
X12866666Y16145181D02*
X12771428Y16145181D01*
X12771428Y16145181D02*
X12628571Y16192800D01*
X12628571Y16192800D02*
X12533333Y16288039D01*
X12533333Y16288039D02*
X12485714Y16383277D01*
X12485714Y16383277D02*
X12438095Y16573753D01*
X12438095Y16573753D02*
X12438095Y16716610D01*
X12438095Y16716610D02*
X12485714Y16907086D01*
X12485714Y16907086D02*
X12533333Y17002324D01*
X12533333Y17002324D02*
X12628571Y17097562D01*
X12628571Y17097562D02*
X12771428Y17145181D01*
X12771428Y17145181D02*
X12866666Y17145181D01*
X12866666Y17145181D02*
X13009523Y17097562D01*
X13009523Y17097562D02*
X13057142Y17049943D01*
X14009523Y16145181D02*
X13438095Y16145181D01*
X13723809Y16145181D02*
X13723809Y17145181D01*
X13723809Y17145181D02*
X13628571Y17002324D01*
X13628571Y17002324D02*
X13533333Y16907086D01*
X13533333Y16907086D02*
X13438095Y16859467D01*
X14961904Y16145181D02*
X14390476Y16145181D01*
X14676190Y16145181D02*
X14676190Y17145181D01*
X14676190Y17145181D02*
X14580952Y17002324D01*
X14580952Y17002324D02*
X14485714Y16907086D01*
X14485714Y16907086D02*
X14390476Y16859467D01*
X32457142Y15445181D02*
X32123809Y15921372D01*
X31885714Y15445181D02*
X31885714Y16445181D01*
X31885714Y16445181D02*
X32266666Y16445181D01*
X32266666Y16445181D02*
X32361904Y16397562D01*
X32361904Y16397562D02*
X32409523Y16349943D01*
X32409523Y16349943D02*
X32457142Y16254705D01*
X32457142Y16254705D02*
X32457142Y16111848D01*
X32457142Y16111848D02*
X32409523Y16016610D01*
X32409523Y16016610D02*
X32361904Y15968991D01*
X32361904Y15968991D02*
X32266666Y15921372D01*
X32266666Y15921372D02*
X31885714Y15921372D01*
X33409523Y15445181D02*
X32838095Y15445181D01*
X33123809Y15445181D02*
X33123809Y16445181D01*
X33123809Y16445181D02*
X33028571Y16302324D01*
X33028571Y16302324D02*
X32933333Y16207086D01*
X32933333Y16207086D02*
X32838095Y16159467D01*
X33790476Y16349943D02*
X33838095Y16397562D01*
X33838095Y16397562D02*
X33933333Y16445181D01*
X33933333Y16445181D02*
X34171428Y16445181D01*
X34171428Y16445181D02*
X34266666Y16397562D01*
X34266666Y16397562D02*
X34314285Y16349943D01*
X34314285Y16349943D02*
X34361904Y16254705D01*
X34361904Y16254705D02*
X34361904Y16159467D01*
X34361904Y16159467D02*
X34314285Y16016610D01*
X34314285Y16016610D02*
X33742857Y15445181D01*
X33742857Y15445181D02*
X34361904Y15445181D01*
X44659580Y15933334D02*
X44707200Y15885715D01*
X44707200Y15885715D02*
X44754819Y15742858D01*
X44754819Y15742858D02*
X44754819Y15647620D01*
X44754819Y15647620D02*
X44707200Y15504763D01*
X44707200Y15504763D02*
X44611961Y15409525D01*
X44611961Y15409525D02*
X44516723Y15361906D01*
X44516723Y15361906D02*
X44326247Y15314287D01*
X44326247Y15314287D02*
X44183390Y15314287D01*
X44183390Y15314287D02*
X43992914Y15361906D01*
X43992914Y15361906D02*
X43897676Y15409525D01*
X43897676Y15409525D02*
X43802438Y15504763D01*
X43802438Y15504763D02*
X43754819Y15647620D01*
X43754819Y15647620D02*
X43754819Y15742858D01*
X43754819Y15742858D02*
X43802438Y15885715D01*
X43802438Y15885715D02*
X43850057Y15933334D01*
X43754819Y16266668D02*
X43754819Y16885715D01*
X43754819Y16885715D02*
X44135771Y16552382D01*
X44135771Y16552382D02*
X44135771Y16695239D01*
X44135771Y16695239D02*
X44183390Y16790477D01*
X44183390Y16790477D02*
X44231009Y16838096D01*
X44231009Y16838096D02*
X44326247Y16885715D01*
X44326247Y16885715D02*
X44564342Y16885715D01*
X44564342Y16885715D02*
X44659580Y16838096D01*
X44659580Y16838096D02*
X44707200Y16790477D01*
X44707200Y16790477D02*
X44754819Y16695239D01*
X44754819Y16695239D02*
X44754819Y16409525D01*
X44754819Y16409525D02*
X44707200Y16314287D01*
X44707200Y16314287D02*
X44659580Y16266668D01*
X8866666Y2145181D02*
X8866666Y1430896D01*
X8866666Y1430896D02*
X8819047Y1288039D01*
X8819047Y1288039D02*
X8723809Y1192800D01*
X8723809Y1192800D02*
X8580952Y1145181D01*
X8580952Y1145181D02*
X8485714Y1145181D01*
X9295238Y2049943D02*
X9342857Y2097562D01*
X9342857Y2097562D02*
X9438095Y2145181D01*
X9438095Y2145181D02*
X9676190Y2145181D01*
X9676190Y2145181D02*
X9771428Y2097562D01*
X9771428Y2097562D02*
X9819047Y2049943D01*
X9819047Y2049943D02*
X9866666Y1954705D01*
X9866666Y1954705D02*
X9866666Y1859467D01*
X9866666Y1859467D02*
X9819047Y1716610D01*
X9819047Y1716610D02*
X9247619Y1145181D01*
X9247619Y1145181D02*
X9866666Y1145181D01*
G36*
X13022765Y1059070D02*
G01*
X10081145Y1059070D01*
X10081145Y2235801D01*
X10192256Y2235801D01*
X10195516Y2221464D01*
X10528849Y1221464D01*
X10534843Y1208039D01*
X10538353Y1203992D01*
X10540750Y1199198D01*
X10547858Y1193033D01*
X10554017Y1185932D01*
X10558806Y1183538D01*
X10562857Y1180024D01*
X10571782Y1177050D01*
X10580190Y1172845D01*
X10585534Y1172466D01*
X10590620Y1170770D01*
X10600000Y1171437D01*
X10609380Y1170770D01*
X10614465Y1172466D01*
X10619810Y1172845D01*
X10628220Y1177051D01*
X10637142Y1180024D01*
X10641189Y1183535D01*
X10645983Y1185931D01*
X10652146Y1193037D01*
X10659250Y1199198D01*
X10661645Y1203990D01*
X10665157Y1208038D01*
X10671151Y1221464D01*
X10869533Y1816610D01*
X11144048Y1816610D01*
X11144048Y1673753D01*
X11144299Y1671200D01*
X11144137Y1670107D01*
X11144946Y1664634D01*
X11145489Y1659121D01*
X11145911Y1658100D01*
X11146287Y1655563D01*
X11193906Y1465087D01*
X11194291Y1464008D01*
X11194330Y1463468D01*
X11196657Y1457387D01*
X11198853Y1451241D01*
X11199175Y1450806D01*
X11199585Y1449736D01*
X11247204Y1354498D01*
X11251167Y1348202D01*
X11251925Y1346372D01*
X11253614Y1344314D01*
X11255036Y1342055D01*
X11256534Y1340756D01*
X11261253Y1335006D01*
X11356491Y1239767D01*
X11367856Y1230439D01*
X11370346Y1229408D01*
X11372381Y1227643D01*
X11385807Y1221649D01*
X11528663Y1174030D01*
X11535918Y1172381D01*
X11537749Y1171622D01*
X11540402Y1171361D01*
X11543000Y1170770D01*
X11544974Y1170911D01*
X11552381Y1170181D01*
X11647619Y1170181D01*
X11655024Y1170911D01*
X11656999Y1170770D01*
X11659596Y1171361D01*
X11662251Y1171622D01*
X11664082Y1172381D01*
X11671336Y1174030D01*
X11814193Y1221649D01*
X11827618Y1227643D01*
X11829653Y1229409D01*
X11832144Y1230440D01*
X11843510Y1239768D01*
X11891128Y1287387D01*
X11900456Y1298753D01*
X11911654Y1325789D01*
X11911654Y1355052D01*
X11900455Y1382088D01*
X11879762Y1402781D01*
X11852726Y1413979D01*
X11823463Y1413979D01*
X11796427Y1402780D01*
X11785061Y1393452D01*
X11749962Y1358353D01*
X11635449Y1320181D01*
X11564551Y1320181D01*
X11450038Y1358352D01*
X11375925Y1432466D01*
X11337431Y1509453D01*
X11294048Y1682987D01*
X11294048Y1807376D01*
X11296356Y1816610D01*
X12144048Y1816610D01*
X12144048Y1673753D01*
X12144299Y1671200D01*
X12144137Y1670107D01*
X12144946Y1664634D01*
X12145489Y1659121D01*
X12145911Y1658100D01*
X12146287Y1655563D01*
X12193906Y1465087D01*
X12194291Y1464008D01*
X12194330Y1463468D01*
X12196657Y1457387D01*
X12198853Y1451241D01*
X12199175Y1450806D01*
X12199585Y1449736D01*
X12247204Y1354498D01*
X12251167Y1348202D01*
X12251925Y1346372D01*
X12253614Y1344314D01*
X12255036Y1342055D01*
X12256534Y1340756D01*
X12261253Y1335006D01*
X12356491Y1239767D01*
X12367856Y1230439D01*
X12370346Y1229408D01*
X12372381Y1227643D01*
X12385807Y1221649D01*
X12528663Y1174030D01*
X12535918Y1172381D01*
X12537749Y1171622D01*
X12540402Y1171361D01*
X12543000Y1170770D01*
X12544974Y1170911D01*
X12552381Y1170181D01*
X12647619Y1170181D01*
X12655024Y1170911D01*
X12656999Y1170770D01*
X12659596Y1171361D01*
X12662251Y1171622D01*
X12664082Y1172381D01*
X12671336Y1174030D01*
X12814193Y1221649D01*
X12827618Y1227643D01*
X12829653Y1229409D01*
X12832144Y1230440D01*
X12843510Y1239768D01*
X12891128Y1287387D01*
X12900456Y1298753D01*
X12911654Y1325789D01*
X12911654Y1355052D01*
X12900455Y1382088D01*
X12879762Y1402781D01*
X12852726Y1413979D01*
X12823463Y1413979D01*
X12796427Y1402780D01*
X12785061Y1393452D01*
X12749962Y1358353D01*
X12635449Y1320181D01*
X12564551Y1320181D01*
X12450038Y1358352D01*
X12375925Y1432466D01*
X12337431Y1509453D01*
X12294048Y1682987D01*
X12294048Y1807376D01*
X12337431Y1980910D01*
X12375925Y2057897D01*
X12450038Y2132010D01*
X12564551Y2170181D01*
X12635449Y2170181D01*
X12749962Y2132010D01*
X12785062Y2096910D01*
X12796427Y2087583D01*
X12823463Y2076384D01*
X12852726Y2076384D01*
X12879762Y2087583D01*
X12900455Y2108276D01*
X12911654Y2135312D01*
X12911654Y2164575D01*
X12900455Y2191611D01*
X12891128Y2202976D01*
X12843509Y2250595D01*
X12832144Y2259922D01*
X12829653Y2260954D01*
X12827618Y2262719D01*
X12814193Y2268713D01*
X12671336Y2316332D01*
X12664082Y2317982D01*
X12662251Y2318740D01*
X12659596Y2319002D01*
X12656999Y2319592D01*
X12655024Y2319452D01*
X12647619Y2320181D01*
X12552381Y2320181D01*
X12544974Y2319452D01*
X12543000Y2319592D01*
X12540402Y2319002D01*
X12537749Y2318740D01*
X12535918Y2317982D01*
X12528663Y2316332D01*
X12385807Y2268713D01*
X12372381Y2262719D01*
X12370346Y2260955D01*
X12367856Y2259923D01*
X12356491Y2250595D01*
X12261253Y2155357D01*
X12256534Y2149608D01*
X12255036Y2148308D01*
X12253614Y2146049D01*
X12251926Y2143992D01*
X12251168Y2142165D01*
X12247204Y2135865D01*
X12199585Y2040627D01*
X12199175Y2039558D01*
X12198853Y2039122D01*
X12196657Y2032977D01*
X12194330Y2026895D01*
X12194291Y2026356D01*
X12193906Y2025276D01*
X12146287Y1834800D01*
X12145911Y1832264D01*
X12145489Y1831242D01*
X12144946Y1825730D01*
X12144137Y1820256D01*
X12144299Y1819164D01*
X12144048Y1816610D01*
X11296356Y1816610D01*
X11337431Y1980910D01*
X11375925Y2057897D01*
X11450038Y2132010D01*
X11564551Y2170181D01*
X11635449Y2170181D01*
X11749962Y2132010D01*
X11785062Y2096910D01*
X11796427Y2087583D01*
X11823463Y2076384D01*
X11852726Y2076384D01*
X11879762Y2087583D01*
X11900455Y2108276D01*
X11911654Y2135312D01*
X11911654Y2164575D01*
X11900455Y2191611D01*
X11891128Y2202976D01*
X11843509Y2250595D01*
X11832144Y2259922D01*
X11829653Y2260954D01*
X11827618Y2262719D01*
X11814193Y2268713D01*
X11671336Y2316332D01*
X11664082Y2317982D01*
X11662251Y2318740D01*
X11659596Y2319002D01*
X11656999Y2319592D01*
X11655024Y2319452D01*
X11647619Y2320181D01*
X11552381Y2320181D01*
X11544974Y2319452D01*
X11543000Y2319592D01*
X11540402Y2319002D01*
X11537749Y2318740D01*
X11535918Y2317982D01*
X11528663Y2316332D01*
X11385807Y2268713D01*
X11372381Y2262719D01*
X11370346Y2260955D01*
X11367856Y2259923D01*
X11356491Y2250595D01*
X11261253Y2155357D01*
X11256534Y2149608D01*
X11255036Y2148308D01*
X11253614Y2146049D01*
X11251926Y2143992D01*
X11251168Y2142165D01*
X11247204Y2135865D01*
X11199585Y2040627D01*
X11199175Y2039558D01*
X11198853Y2039122D01*
X11196657Y2032977D01*
X11194330Y2026895D01*
X11194291Y2026356D01*
X11193906Y2025276D01*
X11146287Y1834800D01*
X11145911Y1832264D01*
X11145489Y1831242D01*
X11144946Y1825730D01*
X11144137Y1820256D01*
X11144299Y1819164D01*
X11144048Y1816610D01*
X10869533Y1816610D01*
X11004484Y2221464D01*
X11007744Y2235800D01*
X11005669Y2264990D01*
X10992583Y2291164D01*
X10970475Y2310338D01*
X10942713Y2319592D01*
X10913523Y2317517D01*
X10887350Y2304430D01*
X10868176Y2282323D01*
X10862182Y2268898D01*
X10600000Y1482352D01*
X10337818Y2268898D01*
X10331824Y2282324D01*
X10312650Y2304431D01*
X10286477Y2317517D01*
X10257287Y2319592D01*
X10229524Y2310338D01*
X10207417Y2291164D01*
X10194331Y2264991D01*
X10192256Y2235801D01*
X10081145Y2235801D01*
X10081145Y2431292D01*
X13022765Y2431292D01*
X13022765Y1059070D01*
G37*
X35066666Y3845181D02*
X35066666Y3130896D01*
X35066666Y3130896D02*
X35019047Y2988039D01*
X35019047Y2988039D02*
X34923809Y2892800D01*
X34923809Y2892800D02*
X34780952Y2845181D01*
X34780952Y2845181D02*
X34685714Y2845181D01*
X36066666Y2845181D02*
X35495238Y2845181D01*
X35780952Y2845181D02*
X35780952Y3845181D01*
X35780952Y3845181D02*
X35685714Y3702324D01*
X35685714Y3702324D02*
X35590476Y3607086D01*
X35590476Y3607086D02*
X35495238Y3559467D01*
G36*
X39244098Y3408328D02*
G01*
X39272619Y3351286D01*
X39272619Y3335238D01*
X38946429Y3270001D01*
X38946429Y3351286D01*
X38974949Y3408328D01*
X39031991Y3436848D01*
X39187057Y3436848D01*
X39244098Y3408328D01*
G37*
G36*
X41939286Y2939153D02*
G01*
X41901343Y2920181D01*
X41698658Y2920181D01*
X41641616Y2948702D01*
X41613096Y3005744D01*
X41613096Y3065572D01*
X41641616Y3122614D01*
X41698658Y3151134D01*
X41919048Y3151134D01*
X41933680Y3152575D01*
X41936169Y3153607D01*
X41938857Y3153797D01*
X41939286Y3153962D01*
X41939286Y2939153D01*
G37*
G36*
X36910228Y3205896D02*
G01*
X36642152Y3205896D01*
X36776190Y3608011D01*
X36910228Y3205896D01*
G37*
G36*
X42200397Y2659070D02*
G01*
X36257335Y2659070D01*
X36257335Y2854561D01*
X36368446Y2854561D01*
X36370521Y2825371D01*
X36383607Y2799198D01*
X36405714Y2780024D01*
X36433477Y2770770D01*
X36462667Y2772845D01*
X36488840Y2785931D01*
X36508014Y2808038D01*
X36514008Y2821464D01*
X36592152Y3055896D01*
X36960228Y3055896D01*
X37038372Y2821464D01*
X37044366Y2808039D01*
X37063540Y2785932D01*
X37089713Y2772845D01*
X37118903Y2770770D01*
X37146665Y2780024D01*
X37168773Y2799198D01*
X37181859Y2825372D01*
X37183934Y2854562D01*
X37180674Y2868898D01*
X36966358Y3511848D01*
X37367857Y3511848D01*
X37367857Y2845181D01*
X37369298Y2830549D01*
X37380497Y2803513D01*
X37401189Y2782821D01*
X37428225Y2771622D01*
X37457489Y2771622D01*
X37484525Y2782821D01*
X37505217Y2803513D01*
X37516416Y2830549D01*
X37517857Y2845181D01*
X37517857Y3385544D01*
X37534903Y3402590D01*
X37603419Y3436848D01*
X37710866Y3436848D01*
X37767907Y3408328D01*
X37796428Y3351286D01*
X37796428Y2845181D01*
X37797869Y2830549D01*
X37809068Y2803513D01*
X37829760Y2782821D01*
X37856796Y2771622D01*
X37886060Y2771622D01*
X37913096Y2782821D01*
X37933788Y2803513D01*
X37944987Y2830549D01*
X37946428Y2845181D01*
X37946428Y3368991D01*
X37944987Y3383623D01*
X37943956Y3386112D01*
X37943765Y3388801D01*
X37938510Y3402532D01*
X37890891Y3497770D01*
X37889350Y3500218D01*
X37888966Y3501371D01*
X37887720Y3502808D01*
X37883059Y3510213D01*
X37875954Y3516375D01*
X37869793Y3523479D01*
X37865026Y3526480D01*
X38131203Y3526480D01*
X38131203Y3497216D01*
X38142402Y3470180D01*
X38163094Y3449488D01*
X38190130Y3438289D01*
X38204762Y3436848D01*
X38272619Y3436848D01*
X38272619Y2988039D01*
X38274060Y2973407D01*
X38275091Y2970918D01*
X38275282Y2968230D01*
X38280537Y2954498D01*
X38328156Y2859259D01*
X38329696Y2856813D01*
X38330081Y2855658D01*
X38331327Y2854221D01*
X38335988Y2846817D01*
X38343090Y2840658D01*
X38349254Y2833550D01*
X38356659Y2828889D01*
X38358096Y2827643D01*
X38359249Y2827259D01*
X38361697Y2825718D01*
X38456935Y2778099D01*
X38470666Y2772844D01*
X38473355Y2772653D01*
X38475844Y2771622D01*
X38490476Y2770181D01*
X38585714Y2770181D01*
X38600346Y2771622D01*
X38627382Y2782821D01*
X38648074Y2803513D01*
X38659273Y2830549D01*
X38659273Y2859813D01*
X38648074Y2886849D01*
X38627382Y2907541D01*
X38600346Y2918740D01*
X38585714Y2920181D01*
X38508181Y2920181D01*
X38451139Y2948702D01*
X38422619Y3005744D01*
X38422619Y3368991D01*
X38796429Y3368991D01*
X38796429Y2988039D01*
X38797870Y2973407D01*
X38798901Y2970918D01*
X38799092Y2968230D01*
X38804347Y2954498D01*
X38851966Y2859259D01*
X38853506Y2856813D01*
X38853891Y2855658D01*
X38855137Y2854221D01*
X38859798Y2846817D01*
X38866900Y2840658D01*
X38873064Y2833550D01*
X38880469Y2828889D01*
X38881906Y2827643D01*
X38883059Y2827259D01*
X38885507Y2825718D01*
X38980745Y2778099D01*
X38994476Y2772844D01*
X38997165Y2772653D01*
X38999654Y2771622D01*
X39014286Y2770181D01*
X39204762Y2770181D01*
X39219394Y2771622D01*
X39221883Y2772654D01*
X39224571Y2772844D01*
X39238303Y2778099D01*
X39333541Y2825718D01*
X39345984Y2833550D01*
X39365157Y2855658D01*
X39374411Y2883419D01*
X39372337Y2912609D01*
X39359249Y2938784D01*
X39337142Y2957957D01*
X39309380Y2967211D01*
X39280190Y2965137D01*
X39266459Y2959882D01*
X39187057Y2920181D01*
X39031991Y2920181D01*
X38974949Y2948702D01*
X38946429Y3005744D01*
X38946429Y3117030D01*
X39362327Y3200209D01*
X39376393Y3204492D01*
X39382498Y3208581D01*
X39389287Y3211393D01*
X39394539Y3216646D01*
X39400707Y3220776D01*
X39404781Y3226887D01*
X39409979Y3232085D01*
X39412822Y3238949D01*
X39416939Y3245124D01*
X39418364Y3252330D01*
X39421178Y3259121D01*
X39422619Y3273753D01*
X39422619Y3368991D01*
X39421178Y3383623D01*
X39420147Y3386112D01*
X39419956Y3388801D01*
X39414701Y3402532D01*
X39367082Y3497770D01*
X39365541Y3500218D01*
X39365157Y3501371D01*
X39363911Y3502808D01*
X39359250Y3510213D01*
X39357365Y3511848D01*
X39701191Y3511848D01*
X39701191Y2845181D01*
X39702632Y2830549D01*
X39713831Y2803513D01*
X39734523Y2782821D01*
X39761559Y2771622D01*
X39790823Y2771622D01*
X39817859Y2782821D01*
X39838551Y2803513D01*
X39849750Y2830549D01*
X39851191Y2845181D01*
X39851191Y3385544D01*
X39868237Y3402590D01*
X39936753Y3436848D01*
X40044200Y3436848D01*
X40101241Y3408328D01*
X40129762Y3351286D01*
X40129762Y2845181D01*
X40131203Y2830549D01*
X40142402Y2803513D01*
X40163094Y2782821D01*
X40190130Y2771622D01*
X40219394Y2771622D01*
X40246430Y2782821D01*
X40267122Y2803513D01*
X40278321Y2830549D01*
X40279762Y2845181D01*
X40279762Y3368991D01*
X40278321Y3383623D01*
X40277290Y3386112D01*
X40277099Y3388801D01*
X40271844Y3402532D01*
X40224225Y3497770D01*
X40222684Y3500218D01*
X40222300Y3501371D01*
X40221054Y3502808D01*
X40216393Y3510213D01*
X40214508Y3511848D01*
X40605953Y3511848D01*
X40605953Y2845181D01*
X40607394Y2830549D01*
X40618593Y2803513D01*
X40639285Y2782821D01*
X40666321Y2771622D01*
X40695585Y2771622D01*
X40722621Y2782821D01*
X40743313Y2803513D01*
X40754512Y2830549D01*
X40755953Y2845181D01*
X40755953Y3385544D01*
X40772999Y3402590D01*
X40841515Y3436848D01*
X40948962Y3436848D01*
X41006003Y3408328D01*
X41034524Y3351286D01*
X41034524Y2845181D01*
X41035965Y2830549D01*
X41047164Y2803513D01*
X41067856Y2782821D01*
X41094892Y2771622D01*
X41124156Y2771622D01*
X41151192Y2782821D01*
X41171884Y2803513D01*
X41183083Y2830549D01*
X41184524Y2845181D01*
X41184524Y3083277D01*
X41463096Y3083277D01*
X41463096Y2988039D01*
X41464537Y2973407D01*
X41465568Y2970918D01*
X41465759Y2968230D01*
X41471014Y2954498D01*
X41518633Y2859259D01*
X41520173Y2856813D01*
X41520558Y2855658D01*
X41521804Y2854221D01*
X41526465Y2846817D01*
X41533567Y2840658D01*
X41539731Y2833550D01*
X41547136Y2828889D01*
X41548573Y2827643D01*
X41549726Y2827259D01*
X41552174Y2825718D01*
X41647412Y2778099D01*
X41661143Y2772844D01*
X41663832Y2772653D01*
X41666321Y2771622D01*
X41680953Y2770181D01*
X41919048Y2770181D01*
X41933680Y2771622D01*
X41936169Y2772654D01*
X41938857Y2772844D01*
X41952589Y2778099D01*
X41969089Y2786350D01*
X41972618Y2782821D01*
X41999654Y2771622D01*
X42028918Y2771622D01*
X42055954Y2782821D01*
X42076646Y2803513D01*
X42087845Y2830549D01*
X42089286Y2845181D01*
X42089286Y3368991D01*
X42087845Y3383623D01*
X42086814Y3386112D01*
X42086623Y3388801D01*
X42081368Y3402532D01*
X42033749Y3497770D01*
X42032208Y3500218D01*
X42031824Y3501371D01*
X42030578Y3502808D01*
X42025917Y3510213D01*
X42018812Y3516375D01*
X42012651Y3523479D01*
X42005245Y3528141D01*
X42003809Y3529386D01*
X42002655Y3529771D01*
X42000208Y3531311D01*
X41904970Y3578930D01*
X41891238Y3584185D01*
X41888550Y3584376D01*
X41886061Y3585407D01*
X41871429Y3586848D01*
X41680953Y3586848D01*
X41666321Y3585407D01*
X41663832Y3584377D01*
X41661143Y3584185D01*
X41647412Y3578930D01*
X41552174Y3531311D01*
X41539731Y3523479D01*
X41520558Y3501371D01*
X41511304Y3473610D01*
X41513378Y3444420D01*
X41526465Y3418245D01*
X41548573Y3399072D01*
X41576334Y3389818D01*
X41605524Y3391892D01*
X41619256Y3397147D01*
X41698658Y3436848D01*
X41853724Y3436848D01*
X41910765Y3408328D01*
X41939286Y3351286D01*
X41939286Y3320106D01*
X41901343Y3301134D01*
X41680953Y3301134D01*
X41666321Y3299693D01*
X41663832Y3298663D01*
X41661143Y3298471D01*
X41647412Y3293216D01*
X41552174Y3245597D01*
X41549726Y3244057D01*
X41548573Y3243672D01*
X41547136Y3242427D01*
X41539731Y3237765D01*
X41533569Y3230661D01*
X41526465Y3224499D01*
X41521803Y3217094D01*
X41520558Y3215657D01*
X41520173Y3214504D01*
X41518633Y3212056D01*
X41471014Y3116818D01*
X41465759Y3103086D01*
X41465568Y3100399D01*
X41464537Y3097909D01*
X41463096Y3083277D01*
X41184524Y3083277D01*
X41184524Y3368991D01*
X41183083Y3383623D01*
X41182052Y3386112D01*
X41181861Y3388801D01*
X41176606Y3402532D01*
X41128987Y3497770D01*
X41127446Y3500218D01*
X41127062Y3501371D01*
X41125816Y3502808D01*
X41121155Y3510213D01*
X41114050Y3516375D01*
X41107889Y3523479D01*
X41100483Y3528141D01*
X41099047Y3529386D01*
X41097893Y3529771D01*
X41095446Y3531311D01*
X41000208Y3578930D01*
X40986476Y3584185D01*
X40983788Y3584376D01*
X40981299Y3585407D01*
X40966667Y3586848D01*
X40823810Y3586848D01*
X40809178Y3585407D01*
X40806689Y3584377D01*
X40804000Y3584185D01*
X40790269Y3578930D01*
X40742022Y3554807D01*
X40722621Y3574208D01*
X40695585Y3585407D01*
X40666321Y3585407D01*
X40639285Y3574208D01*
X40618593Y3553516D01*
X40607394Y3526480D01*
X40605953Y3511848D01*
X40214508Y3511848D01*
X40209288Y3516375D01*
X40203127Y3523479D01*
X40195721Y3528141D01*
X40194285Y3529386D01*
X40193131Y3529771D01*
X40190684Y3531311D01*
X40095446Y3578930D01*
X40081714Y3584185D01*
X40079026Y3584376D01*
X40076537Y3585407D01*
X40061905Y3586848D01*
X39919048Y3586848D01*
X39904416Y3585407D01*
X39901927Y3584377D01*
X39899238Y3584185D01*
X39885507Y3578930D01*
X39837260Y3554807D01*
X39817859Y3574208D01*
X39790823Y3585407D01*
X39761559Y3585407D01*
X39734523Y3574208D01*
X39713831Y3553516D01*
X39702632Y3526480D01*
X39701191Y3511848D01*
X39357365Y3511848D01*
X39352145Y3516375D01*
X39345984Y3523479D01*
X39338578Y3528141D01*
X39337142Y3529386D01*
X39335988Y3529771D01*
X39333541Y3531311D01*
X39238303Y3578930D01*
X39224571Y3584185D01*
X39221883Y3584376D01*
X39219394Y3585407D01*
X39204762Y3586848D01*
X39014286Y3586848D01*
X38999654Y3585407D01*
X38997165Y3584377D01*
X38994476Y3584185D01*
X38980745Y3578930D01*
X38885507Y3531311D01*
X38883059Y3529771D01*
X38881906Y3529386D01*
X38880469Y3528141D01*
X38873064Y3523479D01*
X38866902Y3516375D01*
X38859798Y3510213D01*
X38855136Y3502808D01*
X38853891Y3501371D01*
X38853506Y3500218D01*
X38851966Y3497770D01*
X38804347Y3402532D01*
X38799092Y3388800D01*
X38798901Y3386113D01*
X38797870Y3383623D01*
X38796429Y3368991D01*
X38422619Y3368991D01*
X38422619Y3436848D01*
X38585714Y3436848D01*
X38600346Y3438289D01*
X38627382Y3449488D01*
X38648074Y3470180D01*
X38659273Y3497216D01*
X38659273Y3526480D01*
X38648074Y3553516D01*
X38627382Y3574208D01*
X38600346Y3585407D01*
X38585714Y3586848D01*
X38422619Y3586848D01*
X38422619Y3845181D01*
X38421178Y3859813D01*
X38409979Y3886849D01*
X38389287Y3907541D01*
X38362251Y3918740D01*
X38332987Y3918740D01*
X38305951Y3907541D01*
X38285259Y3886849D01*
X38274060Y3859813D01*
X38272619Y3845181D01*
X38272619Y3586848D01*
X38204762Y3586848D01*
X38190130Y3585407D01*
X38163094Y3574208D01*
X38142402Y3553516D01*
X38131203Y3526480D01*
X37865026Y3526480D01*
X37862387Y3528141D01*
X37860951Y3529386D01*
X37859797Y3529771D01*
X37857350Y3531311D01*
X37762112Y3578930D01*
X37748380Y3584185D01*
X37745692Y3584376D01*
X37743203Y3585407D01*
X37728571Y3586848D01*
X37585714Y3586848D01*
X37571082Y3585407D01*
X37568593Y3584377D01*
X37565904Y3584185D01*
X37552173Y3578930D01*
X37503926Y3554807D01*
X37484525Y3574208D01*
X37457489Y3585407D01*
X37428225Y3585407D01*
X37401189Y3574208D01*
X37380497Y3553516D01*
X37369298Y3526480D01*
X37367857Y3511848D01*
X36966358Y3511848D01*
X36847341Y3868898D01*
X36841347Y3882324D01*
X36837835Y3886373D01*
X36835440Y3891164D01*
X36828336Y3897326D01*
X36822173Y3904431D01*
X36817379Y3906828D01*
X36813332Y3910338D01*
X36804410Y3913312D01*
X36796000Y3917517D01*
X36790655Y3917897D01*
X36785570Y3919592D01*
X36776190Y3918926D01*
X36766810Y3919592D01*
X36761724Y3917897D01*
X36756380Y3917517D01*
X36747972Y3913313D01*
X36739047Y3910338D01*
X36734996Y3906825D01*
X36730207Y3904430D01*
X36724048Y3897330D01*
X36716940Y3891164D01*
X36714543Y3886371D01*
X36711033Y3882323D01*
X36705039Y3868898D01*
X36371706Y2868898D01*
X36368446Y2854561D01*
X36257335Y2854561D01*
X36257335Y4030703D01*
X42200397Y4030703D01*
X42200397Y2659070D01*
G37*
D11*
X33917073Y10016667D02*
X33917073Y10416667D01*
X34617073Y10216667D02*
X33917073Y10216667D01*
X34617073Y10650000D02*
X33917073Y10650000D01*
X33917073Y10650000D02*
X33917073Y10916667D01*
X33917073Y10916667D02*
X33950406Y10983333D01*
X33950406Y10983333D02*
X33983740Y11016667D01*
X33983740Y11016667D02*
X34050406Y11050000D01*
X34050406Y11050000D02*
X34150406Y11050000D01*
X34150406Y11050000D02*
X34217073Y11016667D01*
X34217073Y11016667D02*
X34250406Y10983333D01*
X34250406Y10983333D02*
X34283740Y10916667D01*
X34283740Y10916667D02*
X34283740Y10650000D01*
X33917073Y11283333D02*
X33917073Y11716667D01*
X33917073Y11716667D02*
X34183740Y11483333D01*
X34183740Y11483333D02*
X34183740Y11583333D01*
X34183740Y11583333D02*
X34217073Y11650000D01*
X34217073Y11650000D02*
X34250406Y11683333D01*
X34250406Y11683333D02*
X34317073Y11716667D01*
X34317073Y11716667D02*
X34483740Y11716667D01*
X34483740Y11716667D02*
X34550406Y11683333D01*
X34550406Y11683333D02*
X34583740Y11650000D01*
X34583740Y11650000D02*
X34617073Y11583333D01*
X34617073Y11583333D02*
X34617073Y11383333D01*
X34617073Y11383333D02*
X34583740Y11316667D01*
X34583740Y11316667D02*
X34550406Y11283333D01*
X35507573Y10552193D02*
X35174240Y10318860D01*
X35507573Y10152193D02*
X34807573Y10152193D01*
X34807573Y10152193D02*
X34807573Y10418860D01*
X34807573Y10418860D02*
X34840906Y10485526D01*
X34840906Y10485526D02*
X34874240Y10518860D01*
X34874240Y10518860D02*
X34940906Y10552193D01*
X34940906Y10552193D02*
X35040906Y10552193D01*
X35040906Y10552193D02*
X35107573Y10518860D01*
X35107573Y10518860D02*
X35140906Y10485526D01*
X35140906Y10485526D02*
X35174240Y10418860D01*
X35174240Y10418860D02*
X35174240Y10152193D01*
X35140906Y11085526D02*
X35140906Y10852193D01*
X35507573Y10852193D02*
X34807573Y10852193D01*
X34807573Y10852193D02*
X34807573Y11185526D01*
X35440906Y11852193D02*
X35474240Y11818860D01*
X35474240Y11818860D02*
X35507573Y11718860D01*
X35507573Y11718860D02*
X35507573Y11652193D01*
X35507573Y11652193D02*
X35474240Y11552193D01*
X35474240Y11552193D02*
X35407573Y11485526D01*
X35407573Y11485526D02*
X35340906Y11452193D01*
X35340906Y11452193D02*
X35207573Y11418860D01*
X35207573Y11418860D02*
X35107573Y11418860D01*
X35107573Y11418860D02*
X34974240Y11452193D01*
X34974240Y11452193D02*
X34907573Y11485526D01*
X34907573Y11485526D02*
X34840906Y11552193D01*
X34840906Y11552193D02*
X34807573Y11652193D01*
X34807573Y11652193D02*
X34807573Y11718860D01*
X34807573Y11718860D02*
X34840906Y11818860D01*
X34840906Y11818860D02*
X34874240Y11852193D01*
D13*
X28917438Y17960589D02*
X28869819Y17865351D01*
X28869819Y17865351D02*
X28869819Y17722494D01*
X28869819Y17722494D02*
X28917438Y17579637D01*
X28917438Y17579637D02*
X29012676Y17484399D01*
X29012676Y17484399D02*
X29107914Y17436780D01*
X29107914Y17436780D02*
X29298390Y17389161D01*
X29298390Y17389161D02*
X29441247Y17389161D01*
X29441247Y17389161D02*
X29631723Y17436780D01*
X29631723Y17436780D02*
X29726961Y17484399D01*
X29726961Y17484399D02*
X29822200Y17579637D01*
X29822200Y17579637D02*
X29869819Y17722494D01*
X29869819Y17722494D02*
X29869819Y17817732D01*
X29869819Y17817732D02*
X29822200Y17960589D01*
X29822200Y17960589D02*
X29774580Y18008208D01*
X29774580Y18008208D02*
X29441247Y18008208D01*
X29441247Y18008208D02*
X29441247Y17817732D01*
X29869819Y18436780D02*
X28869819Y18436780D01*
X28869819Y18436780D02*
X29869819Y19008208D01*
X29869819Y19008208D02*
X28869819Y19008208D01*
X29869819Y19484399D02*
X28869819Y19484399D01*
X28869819Y19484399D02*
X28869819Y19722494D01*
X28869819Y19722494D02*
X28917438Y19865351D01*
X28917438Y19865351D02*
X29012676Y19960589D01*
X29012676Y19960589D02*
X29107914Y20008208D01*
X29107914Y20008208D02*
X29298390Y20055827D01*
X29298390Y20055827D02*
X29441247Y20055827D01*
X29441247Y20055827D02*
X29631723Y20008208D01*
X29631723Y20008208D02*
X29726961Y19960589D01*
X29726961Y19960589D02*
X29822200Y19865351D01*
X29822200Y19865351D02*
X29869819Y19722494D01*
X29869819Y19722494D02*
X29869819Y19484399D01*
D11*
X41116666Y14682927D02*
X41116666Y14182927D01*
X41116666Y14182927D02*
X41083333Y14082927D01*
X41083333Y14082927D02*
X41016666Y14016260D01*
X41016666Y14016260D02*
X40916666Y13982927D01*
X40916666Y13982927D02*
X40850000Y13982927D01*
X41449999Y13982927D02*
X41449999Y14682927D01*
X41449999Y14682927D02*
X41716666Y14682927D01*
X41716666Y14682927D02*
X41783333Y14649594D01*
X41783333Y14649594D02*
X41816666Y14616260D01*
X41816666Y14616260D02*
X41849999Y14549594D01*
X41849999Y14549594D02*
X41849999Y14449594D01*
X41849999Y14449594D02*
X41816666Y14382927D01*
X41816666Y14382927D02*
X41783333Y14349594D01*
X41783333Y14349594D02*
X41716666Y14316260D01*
X41716666Y14316260D02*
X41449999Y14316260D01*
X42516666Y13982927D02*
X42116666Y13982927D01*
X42316666Y13982927D02*
X42316666Y14682927D01*
X42316666Y14682927D02*
X42249999Y14582927D01*
X42249999Y14582927D02*
X42183333Y14516260D01*
X42183333Y14516260D02*
X42116666Y14482927D01*
D13*
X21860588Y2182562D02*
X21765350Y2230181D01*
X21765350Y2230181D02*
X21622493Y2230181D01*
X21622493Y2230181D02*
X21479636Y2182562D01*
X21479636Y2182562D02*
X21384398Y2087324D01*
X21384398Y2087324D02*
X21336779Y1992086D01*
X21336779Y1992086D02*
X21289160Y1801610D01*
X21289160Y1801610D02*
X21289160Y1658753D01*
X21289160Y1658753D02*
X21336779Y1468277D01*
X21336779Y1468277D02*
X21384398Y1373039D01*
X21384398Y1373039D02*
X21479636Y1277800D01*
X21479636Y1277800D02*
X21622493Y1230181D01*
X21622493Y1230181D02*
X21717731Y1230181D01*
X21717731Y1230181D02*
X21860588Y1277800D01*
X21860588Y1277800D02*
X21908207Y1325420D01*
X21908207Y1325420D02*
X21908207Y1658753D01*
X21908207Y1658753D02*
X21717731Y1658753D01*
X22336779Y1230181D02*
X22336779Y2230181D01*
X22336779Y2230181D02*
X22908207Y1230181D01*
X22908207Y1230181D02*
X22908207Y2230181D01*
X23384398Y1230181D02*
X23384398Y2230181D01*
X23384398Y2230181D02*
X23622493Y2230181D01*
X23622493Y2230181D02*
X23765350Y2182562D01*
X23765350Y2182562D02*
X23860588Y2087324D01*
X23860588Y2087324D02*
X23908207Y1992086D01*
X23908207Y1992086D02*
X23955826Y1801610D01*
X23955826Y1801610D02*
X23955826Y1658753D01*
X23955826Y1658753D02*
X23908207Y1468277D01*
X23908207Y1468277D02*
X23860588Y1373039D01*
X23860588Y1373039D02*
X23765350Y1277800D01*
X23765350Y1277800D02*
X23622493Y1230181D01*
X23622493Y1230181D02*
X23384398Y1230181D01*
X29033333Y7445181D02*
X28700000Y7921372D01*
X28461905Y7445181D02*
X28461905Y8445181D01*
X28461905Y8445181D02*
X28842857Y8445181D01*
X28842857Y8445181D02*
X28938095Y8397562D01*
X28938095Y8397562D02*
X28985714Y8349943D01*
X28985714Y8349943D02*
X29033333Y8254705D01*
X29033333Y8254705D02*
X29033333Y8111848D01*
X29033333Y8111848D02*
X28985714Y8016610D01*
X28985714Y8016610D02*
X28938095Y7968991D01*
X28938095Y7968991D02*
X28842857Y7921372D01*
X28842857Y7921372D02*
X28461905Y7921372D01*
X29890476Y8445181D02*
X29700000Y8445181D01*
X29700000Y8445181D02*
X29604762Y8397562D01*
X29604762Y8397562D02*
X29557143Y8349943D01*
X29557143Y8349943D02*
X29461905Y8207086D01*
X29461905Y8207086D02*
X29414286Y8016610D01*
X29414286Y8016610D02*
X29414286Y7635658D01*
X29414286Y7635658D02*
X29461905Y7540420D01*
X29461905Y7540420D02*
X29509524Y7492800D01*
X29509524Y7492800D02*
X29604762Y7445181D01*
X29604762Y7445181D02*
X29795238Y7445181D01*
X29795238Y7445181D02*
X29890476Y7492800D01*
X29890476Y7492800D02*
X29938095Y7540420D01*
X29938095Y7540420D02*
X29985714Y7635658D01*
X29985714Y7635658D02*
X29985714Y7873753D01*
X29985714Y7873753D02*
X29938095Y7968991D01*
X29938095Y7968991D02*
X29890476Y8016610D01*
X29890476Y8016610D02*
X29795238Y8064229D01*
X29795238Y8064229D02*
X29604762Y8064229D01*
X29604762Y8064229D02*
X29509524Y8016610D01*
X29509524Y8016610D02*
X29461905Y7968991D01*
X29461905Y7968991D02*
X29414286Y7873753D01*
X29859580Y14957143D02*
X29907200Y14909524D01*
X29907200Y14909524D02*
X29954819Y14766667D01*
X29954819Y14766667D02*
X29954819Y14671429D01*
X29954819Y14671429D02*
X29907200Y14528572D01*
X29907200Y14528572D02*
X29811961Y14433334D01*
X29811961Y14433334D02*
X29716723Y14385715D01*
X29716723Y14385715D02*
X29526247Y14338096D01*
X29526247Y14338096D02*
X29383390Y14338096D01*
X29383390Y14338096D02*
X29192914Y14385715D01*
X29192914Y14385715D02*
X29097676Y14433334D01*
X29097676Y14433334D02*
X29002438Y14528572D01*
X29002438Y14528572D02*
X28954819Y14671429D01*
X28954819Y14671429D02*
X28954819Y14766667D01*
X28954819Y14766667D02*
X29002438Y14909524D01*
X29002438Y14909524D02*
X29050057Y14957143D01*
X29954819Y15909524D02*
X29954819Y15338096D01*
X29954819Y15623810D02*
X28954819Y15623810D01*
X28954819Y15623810D02*
X29097676Y15528572D01*
X29097676Y15528572D02*
X29192914Y15433334D01*
X29192914Y15433334D02*
X29240533Y15338096D01*
X28954819Y16528572D02*
X28954819Y16623810D01*
X28954819Y16623810D02*
X29002438Y16719048D01*
X29002438Y16719048D02*
X29050057Y16766667D01*
X29050057Y16766667D02*
X29145295Y16814286D01*
X29145295Y16814286D02*
X29335771Y16861905D01*
X29335771Y16861905D02*
X29573866Y16861905D01*
X29573866Y16861905D02*
X29764342Y16814286D01*
X29764342Y16814286D02*
X29859580Y16766667D01*
X29859580Y16766667D02*
X29907200Y16719048D01*
X29907200Y16719048D02*
X29954819Y16623810D01*
X29954819Y16623810D02*
X29954819Y16528572D01*
X29954819Y16528572D02*
X29907200Y16433334D01*
X29907200Y16433334D02*
X29859580Y16385715D01*
X29859580Y16385715D02*
X29764342Y16338096D01*
X29764342Y16338096D02*
X29573866Y16290477D01*
X29573866Y16290477D02*
X29335771Y16290477D01*
X29335771Y16290477D02*
X29145295Y16338096D01*
X29145295Y16338096D02*
X29050057Y16385715D01*
X29050057Y16385715D02*
X29002438Y16433334D01*
X29002438Y16433334D02*
X28954819Y16528572D01*
X12357142Y6340420D02*
X12309523Y6292800D01*
X12309523Y6292800D02*
X12166666Y6245181D01*
X12166666Y6245181D02*
X12071428Y6245181D01*
X12071428Y6245181D02*
X11928571Y6292800D01*
X11928571Y6292800D02*
X11833333Y6388039D01*
X11833333Y6388039D02*
X11785714Y6483277D01*
X11785714Y6483277D02*
X11738095Y6673753D01*
X11738095Y6673753D02*
X11738095Y6816610D01*
X11738095Y6816610D02*
X11785714Y7007086D01*
X11785714Y7007086D02*
X11833333Y7102324D01*
X11833333Y7102324D02*
X11928571Y7197562D01*
X11928571Y7197562D02*
X12071428Y7245181D01*
X12071428Y7245181D02*
X12166666Y7245181D01*
X12166666Y7245181D02*
X12309523Y7197562D01*
X12309523Y7197562D02*
X12357142Y7149943D01*
X13309523Y6245181D02*
X12738095Y6245181D01*
X13023809Y6245181D02*
X13023809Y7245181D01*
X13023809Y7245181D02*
X12928571Y7102324D01*
X12928571Y7102324D02*
X12833333Y7007086D01*
X12833333Y7007086D02*
X12738095Y6959467D01*
X13690476Y7149943D02*
X13738095Y7197562D01*
X13738095Y7197562D02*
X13833333Y7245181D01*
X13833333Y7245181D02*
X14071428Y7245181D01*
X14071428Y7245181D02*
X14166666Y7197562D01*
X14166666Y7197562D02*
X14214285Y7149943D01*
X14214285Y7149943D02*
X14261904Y7054705D01*
X14261904Y7054705D02*
X14261904Y6959467D01*
X14261904Y6959467D02*
X14214285Y6816610D01*
X14214285Y6816610D02*
X13642857Y6245181D01*
X13642857Y6245181D02*
X14261904Y6245181D01*
X35457142Y12345181D02*
X35123809Y12821372D01*
X34885714Y12345181D02*
X34885714Y13345181D01*
X34885714Y13345181D02*
X35266666Y13345181D01*
X35266666Y13345181D02*
X35361904Y13297562D01*
X35361904Y13297562D02*
X35409523Y13249943D01*
X35409523Y13249943D02*
X35457142Y13154705D01*
X35457142Y13154705D02*
X35457142Y13011848D01*
X35457142Y13011848D02*
X35409523Y12916610D01*
X35409523Y12916610D02*
X35361904Y12868991D01*
X35361904Y12868991D02*
X35266666Y12821372D01*
X35266666Y12821372D02*
X34885714Y12821372D01*
X36409523Y12345181D02*
X35838095Y12345181D01*
X36123809Y12345181D02*
X36123809Y13345181D01*
X36123809Y13345181D02*
X36028571Y13202324D01*
X36028571Y13202324D02*
X35933333Y13107086D01*
X35933333Y13107086D02*
X35838095Y13059467D01*
X37028571Y13345181D02*
X37123809Y13345181D01*
X37123809Y13345181D02*
X37219047Y13297562D01*
X37219047Y13297562D02*
X37266666Y13249943D01*
X37266666Y13249943D02*
X37314285Y13154705D01*
X37314285Y13154705D02*
X37361904Y12964229D01*
X37361904Y12964229D02*
X37361904Y12726134D01*
X37361904Y12726134D02*
X37314285Y12535658D01*
X37314285Y12535658D02*
X37266666Y12440420D01*
X37266666Y12440420D02*
X37219047Y12392800D01*
X37219047Y12392800D02*
X37123809Y12345181D01*
X37123809Y12345181D02*
X37028571Y12345181D01*
X37028571Y12345181D02*
X36933333Y12392800D01*
X36933333Y12392800D02*
X36885714Y12440420D01*
X36885714Y12440420D02*
X36838095Y12535658D01*
X36838095Y12535658D02*
X36790476Y12726134D01*
X36790476Y12726134D02*
X36790476Y12964229D01*
X36790476Y12964229D02*
X36838095Y13154705D01*
X36838095Y13154705D02*
X36885714Y13249943D01*
X36885714Y13249943D02*
X36933333Y13297562D01*
X36933333Y13297562D02*
X37028571Y13345181D01*
X40133333Y19045181D02*
X39657143Y19045181D01*
X39657143Y19045181D02*
X39657143Y20045181D01*
X40371429Y20045181D02*
X40990476Y20045181D01*
X40990476Y20045181D02*
X40657143Y19664229D01*
X40657143Y19664229D02*
X40800000Y19664229D01*
X40800000Y19664229D02*
X40895238Y19616610D01*
X40895238Y19616610D02*
X40942857Y19568991D01*
X40942857Y19568991D02*
X40990476Y19473753D01*
X40990476Y19473753D02*
X40990476Y19235658D01*
X40990476Y19235658D02*
X40942857Y19140420D01*
X40942857Y19140420D02*
X40895238Y19092800D01*
X40895238Y19092800D02*
X40800000Y19045181D01*
X40800000Y19045181D02*
X40514286Y19045181D01*
X40514286Y19045181D02*
X40419048Y19092800D01*
X40419048Y19092800D02*
X40371429Y19140420D01*
X29033333Y5440420D02*
X28985714Y5392800D01*
X28985714Y5392800D02*
X28842857Y5345181D01*
X28842857Y5345181D02*
X28747619Y5345181D01*
X28747619Y5345181D02*
X28604762Y5392800D01*
X28604762Y5392800D02*
X28509524Y5488039D01*
X28509524Y5488039D02*
X28461905Y5583277D01*
X28461905Y5583277D02*
X28414286Y5773753D01*
X28414286Y5773753D02*
X28414286Y5916610D01*
X28414286Y5916610D02*
X28461905Y6107086D01*
X28461905Y6107086D02*
X28509524Y6202324D01*
X28509524Y6202324D02*
X28604762Y6297562D01*
X28604762Y6297562D02*
X28747619Y6345181D01*
X28747619Y6345181D02*
X28842857Y6345181D01*
X28842857Y6345181D02*
X28985714Y6297562D01*
X28985714Y6297562D02*
X29033333Y6249943D01*
X29890476Y6345181D02*
X29700000Y6345181D01*
X29700000Y6345181D02*
X29604762Y6297562D01*
X29604762Y6297562D02*
X29557143Y6249943D01*
X29557143Y6249943D02*
X29461905Y6107086D01*
X29461905Y6107086D02*
X29414286Y5916610D01*
X29414286Y5916610D02*
X29414286Y5535658D01*
X29414286Y5535658D02*
X29461905Y5440420D01*
X29461905Y5440420D02*
X29509524Y5392800D01*
X29509524Y5392800D02*
X29604762Y5345181D01*
X29604762Y5345181D02*
X29795238Y5345181D01*
X29795238Y5345181D02*
X29890476Y5392800D01*
X29890476Y5392800D02*
X29938095Y5440420D01*
X29938095Y5440420D02*
X29985714Y5535658D01*
X29985714Y5535658D02*
X29985714Y5773753D01*
X29985714Y5773753D02*
X29938095Y5868991D01*
X29938095Y5868991D02*
X29890476Y5916610D01*
X29890476Y5916610D02*
X29795238Y5964229D01*
X29795238Y5964229D02*
X29604762Y5964229D01*
X29604762Y5964229D02*
X29509524Y5916610D01*
X29509524Y5916610D02*
X29461905Y5868991D01*
X29461905Y5868991D02*
X29414286Y5773753D01*
X14754819Y14133334D02*
X14754819Y13657144D01*
X14754819Y13657144D02*
X13754819Y13657144D01*
X14754819Y14990477D02*
X14754819Y14419049D01*
X14754819Y14704763D02*
X13754819Y14704763D01*
X13754819Y14704763D02*
X13897676Y14609525D01*
X13897676Y14609525D02*
X13992914Y14514287D01*
X13992914Y14514287D02*
X14040533Y14419049D01*
X21333333Y17645181D02*
X20857143Y17645181D01*
X20857143Y17645181D02*
X20857143Y18645181D01*
X21619048Y18549943D02*
X21666667Y18597562D01*
X21666667Y18597562D02*
X21761905Y18645181D01*
X21761905Y18645181D02*
X22000000Y18645181D01*
X22000000Y18645181D02*
X22095238Y18597562D01*
X22095238Y18597562D02*
X22142857Y18549943D01*
X22142857Y18549943D02*
X22190476Y18454705D01*
X22190476Y18454705D02*
X22190476Y18359467D01*
X22190476Y18359467D02*
X22142857Y18216610D01*
X22142857Y18216610D02*
X21571429Y17645181D01*
X21571429Y17645181D02*
X22190476Y17645181D01*
X29438095Y10845181D02*
X29438095Y10035658D01*
X29438095Y10035658D02*
X29485714Y9940420D01*
X29485714Y9940420D02*
X29533333Y9892800D01*
X29533333Y9892800D02*
X29628571Y9845181D01*
X29628571Y9845181D02*
X29819047Y9845181D01*
X29819047Y9845181D02*
X29914285Y9892800D01*
X29914285Y9892800D02*
X29961904Y9940420D01*
X29961904Y9940420D02*
X30009523Y10035658D01*
X30009523Y10035658D02*
X30009523Y10845181D01*
X30438095Y10749943D02*
X30485714Y10797562D01*
X30485714Y10797562D02*
X30580952Y10845181D01*
X30580952Y10845181D02*
X30819047Y10845181D01*
X30819047Y10845181D02*
X30914285Y10797562D01*
X30914285Y10797562D02*
X30961904Y10749943D01*
X30961904Y10749943D02*
X31009523Y10654705D01*
X31009523Y10654705D02*
X31009523Y10559467D01*
X31009523Y10559467D02*
X30961904Y10416610D01*
X30961904Y10416610D02*
X30390476Y9845181D01*
X30390476Y9845181D02*
X31009523Y9845181D01*
X10633333Y12245181D02*
X10300000Y12721372D01*
X10061905Y12245181D02*
X10061905Y13245181D01*
X10061905Y13245181D02*
X10442857Y13245181D01*
X10442857Y13245181D02*
X10538095Y13197562D01*
X10538095Y13197562D02*
X10585714Y13149943D01*
X10585714Y13149943D02*
X10633333Y13054705D01*
X10633333Y13054705D02*
X10633333Y12911848D01*
X10633333Y12911848D02*
X10585714Y12816610D01*
X10585714Y12816610D02*
X10538095Y12768991D01*
X10538095Y12768991D02*
X10442857Y12721372D01*
X10442857Y12721372D02*
X10061905Y12721372D01*
X10966667Y13245181D02*
X11585714Y13245181D01*
X11585714Y13245181D02*
X11252381Y12864229D01*
X11252381Y12864229D02*
X11395238Y12864229D01*
X11395238Y12864229D02*
X11490476Y12816610D01*
X11490476Y12816610D02*
X11538095Y12768991D01*
X11538095Y12768991D02*
X11585714Y12673753D01*
X11585714Y12673753D02*
X11585714Y12435658D01*
X11585714Y12435658D02*
X11538095Y12340420D01*
X11538095Y12340420D02*
X11490476Y12292800D01*
X11490476Y12292800D02*
X11395238Y12245181D01*
X11395238Y12245181D02*
X11109524Y12245181D01*
X11109524Y12245181D02*
X11014286Y12292800D01*
X11014286Y12292800D02*
X10966667Y12340420D01*
X8617438Y17860589D02*
X8569819Y17765351D01*
X8569819Y17765351D02*
X8569819Y17622494D01*
X8569819Y17622494D02*
X8617438Y17479637D01*
X8617438Y17479637D02*
X8712676Y17384399D01*
X8712676Y17384399D02*
X8807914Y17336780D01*
X8807914Y17336780D02*
X8998390Y17289161D01*
X8998390Y17289161D02*
X9141247Y17289161D01*
X9141247Y17289161D02*
X9331723Y17336780D01*
X9331723Y17336780D02*
X9426961Y17384399D01*
X9426961Y17384399D02*
X9522200Y17479637D01*
X9522200Y17479637D02*
X9569819Y17622494D01*
X9569819Y17622494D02*
X9569819Y17717732D01*
X9569819Y17717732D02*
X9522200Y17860589D01*
X9522200Y17860589D02*
X9474580Y17908208D01*
X9474580Y17908208D02*
X9141247Y17908208D01*
X9141247Y17908208D02*
X9141247Y17717732D01*
X9569819Y18336780D02*
X8569819Y18336780D01*
X8569819Y18336780D02*
X9569819Y18908208D01*
X9569819Y18908208D02*
X8569819Y18908208D01*
X9569819Y19384399D02*
X8569819Y19384399D01*
X8569819Y19384399D02*
X8569819Y19622494D01*
X8569819Y19622494D02*
X8617438Y19765351D01*
X8617438Y19765351D02*
X8712676Y19860589D01*
X8712676Y19860589D02*
X8807914Y19908208D01*
X8807914Y19908208D02*
X8998390Y19955827D01*
X8998390Y19955827D02*
X9141247Y19955827D01*
X9141247Y19955827D02*
X9331723Y19908208D01*
X9331723Y19908208D02*
X9426961Y19860589D01*
X9426961Y19860589D02*
X9522200Y19765351D01*
X9522200Y19765351D02*
X9569819Y19622494D01*
X9569819Y19622494D02*
X9569819Y19384399D01*
X22833333Y15140420D02*
X22785714Y15092800D01*
X22785714Y15092800D02*
X22642857Y15045181D01*
X22642857Y15045181D02*
X22547619Y15045181D01*
X22547619Y15045181D02*
X22404762Y15092800D01*
X22404762Y15092800D02*
X22309524Y15188039D01*
X22309524Y15188039D02*
X22261905Y15283277D01*
X22261905Y15283277D02*
X22214286Y15473753D01*
X22214286Y15473753D02*
X22214286Y15616610D01*
X22214286Y15616610D02*
X22261905Y15807086D01*
X22261905Y15807086D02*
X22309524Y15902324D01*
X22309524Y15902324D02*
X22404762Y15997562D01*
X22404762Y15997562D02*
X22547619Y16045181D01*
X22547619Y16045181D02*
X22642857Y16045181D01*
X22642857Y16045181D02*
X22785714Y15997562D01*
X22785714Y15997562D02*
X22833333Y15949943D01*
X23785714Y15045181D02*
X23214286Y15045181D01*
X23500000Y15045181D02*
X23500000Y16045181D01*
X23500000Y16045181D02*
X23404762Y15902324D01*
X23404762Y15902324D02*
X23309524Y15807086D01*
X23309524Y15807086D02*
X23214286Y15759467D01*
X35933333Y19040420D02*
X35885714Y18992800D01*
X35885714Y18992800D02*
X35742857Y18945181D01*
X35742857Y18945181D02*
X35647619Y18945181D01*
X35647619Y18945181D02*
X35504762Y18992800D01*
X35504762Y18992800D02*
X35409524Y19088039D01*
X35409524Y19088039D02*
X35361905Y19183277D01*
X35361905Y19183277D02*
X35314286Y19373753D01*
X35314286Y19373753D02*
X35314286Y19516610D01*
X35314286Y19516610D02*
X35361905Y19707086D01*
X35361905Y19707086D02*
X35409524Y19802324D01*
X35409524Y19802324D02*
X35504762Y19897562D01*
X35504762Y19897562D02*
X35647619Y19945181D01*
X35647619Y19945181D02*
X35742857Y19945181D01*
X35742857Y19945181D02*
X35885714Y19897562D01*
X35885714Y19897562D02*
X35933333Y19849943D01*
X36838095Y19945181D02*
X36361905Y19945181D01*
X36361905Y19945181D02*
X36314286Y19468991D01*
X36314286Y19468991D02*
X36361905Y19516610D01*
X36361905Y19516610D02*
X36457143Y19564229D01*
X36457143Y19564229D02*
X36695238Y19564229D01*
X36695238Y19564229D02*
X36790476Y19516610D01*
X36790476Y19516610D02*
X36838095Y19468991D01*
X36838095Y19468991D02*
X36885714Y19373753D01*
X36885714Y19373753D02*
X36885714Y19135658D01*
X36885714Y19135658D02*
X36838095Y19040420D01*
X36838095Y19040420D02*
X36790476Y18992800D01*
X36790476Y18992800D02*
X36695238Y18945181D01*
X36695238Y18945181D02*
X36457143Y18945181D01*
X36457143Y18945181D02*
X36361905Y18992800D01*
X36361905Y18992800D02*
X36314286Y19040420D01*
X26061904Y9768991D02*
X25728571Y9768991D01*
X25728571Y9245181D02*
X25728571Y10245181D01*
X25728571Y10245181D02*
X26204761Y10245181D01*
X27061904Y9245181D02*
X26585714Y9245181D01*
X26585714Y9245181D02*
X26585714Y10245181D01*
X27919047Y9245181D02*
X27347619Y9245181D01*
X27633333Y9245181D02*
X27633333Y10245181D01*
X27633333Y10245181D02*
X27538095Y10102324D01*
X27538095Y10102324D02*
X27442857Y10007086D01*
X27442857Y10007086D02*
X27347619Y9959467D01*
X42954819Y19133334D02*
X42478628Y18800001D01*
X42954819Y18561906D02*
X41954819Y18561906D01*
X41954819Y18561906D02*
X41954819Y18942858D01*
X41954819Y18942858D02*
X42002438Y19038096D01*
X42002438Y19038096D02*
X42050057Y19085715D01*
X42050057Y19085715D02*
X42145295Y19133334D01*
X42145295Y19133334D02*
X42288152Y19133334D01*
X42288152Y19133334D02*
X42383390Y19085715D01*
X42383390Y19085715D02*
X42431009Y19038096D01*
X42431009Y19038096D02*
X42478628Y18942858D01*
X42478628Y18942858D02*
X42478628Y18561906D01*
X42954819Y20085715D02*
X42954819Y19514287D01*
X42954819Y19800001D02*
X41954819Y19800001D01*
X41954819Y19800001D02*
X42097676Y19704763D01*
X42097676Y19704763D02*
X42192914Y19609525D01*
X42192914Y19609525D02*
X42240533Y19514287D01*
X34354819Y17457143D02*
X33878628Y17123810D01*
X34354819Y16885715D02*
X33354819Y16885715D01*
X33354819Y16885715D02*
X33354819Y17266667D01*
X33354819Y17266667D02*
X33402438Y17361905D01*
X33402438Y17361905D02*
X33450057Y17409524D01*
X33450057Y17409524D02*
X33545295Y17457143D01*
X33545295Y17457143D02*
X33688152Y17457143D01*
X33688152Y17457143D02*
X33783390Y17409524D01*
X33783390Y17409524D02*
X33831009Y17361905D01*
X33831009Y17361905D02*
X33878628Y17266667D01*
X33878628Y17266667D02*
X33878628Y16885715D01*
X34354819Y18409524D02*
X34354819Y17838096D01*
X34354819Y18123810D02*
X33354819Y18123810D01*
X33354819Y18123810D02*
X33497676Y18028572D01*
X33497676Y18028572D02*
X33592914Y17933334D01*
X33592914Y17933334D02*
X33640533Y17838096D01*
X34354819Y19361905D02*
X34354819Y18790477D01*
X34354819Y19076191D02*
X33354819Y19076191D01*
X33354819Y19076191D02*
X33497676Y18980953D01*
X33497676Y18980953D02*
X33592914Y18885715D01*
X33592914Y18885715D02*
X33640533Y18790477D01*
X39959580Y15833334D02*
X40007200Y15785715D01*
X40007200Y15785715D02*
X40054819Y15642858D01*
X40054819Y15642858D02*
X40054819Y15547620D01*
X40054819Y15547620D02*
X40007200Y15404763D01*
X40007200Y15404763D02*
X39911961Y15309525D01*
X39911961Y15309525D02*
X39816723Y15261906D01*
X39816723Y15261906D02*
X39626247Y15214287D01*
X39626247Y15214287D02*
X39483390Y15214287D01*
X39483390Y15214287D02*
X39292914Y15261906D01*
X39292914Y15261906D02*
X39197676Y15309525D01*
X39197676Y15309525D02*
X39102438Y15404763D01*
X39102438Y15404763D02*
X39054819Y15547620D01*
X39054819Y15547620D02*
X39054819Y15642858D01*
X39054819Y15642858D02*
X39102438Y15785715D01*
X39102438Y15785715D02*
X39150057Y15833334D01*
X39388152Y16690477D02*
X40054819Y16690477D01*
X39007200Y16452382D02*
X39721485Y16214287D01*
X39721485Y16214287D02*
X39721485Y16833334D01*
X16650057Y5804762D02*
X16602438Y5709524D01*
X16602438Y5709524D02*
X16507200Y5614286D01*
X16507200Y5614286D02*
X16364342Y5471429D01*
X16364342Y5471429D02*
X16316723Y5376191D01*
X16316723Y5376191D02*
X16316723Y5280953D01*
X16554819Y5328572D02*
X16507200Y5233334D01*
X16507200Y5233334D02*
X16411961Y5138096D01*
X16411961Y5138096D02*
X16221485Y5090477D01*
X16221485Y5090477D02*
X15888152Y5090477D01*
X15888152Y5090477D02*
X15697676Y5138096D01*
X15697676Y5138096D02*
X15602438Y5233334D01*
X15602438Y5233334D02*
X15554819Y5328572D01*
X15554819Y5328572D02*
X15554819Y5519048D01*
X15554819Y5519048D02*
X15602438Y5614286D01*
X15602438Y5614286D02*
X15697676Y5709524D01*
X15697676Y5709524D02*
X15888152Y5757143D01*
X15888152Y5757143D02*
X16221485Y5757143D01*
X16221485Y5757143D02*
X16411961Y5709524D01*
X16411961Y5709524D02*
X16507200Y5614286D01*
X16507200Y5614286D02*
X16554819Y5519048D01*
X16554819Y5519048D02*
X16554819Y5328572D01*
X16554819Y6709524D02*
X16554819Y6138096D01*
X16554819Y6423810D02*
X15554819Y6423810D01*
X15554819Y6423810D02*
X15697676Y6328572D01*
X15697676Y6328572D02*
X15792914Y6233334D01*
X15792914Y6233334D02*
X15840533Y6138096D01*
X13633333Y11040420D02*
X13585714Y10992800D01*
X13585714Y10992800D02*
X13442857Y10945181D01*
X13442857Y10945181D02*
X13347619Y10945181D01*
X13347619Y10945181D02*
X13204762Y10992800D01*
X13204762Y10992800D02*
X13109524Y11088039D01*
X13109524Y11088039D02*
X13061905Y11183277D01*
X13061905Y11183277D02*
X13014286Y11373753D01*
X13014286Y11373753D02*
X13014286Y11516610D01*
X13014286Y11516610D02*
X13061905Y11707086D01*
X13061905Y11707086D02*
X13109524Y11802324D01*
X13109524Y11802324D02*
X13204762Y11897562D01*
X13204762Y11897562D02*
X13347619Y11945181D01*
X13347619Y11945181D02*
X13442857Y11945181D01*
X13442857Y11945181D02*
X13585714Y11897562D01*
X13585714Y11897562D02*
X13633333Y11849943D01*
X14014286Y11849943D02*
X14061905Y11897562D01*
X14061905Y11897562D02*
X14157143Y11945181D01*
X14157143Y11945181D02*
X14395238Y11945181D01*
X14395238Y11945181D02*
X14490476Y11897562D01*
X14490476Y11897562D02*
X14538095Y11849943D01*
X14538095Y11849943D02*
X14585714Y11754705D01*
X14585714Y11754705D02*
X14585714Y11659467D01*
X14585714Y11659467D02*
X14538095Y11516610D01*
X14538095Y11516610D02*
X13966667Y10945181D01*
X13966667Y10945181D02*
X14585714Y10945181D01*
X966666Y19245181D02*
X966666Y18530896D01*
X966666Y18530896D02*
X919047Y18388039D01*
X919047Y18388039D02*
X823809Y18292800D01*
X823809Y18292800D02*
X680952Y18245181D01*
X680952Y18245181D02*
X585714Y18245181D01*
X1871428Y18911848D02*
X1871428Y18245181D01*
X1633333Y19292800D02*
X1395238Y18578515D01*
X1395238Y18578515D02*
X2014285Y18578515D01*
X15038095Y19745181D02*
X15609523Y19745181D01*
X15323809Y18745181D02*
X15323809Y19745181D01*
X15942857Y18745181D02*
X15942857Y19745181D01*
X15942857Y19745181D02*
X16323809Y19745181D01*
X16323809Y19745181D02*
X16419047Y19697562D01*
X16419047Y19697562D02*
X16466666Y19649943D01*
X16466666Y19649943D02*
X16514285Y19554705D01*
X16514285Y19554705D02*
X16514285Y19411848D01*
X16514285Y19411848D02*
X16466666Y19316610D01*
X16466666Y19316610D02*
X16419047Y19268991D01*
X16419047Y19268991D02*
X16323809Y19221372D01*
X16323809Y19221372D02*
X15942857Y19221372D01*
X17419047Y19745181D02*
X16942857Y19745181D01*
X16942857Y19745181D02*
X16895238Y19268991D01*
X16895238Y19268991D02*
X16942857Y19316610D01*
X16942857Y19316610D02*
X17038095Y19364229D01*
X17038095Y19364229D02*
X17276190Y19364229D01*
X17276190Y19364229D02*
X17371428Y19316610D01*
X17371428Y19316610D02*
X17419047Y19268991D01*
X17419047Y19268991D02*
X17466666Y19173753D01*
X17466666Y19173753D02*
X17466666Y18935658D01*
X17466666Y18935658D02*
X17419047Y18840420D01*
X17419047Y18840420D02*
X17371428Y18792800D01*
X17371428Y18792800D02*
X17276190Y18745181D01*
X17276190Y18745181D02*
X17038095Y18745181D01*
X17038095Y18745181D02*
X16942857Y18792800D01*
X16942857Y18792800D02*
X16895238Y18840420D01*
X15093922Y18530181D02*
X15427255Y17530181D01*
X15427255Y17530181D02*
X15760588Y18530181D01*
X16093922Y17530181D02*
X16093922Y18530181D01*
X16093922Y18530181D02*
X16332017Y18530181D01*
X16332017Y18530181D02*
X16474874Y18482562D01*
X16474874Y18482562D02*
X16570112Y18387324D01*
X16570112Y18387324D02*
X16617731Y18292086D01*
X16617731Y18292086D02*
X16665350Y18101610D01*
X16665350Y18101610D02*
X16665350Y17958753D01*
X16665350Y17958753D02*
X16617731Y17768277D01*
X16617731Y17768277D02*
X16570112Y17673039D01*
X16570112Y17673039D02*
X16474874Y17577800D01*
X16474874Y17577800D02*
X16332017Y17530181D01*
X16332017Y17530181D02*
X16093922Y17530181D01*
X17093922Y17530181D02*
X17093922Y18530181D01*
X17093922Y18530181D02*
X17332017Y18530181D01*
X17332017Y18530181D02*
X17474874Y18482562D01*
X17474874Y18482562D02*
X17570112Y18387324D01*
X17570112Y18387324D02*
X17617731Y18292086D01*
X17617731Y18292086D02*
X17665350Y18101610D01*
X17665350Y18101610D02*
X17665350Y17958753D01*
X17665350Y17958753D02*
X17617731Y17768277D01*
X17617731Y17768277D02*
X17570112Y17673039D01*
X17570112Y17673039D02*
X17474874Y17577800D01*
X17474874Y17577800D02*
X17332017Y17530181D01*
X17332017Y17530181D02*
X17093922Y17530181D01*
X31159580Y15433334D02*
X31207200Y15385715D01*
X31207200Y15385715D02*
X31254819Y15242858D01*
X31254819Y15242858D02*
X31254819Y15147620D01*
X31254819Y15147620D02*
X31207200Y15004763D01*
X31207200Y15004763D02*
X31111961Y14909525D01*
X31111961Y14909525D02*
X31016723Y14861906D01*
X31016723Y14861906D02*
X30826247Y14814287D01*
X30826247Y14814287D02*
X30683390Y14814287D01*
X30683390Y14814287D02*
X30492914Y14861906D01*
X30492914Y14861906D02*
X30397676Y14909525D01*
X30397676Y14909525D02*
X30302438Y15004763D01*
X30302438Y15004763D02*
X30254819Y15147620D01*
X30254819Y15147620D02*
X30254819Y15242858D01*
X30254819Y15242858D02*
X30302438Y15385715D01*
X30302438Y15385715D02*
X30350057Y15433334D01*
X31254819Y15909525D02*
X31254819Y16100001D01*
X31254819Y16100001D02*
X31207200Y16195239D01*
X31207200Y16195239D02*
X31159580Y16242858D01*
X31159580Y16242858D02*
X31016723Y16338096D01*
X31016723Y16338096D02*
X30826247Y16385715D01*
X30826247Y16385715D02*
X30445295Y16385715D01*
X30445295Y16385715D02*
X30350057Y16338096D01*
X30350057Y16338096D02*
X30302438Y16290477D01*
X30302438Y16290477D02*
X30254819Y16195239D01*
X30254819Y16195239D02*
X30254819Y16004763D01*
X30254819Y16004763D02*
X30302438Y15909525D01*
X30302438Y15909525D02*
X30350057Y15861906D01*
X30350057Y15861906D02*
X30445295Y15814287D01*
X30445295Y15814287D02*
X30683390Y15814287D01*
X30683390Y15814287D02*
X30778628Y15861906D01*
X30778628Y15861906D02*
X30826247Y15909525D01*
X30826247Y15909525D02*
X30873866Y16004763D01*
X30873866Y16004763D02*
X30873866Y16195239D01*
X30873866Y16195239D02*
X30826247Y16290477D01*
X30826247Y16290477D02*
X30778628Y16338096D01*
X30778628Y16338096D02*
X30683390Y16385715D01*
X18138095Y8645181D02*
X18709523Y8645181D01*
X18423809Y7645181D02*
X18423809Y8645181D01*
X19042857Y7645181D02*
X19042857Y8645181D01*
X19042857Y8645181D02*
X19423809Y8645181D01*
X19423809Y8645181D02*
X19519047Y8597562D01*
X19519047Y8597562D02*
X19566666Y8549943D01*
X19566666Y8549943D02*
X19614285Y8454705D01*
X19614285Y8454705D02*
X19614285Y8311848D01*
X19614285Y8311848D02*
X19566666Y8216610D01*
X19566666Y8216610D02*
X19519047Y8168991D01*
X19519047Y8168991D02*
X19423809Y8121372D01*
X19423809Y8121372D02*
X19042857Y8121372D01*
X19947619Y8645181D02*
X20614285Y8645181D01*
X20614285Y8645181D02*
X20185714Y7645181D01*
X18236779Y6430181D02*
X18236779Y7430181D01*
X18236779Y7430181D02*
X18474874Y7430181D01*
X18474874Y7430181D02*
X18617731Y7382562D01*
X18617731Y7382562D02*
X18712969Y7287324D01*
X18712969Y7287324D02*
X18760588Y7192086D01*
X18760588Y7192086D02*
X18808207Y7001610D01*
X18808207Y7001610D02*
X18808207Y6858753D01*
X18808207Y6858753D02*
X18760588Y6668277D01*
X18760588Y6668277D02*
X18712969Y6573039D01*
X18712969Y6573039D02*
X18617731Y6477800D01*
X18617731Y6477800D02*
X18474874Y6430181D01*
X18474874Y6430181D02*
X18236779Y6430181D01*
X19236779Y6430181D02*
X19236779Y7430181D01*
X19903445Y7430181D02*
X20093921Y7430181D01*
X20093921Y7430181D02*
X20189159Y7382562D01*
X20189159Y7382562D02*
X20284397Y7287324D01*
X20284397Y7287324D02*
X20332016Y7096848D01*
X20332016Y7096848D02*
X20332016Y6763515D01*
X20332016Y6763515D02*
X20284397Y6573039D01*
X20284397Y6573039D02*
X20189159Y6477800D01*
X20189159Y6477800D02*
X20093921Y6430181D01*
X20093921Y6430181D02*
X19903445Y6430181D01*
X19903445Y6430181D02*
X19808207Y6477800D01*
X19808207Y6477800D02*
X19712969Y6573039D01*
X19712969Y6573039D02*
X19665350Y6763515D01*
X19665350Y6763515D02*
X19665350Y7096848D01*
X19665350Y7096848D02*
X19712969Y7287324D01*
X19712969Y7287324D02*
X19808207Y7382562D01*
X19808207Y7382562D02*
X19903445Y7430181D01*
X20712969Y7334943D02*
X20760588Y7382562D01*
X20760588Y7382562D02*
X20855826Y7430181D01*
X20855826Y7430181D02*
X21093921Y7430181D01*
X21093921Y7430181D02*
X21189159Y7382562D01*
X21189159Y7382562D02*
X21236778Y7334943D01*
X21236778Y7334943D02*
X21284397Y7239705D01*
X21284397Y7239705D02*
X21284397Y7144467D01*
X21284397Y7144467D02*
X21236778Y7001610D01*
X21236778Y7001610D02*
X20665350Y6430181D01*
X20665350Y6430181D02*
X21284397Y6430181D01*
%TO.C,R4*%
D14*
X11037258Y17022500D02*
X10562742Y17022500D01*
X11037258Y15977500D02*
X10562742Y15977500D01*
%TO.C,R2*%
X11037258Y11997500D02*
X10562742Y11997500D01*
X11037258Y10952500D02*
X10562742Y10952500D01*
%TO.C,C7*%
X26140580Y2210000D02*
X25859420Y2210000D01*
X26140580Y1190000D02*
X25859420Y1190000D01*
%TO.C,Y1*%
X18750000Y17550000D02*
X18750000Y15250000D01*
X18750000Y15250000D02*
X21450000Y15250000D01*
%TO.C,R5*%
X19977500Y4737258D02*
X19977500Y4262742D01*
X21022500Y4737258D02*
X21022500Y4262742D01*
%TO.C,C8*%
X16140580Y9910000D02*
X15859420Y9910000D01*
X16140580Y8890000D02*
X15859420Y8890000D01*
%TO.C,L4*%
X23990000Y14562779D02*
X23990000Y14237221D01*
X25010000Y14562779D02*
X25010000Y14237221D01*
%TO.C,R13*%
X19937258Y2222500D02*
X19462742Y2222500D01*
X19937258Y1177500D02*
X19462742Y1177500D01*
%TO.C,U1*%
X18490000Y14160000D02*
X18965000Y14160000D01*
X18490000Y13685000D02*
X18490000Y14160000D01*
X18490000Y10415000D02*
X18490000Y9940000D01*
X18490000Y9940000D02*
X18965000Y9940000D01*
X22235000Y14160000D02*
X22470000Y14160000D01*
X22710000Y13685000D02*
X22710000Y13860000D01*
X22710000Y10415000D02*
X22710000Y9940000D01*
X22710000Y9940000D02*
X22235000Y9940000D01*
X23040000Y13920000D02*
X22710000Y14160000D01*
X23040000Y14400000D01*
X23040000Y13920000D01*
G36*
X23040000Y13920000D02*
G01*
X22710000Y14160000D01*
X23040000Y14400000D01*
X23040000Y13920000D01*
G37*
%TO.C,R7*%
X26237258Y4322500D02*
X25762742Y4322500D01*
X26237258Y3277500D02*
X25762742Y3277500D01*
%TO.C,TP4*%
D10*
X32700000Y11000000D02*
X32500000Y11200000D01*
X32700000Y10000000D02*
X32500000Y9800000D01*
X33700000Y11000000D02*
X33900000Y11200000D01*
X33700000Y10000000D02*
X33900000Y9800000D01*
%TO.C,TP6*%
X24100000Y19600000D02*
X23700000Y20000000D01*
X24100000Y18000000D02*
X23700000Y17600000D01*
X25700000Y19600000D02*
X26100000Y20000000D01*
X25700000Y18000000D02*
X26100000Y17600000D01*
%TO.C,R8*%
D14*
X11037258Y9422500D02*
X10562742Y9422500D01*
X11037258Y8377500D02*
X10562742Y8377500D01*
%TO.C,C11*%
X16440580Y17110000D02*
X16159420Y17110000D01*
X16440580Y16090000D02*
X16159420Y16090000D01*
%TO.C,R12*%
X33953641Y14680000D02*
X33646359Y14680000D01*
X33953641Y13920000D02*
X33646359Y13920000D01*
%TO.C,C3*%
X42040000Y17407836D02*
X42040000Y17192164D01*
X42760000Y17407836D02*
X42760000Y17192164D01*
%TO.C,J2*%
X10100000Y5130000D02*
X10100000Y2470000D01*
X12700000Y5130000D02*
X10100000Y5130000D01*
X12700000Y5130000D02*
X12700000Y2470000D01*
X12700000Y2470000D02*
X10100000Y2470000D01*
X13970000Y5130000D02*
X15300000Y5130000D01*
X15300000Y5130000D02*
X15300000Y3800000D01*
%TO.C,J1*%
X35945000Y9750000D02*
X35945000Y6850000D01*
X37850000Y11655000D02*
X40750000Y11655000D01*
X37850000Y4945000D02*
X40750000Y4945000D01*
X42655000Y9750000D02*
X42655000Y6850000D01*
%TO.C,TP3*%
D10*
X32700000Y12800000D02*
X32500000Y13000000D01*
X32700000Y11800000D02*
X32500000Y11600000D01*
X33700000Y12800000D02*
X33900000Y13000000D01*
X33700000Y11800000D02*
X33900000Y11600000D01*
%TO.C,TP9*%
X26600000Y19600000D02*
X26200000Y20000000D01*
X26600000Y18000000D02*
X26200000Y17600000D01*
X28200000Y19600000D02*
X28600000Y20000000D01*
X28200000Y18000000D02*
X28600000Y17600000D01*
%TO.C,JP1*%
D14*
X38636359Y14680000D02*
X38943641Y14680000D01*
X38636359Y13920000D02*
X38943641Y13920000D01*
X39692718Y14680000D02*
X40000000Y14680000D01*
X39692718Y13920000D02*
X40000000Y13920000D01*
%TO.C,TP10*%
D10*
X21800000Y4600000D02*
X21400000Y5000000D01*
X21800000Y3000000D02*
X21400000Y2600000D01*
X23400000Y4600000D02*
X23800000Y5000000D01*
X23400000Y3000000D02*
X23800000Y2600000D01*
%TO.C,R6*%
D14*
X26262258Y8422500D02*
X25787742Y8422500D01*
X26262258Y7377500D02*
X25787742Y7377500D01*
%TO.C,C10*%
X25790000Y16159420D02*
X25790000Y16440580D01*
X26810000Y16159420D02*
X26810000Y16440580D01*
%TO.C,C12*%
X10140580Y7210000D02*
X9859420Y7210000D01*
X10140580Y6190000D02*
X9859420Y6190000D01*
%TO.C,R10*%
X36253641Y14680000D02*
X35946359Y14680000D01*
X36253641Y13920000D02*
X35946359Y13920000D01*
%TO.C,C6*%
X26140580Y6310000D02*
X25859420Y6310000D01*
X26140580Y5290000D02*
X25859420Y5290000D01*
%TO.C,L1*%
X15015000Y13040000D02*
X15015000Y15560000D01*
X16785000Y13040000D02*
X16785000Y15560000D01*
%TO.C,L2*%
X19562779Y19410000D02*
X19237221Y19410000D01*
X19562779Y18390000D02*
X19237221Y18390000D01*
%TO.C,U2*%
X29490000Y13460000D02*
X30900000Y13460000D01*
X29500000Y11140000D02*
X30900000Y11140000D01*
X29120000Y13410000D02*
X28880000Y13740000D01*
X29360000Y13740000D01*
X29120000Y13410000D01*
G36*
X29120000Y13410000D02*
G01*
X28880000Y13740000D01*
X29360000Y13740000D01*
X29120000Y13410000D01*
G37*
%TO.C,R3*%
X11037258Y14522500D02*
X10562742Y14522500D01*
X11037258Y13477500D02*
X10562742Y13477500D01*
%TO.C,TP8*%
D10*
X10200000Y19400000D02*
X9800000Y19800000D01*
X10200000Y17800000D02*
X9800000Y17400000D01*
X11800000Y19400000D02*
X12200000Y19800000D01*
X11800000Y17800000D02*
X12200000Y17400000D01*
%TO.C,C1*%
D14*
X23559420Y17410000D02*
X23840580Y17410000D01*
X23559420Y16390000D02*
X23840580Y16390000D01*
%TO.C,C5*%
X36207836Y18160000D02*
X35992164Y18160000D01*
X36207836Y17440000D02*
X35992164Y17440000D01*
%TO.C,FL1*%
X26390000Y11290000D02*
X26065000Y11290000D01*
X27210000Y13510000D02*
X27535000Y13510000D01*
X27210000Y11290000D02*
X27535000Y11290000D01*
X26060000Y13520000D02*
X25820000Y13850000D01*
X26300000Y13850000D01*
X26060000Y13520000D01*
G36*
X26060000Y13520000D02*
G01*
X25820000Y13850000D01*
X26300000Y13850000D01*
X26060000Y13520000D01*
G37*
%TO.C,R1*%
X43820000Y17746359D02*
X43820000Y18053641D01*
X44580000Y17746359D02*
X44580000Y18053641D01*
%TO.C,R11*%
X35220000Y15946359D02*
X35220000Y16253641D01*
X35980000Y15946359D02*
X35980000Y16253641D01*
%TO.C,C4*%
X37740000Y17407836D02*
X37740000Y17192164D01*
X38460000Y17407836D02*
X38460000Y17192164D01*
%TO.C,Q1*%
X16900000Y4350000D02*
X16900000Y5650000D01*
X18700000Y4350000D02*
X18700000Y5650000D01*
D13*
X18385000Y6250000D02*
G75*
G02*
X18235000Y6250000I-75000J0D01*
G01*
X18235000Y6250000D02*
G75*
G02*
X18385000Y6250000I75000J0D01*
G01*
%TO.C,C2*%
D14*
X16140580Y11910000D02*
X15859420Y11910000D01*
X16140580Y10890000D02*
X15859420Y10890000D01*
%TO.C,J4*%
X-6290000Y16890000D02*
X-290000Y16890000D01*
X-6290000Y16130000D02*
X-6290000Y16890000D01*
X-6290000Y14350000D02*
X-290000Y14350000D01*
X-6290000Y13590000D02*
X-6290000Y14350000D01*
X-6290000Y11810000D02*
X-290000Y11810000D01*
X-6290000Y11050000D02*
X-6290000Y11810000D01*
X-6290000Y9270000D02*
X-290000Y9270000D01*
X-6290000Y8510000D02*
X-6290000Y9270000D01*
X-6290000Y6730000D02*
X-290000Y6730000D01*
X-6290000Y5970000D02*
X-6290000Y6730000D01*
X-6290000Y4190000D02*
X-290000Y4190000D01*
X-6290000Y3430000D02*
X-6290000Y4190000D01*
X-290000Y17840000D02*
X-290000Y2480000D01*
X-290000Y16130000D02*
X-6290000Y16130000D01*
X-290000Y13590000D02*
X-6290000Y13590000D01*
X-290000Y11050000D02*
X-6290000Y11050000D01*
X-290000Y8510000D02*
X-6290000Y8510000D01*
X-290000Y5970000D02*
X-6290000Y5970000D01*
X-290000Y3430000D02*
X-6290000Y3430000D01*
X-290000Y2480000D02*
X2370000Y2480000D01*
X2370000Y17840000D02*
X-290000Y17840000D01*
X2370000Y15240000D02*
X-290000Y15240000D01*
X2370000Y12700000D02*
X-290000Y12700000D01*
X2370000Y10160000D02*
X-290000Y10160000D01*
X2370000Y7620000D02*
X-290000Y7620000D01*
X2370000Y5080000D02*
X-290000Y5080000D01*
X2370000Y2480000D02*
X2370000Y17840000D01*
X2767071Y16890000D02*
X2370000Y16890000D01*
X2767071Y16130000D02*
X2370000Y16130000D01*
X2767071Y14350000D02*
X2370000Y14350000D01*
X2767071Y13590000D02*
X2370000Y13590000D01*
X2767071Y11810000D02*
X2370000Y11810000D01*
X2767071Y11050000D02*
X2370000Y11050000D01*
X2767071Y9270000D02*
X2370000Y9270000D01*
X2767071Y8510000D02*
X2370000Y8510000D01*
X2767071Y6730000D02*
X2370000Y6730000D01*
X2767071Y5970000D02*
X2370000Y5970000D01*
X2767071Y4190000D02*
X2370000Y4190000D01*
X2767071Y3430000D02*
X2370000Y3430000D01*
X5240000Y4190000D02*
X4852929Y4190000D01*
X5240000Y3430000D02*
X4852929Y3430000D01*
X5307071Y16890000D02*
X4852929Y16890000D01*
X5307071Y16130000D02*
X4852929Y16130000D01*
X5307071Y14350000D02*
X4852929Y14350000D01*
X5307071Y13590000D02*
X4852929Y13590000D01*
X5307071Y11810000D02*
X4852929Y11810000D01*
X5307071Y11050000D02*
X4852929Y11050000D01*
X5307071Y9270000D02*
X4852929Y9270000D01*
X5307071Y8510000D02*
X4852929Y8510000D01*
X5307071Y6730000D02*
X4852929Y6730000D01*
X5307071Y5970000D02*
X4852929Y5970000D01*
X7620000Y3810000D02*
X7620000Y2540000D01*
X7620000Y2540000D02*
X6350000Y2540000D01*
D10*
X-6290000Y16890000D02*
X-290000Y16890000D01*
X-290000Y16130000D01*
X-6290000Y16130000D01*
X-6290000Y16890000D01*
G36*
X-6290000Y16890000D02*
G01*
X-290000Y16890000D01*
X-290000Y16130000D01*
X-6290000Y16130000D01*
X-6290000Y16890000D01*
G37*
%TO.C,TP5*%
X12900000Y19400000D02*
X12500000Y19800000D01*
X12900000Y17800000D02*
X12500000Y17400000D01*
X14500000Y19400000D02*
X14900000Y19800000D01*
X14500000Y17800000D02*
X14900000Y17400000D01*
%TO.C,C9*%
D14*
X27590000Y16159420D02*
X27590000Y16440580D01*
X28610000Y16159420D02*
X28610000Y16440580D01*
%TO.C,TP7*%
D10*
X21800000Y7300000D02*
X21400000Y7700000D01*
X21800000Y5700000D02*
X21400000Y5300000D01*
X23400000Y7300000D02*
X23800000Y7700000D01*
X23400000Y5700000D02*
X23800000Y5300000D01*
%TD*%
M02*
